<?xml version="1.0" standalone="no"?>
<!DOCTYPE svg PUBLIC "-//W3C//DTD SVG 1.1//EN" "http://www.w3.org/Graphics/SVG/1.1/DTD/svg11.dtd" >
<svg xmlns="http://www.w3.org/2000/svg">
<metadata>
Created by FontPrep 20130207 at Tue Mar 28 16:15:51 2017
 By Wonyoung So
Copyright (c) 2011 by . All rights reserved.
</metadata>
<defs>
<font id="12170060098686bb0ac360c69ede705a" horiz-adv-x='1024' >
  <font-face 
    font-family="PostGrotesk-BookItalic"
    font-weight="500"
    font-style="italic"
    font-stretch="normal"
    units-per-em="2048"
    panose-1="2 0 0 0 0 0 0 0 0 0"
    ascent="1536"
    descent="-512"
    x-height="967"
    cap-height="1434"
    bbox="-354 -514 2654 1898"
    underline-thickness="81"
    underline-position="-205"
    unicode-range="U+0020-F301"
  />
<missing-glyph horiz-adv-x="1720" 
d="M477 231l-102 103l385 383l-385 383l102 102l383 -385l383 385l103 -102l-385 -383l385 -383l-103 -103l-383 385zM287 143h1147v1147h-1147v-1147zM143 1434h1434v-1434h-1434v1434z" />
    <glyph glyph-name="interrobang" unicode="&#x21;&#x3f;" horiz-adv-x="1034" 
d="M342 99q0 48 31 79t82 31t82 -31t31 -79t-32 -81q-30 -32 -81 -32t-82 32t-31 81zM885 1105q0 55 -36 117t-118 85l-104 -537q26 26 65 54t74 55q119 92 119 226zM1061 1110q0 -243 -297 -424q-35 -22 -68 -44q-111 -73 -135 -202l-12 -63h-135l139 926
q-91 -29 -150 -110q-58 -82 -77 -177l-172 28q79 299 324 384q82 30 184 30t177 -28q147 -54 197 -187q25 -63 25 -133z" />
    <glyph glyph-name="f_b" unicode="fb" horiz-adv-x="1826" 
d="M1234 117q65 0 128 35t108 94q97 127 97 307q1 129 -61 213t-178 84t-208 -74t-121 -219l-20 -115q-29 -158 52 -248q69 -77 203 -77zM1051 844q112 147 296 147t291 -119t107 -317q0 -256 -151 -420q-69 -76 -161 -118t-175 -42q-83 -1 -136 15q-153 45 -202 160
l-27 -150h-162l252 1434h172zM662 1458q54 0 112 -15t92 -44l-94 -133q-43 43 -118 43q-74 0 -110 -48t-50 -126l-31 -168h213l-23 -131h-213l-147 -836h-172l147 836h-166l23 131h166l31 168q32 181 138 264q78 59 202 59z" />
    <glyph glyph-name="f_h" unicode="fh" horiz-adv-x="1767" 
d="M1341 991q254 0 304 -192q16 -66 0 -154l-115 -645h-172l112 639q19 102 -33 156q-51 55 -144 55q-92 0 -183 -92t-117 -244l-90 -514h-174l254 1434h172l-104 -600q47 68 126 112t164 45zM662 1458q54 0 112 -15t92 -44l-94 -133q-43 43 -118 43q-74 0 -110 -48
t-50 -126l-31 -168h213l-23 -131h-213l-147 -836h-172l147 836h-166l23 131h166l31 168q32 181 138 264q78 59 202 59z" />
    <glyph glyph-name="f_k" unicode="fk" horiz-adv-x="1675" 
d="M1110 512l-135 -106l-72 -406h-172l252 1434h172l-147 -838l467 371h217l-447 -357l336 -610h-195zM662 1458q54 0 112 -15t92 -44l-94 -133q-43 43 -118 43q-74 0 -110 -48t-50 -126l-31 -168h213l-23 -131h-213l-147 -836h-172l147 836h-166l23 131h166l31 168
q32 181 138 264q78 59 202 59z" />
    <glyph glyph-name="fi" unicode="fi" horiz-adv-x="1148" 
d="M657 1458q51 0 107 -15t84 -44l-88 -133q-39 43 -111 43q-73 0 -107 -48t-48 -126l-31 -168h213l-23 -131h-213l-147 -836h-172l147 836h-166l23 131h166l31 168q18 100 54 162q93 161 281 161zM1042 1233q-48 1 -80 33t-32 80t32 79t80 31t81 -31q32 -31 32 -79t-32 -80
t-81 -33zM897 967h172l-170 -967h-172z" />
    <glyph glyph-name="fl" unicode="fl" horiz-adv-x="1150" 
d="M981 1434h172l-252 -1434h-172zM662 1458q54 0 112 -15t92 -44l-94 -133q-43 43 -118 43q-74 0 -110 -48t-50 -126l-31 -168h213l-23 -131h-213l-147 -836h-172l147 836h-166l23 131h166l31 168q32 181 138 264q78 59 202 59z" />
    <glyph glyph-name="interrobangdown" unicode="&#xa1;&#xbf;" horiz-adv-x="1011" 
d="M698 925q0 -48 -30 -79t-82 -31q-51 0 -82 31t-31 79t31 81q31 32 82 32t82 -32q30 -33 30 -81zM274 144q-118 -94 -118 -216q0 -121 83 -177q30 -22 70 -34l105 535q-43 -38 -74 -59t-66 -49zM-20 -99q0 136 71 240q72 104 225 197q85 48 119 86q65 70 84 160l13 63h135
l-140 -926q94 30 151 111q56 81 77 176l172 -28q-49 -188 -178 -302t-327 -112q-198 0 -300 100t-102 235z" />
    <glyph glyph-name="interrobangdown.cap" unicode="&#xe441;&#xe444;" horiz-adv-x="1040" 
d="M772 1334q0 -48 -31 -79t-82 -31t-81 32q-30 30 -31 78q0 48 31 81q32 33 82 33t81 -33t31 -81zM229 328q0 -58 35 -118t119 -83l104 535q-44 -39 -74 -60t-65 -48q-119 -95 -119 -226zM53 324q0 243 297 424q85 48 119 86q63 68 84 159l12 64h135l-139 -926
q94 29 151 112q58 82 76 175l173 -29q-49 -188 -179 -301t-328 -113t-300 100q-102 101 -101 249z" />
    <glyph glyph-name="fj" unicode="fj" horiz-adv-x="1155" 
d="M657 1458q51 0 107 -15t84 -44l-88 -133q-39 43 -111 43q-73 0 -107 -48t-48 -126l-31 -168h213l-23 -131h-213l-147 -836h-172l147 836h-166l23 131h166l31 168q18 100 54 162q93 161 281 161zM1047 1456q49 0 81 -31t31 -79q0 -48 -32 -80q-33 -32 -81 -33
q-48 1 -80 33t-32 80t32 79t81 31zM418 -236q63 -50 132 -50q70 -1 108 43t51 114l192 1096h172l-192 -1106q-29 -162 -115 -229q-86 -66 -220 -66t-222 69z" />
    <glyph glyph-name=".notdef" horiz-adv-x="1720" 
d="M477 231l-102 103l385 383l-385 383l102 102l383 -385l383 385l103 -102l-385 -383l385 -383l-103 -103l-383 385zM287 143h1147v1147h-1147v-1147zM143 1434h1434v-1434h-1434v1434z" />
    <glyph glyph-name=".null" horiz-adv-x="0" 
 />
    <glyph glyph-name="nonmarkingreturn" horiz-adv-x="481" 
 />
    <glyph glyph-name="space" unicode=" " horiz-adv-x="481" 
 />
    <glyph glyph-name="space" unicode="&#xa0;" horiz-adv-x="481" 
 />
    <glyph glyph-name="exclam" unicode="!" horiz-adv-x="507" 
d="M74 99q0 48 30 79q31 31 82 31t82 -31t31 -79t-31 -81q-31 -32 -82 -32t-82 32q-30 33 -30 81zM295 381h-139l161 1053h189z" />
    <glyph glyph-name="quotedbl" unicode="&#x22;" horiz-adv-x="692" 
d="M530 979l41 455h174l-118 -455h-97zM238 979l41 455h174l-119 -455h-96z" />
    <glyph glyph-name="numbersign" unicode="#" horiz-adv-x="1280" 
d="M479 571h287l106 306h-286zM721 444h-287l-155 -444h-138l156 444h-234l23 127h256l107 306h-232l23 127h256l151 430h137l-151 -430h287l151 430h137l-151 -430h241l-22 -127h-266l-107 -306h244l-23 -127h-266l-158 -444h-135z" />
    <glyph glyph-name="dollar" unicode="$" horiz-adv-x="1181" 
d="M379 1058q0 -85 50 -138t157 -95l84 473q-167 -4 -240 -93q-51 -62 -51 -147zM893 409q0 79 -52 129t-167 97l-92 -524q66 4 121 24q190 68 190 274zM1051 404q0 -183 -131 -303q-131 -119 -363 -121l-33 -195h-121l35 205q-169 28 -266 141q-96 113 -94 262l145 25
q-7 -75 29 -139q35 -64 82 -104t127 -56l98 557q-183 67 -258 147q-76 80 -77 234q-1 153 121 262t347 108l37 207h121l-39 -217q154 -29 242 -121t104 -227l-149 -39q-14 142 -123 217q-39 27 -97 39l-88 -502q82 -29 147 -62q204 -107 204 -318z" />
    <glyph glyph-name="percent" unicode="%" horiz-adv-x="1740" 
d="M1493 424q0 76 -39 125q-38 49 -102 49q-111 0 -169 -91q-57 -91 -59 -228q0 -85 39 -135t103 -50t103 26q124 81 124 304zM1334 717q306 0 306 -307q0 -70 -22 -148q-47 -164 -181 -246q-69 -41 -155 -41q-229 0 -288 183q-17 55 -17 126t22 148q49 166 181 244
q68 40 154 41zM692 1140q0 76 -39 126t-102 49q-111 1 -169 -91t-58 -204q0 -210 151 -209q53 0 93 26q124 81 124 303zM534 1434q232 0 288 -183q39 -125 -8 -281q-46 -156 -178 -237q-69 -41 -155 -41q-154 0 -228 82q-75 82 -77 221q0 76 23 154q49 167 181 245
q69 40 154 40zM262 -25l1153 1483h160l-1153 -1483h-160z" />
    <glyph glyph-name="ampersand" unicode="&#x26;" horiz-adv-x="1308" 
d="M688 1327q-74 0 -129 -54q-55 -55 -55 -147t80 -223q122 50 169 86q103 79 103 180q0 68 -47 113t-121 45zM227 380q0 -128 82 -200t204 -72t201 42q79 41 120 88l-324 499q-107 -41 -195 -135t-88 -222zM524 -25q-223 -1 -345 103t-122 280q0 313 379 500
q-88 160 -88 248q0 154 96 254q100 100 239 99t234 -75t95 -204q0 -199 -220 -323q-65 -36 -135 -66l283 -431q77 103 100 269l131 -72q-35 -123 -65 -188t-84 -129l160 -240h-187l-80 123q-71 -59 -163 -103t-228 -45z" />
    <glyph glyph-name="quotesingle" unicode="'" horiz-adv-x="399" 
d="M238 979l41 455h174l-119 -455h-96z" />
    <glyph glyph-name="parenleft" unicode="(" horiz-adv-x="677" 
d="M145 454q0 142 42 317t122 334q175 348 469 492l88 -77q-263 -161 -406 -464q-143 -302 -143 -659q1 -188 49 -366t177 -346l-109 -43q-66 61 -119 148q-170 279 -170 664z" />
    <glyph glyph-name="parenright" unicode=")" horiz-adv-x="677" 
d="M582 786q0 -142 -42 -318q-42 -175 -123 -333q-177 -346 -468 -500l-88 78q274 170 421 508q128 294 128 649q0 290 -121 518q-43 79 -105 160l109 43q68 -61 121 -147q168 -272 168 -658z" />
    <glyph glyph-name="asterisk" unicode="*" horiz-adv-x="761" 
d="M612 1425l-47 -245l234 47l18 -123l-250 -25l119 -219l-111 -55l-100 229l-172 -182l-86 90l186 166l-225 109l58 108l215 -125l49 246z" />
    <glyph glyph-name="plus" unicode="+" 
d="M154 733h432l78 434h141l-78 -434h434l-24 -141h-435l-77 -447h-142l78 447h-432z" />
    <glyph glyph-name="comma" unicode="," horiz-adv-x="532" 
d="M195 219q127 0 127 -153q0 -107 -62 -191t-190 -92l-23 82q53 0 99 33t51 96q-2 -2 -7 -2h-16q-43 0 -72 28q-28 28 -28 75q0 46 34 85t87 39z" />
    <glyph glyph-name="hyphen" unicode="-" horiz-adv-x="768" 
d="M154 657h522l-25 -137h-522z" />
    <glyph glyph-name="period" unicode="." horiz-adv-x="524" 
d="M74 102q0 51 34 84t87 33t87 -33t34 -84t-34 -84q-34 -32 -87 -32t-87 32t-34 84z" />
    <glyph glyph-name="slash" unicode="/" horiz-adv-x="806" 
d="M-106 -236l923 1780h156l-926 -1780h-153z" />
    <glyph glyph-name="zero" unicode="0" 
d="M804 255q82 111 127 291q44 180 44 348t-36 244t-82 113t-121 37t-134 -38q-116 -75 -179 -233q-64 -158 -82 -298q-17 -141 -17 -209t9 -138q9 -69 36 -125q63 -130 197 -130q133 0 238 138zM1155 908q0 -112 -14 -222q-29 -228 -124 -407q-162 -304 -456 -304
q-215 0 -317 140q-101 140 -101 385q0 362 138 626q99 189 266 265q85 39 195 39t189 -39t129 -109t72 -166t23 -208z" />
    <glyph glyph-name="one" unicode="1" 
d="M418 1268q223 29 344 141h143l-223 -1272h317l-24 -137h-840l25 137h346l190 1073q-53 -41 -116 -56t-152 -19z" />
    <glyph glyph-name="two" unicode="2" 
d="M1145 1059q0 -152 -84 -275q-84 -122 -213 -238q-211 -189 -512 -403h663l-24 -143h-891l25 135q183 143 287 228q102 87 152 127q265 217 355 358q62 98 63 207q2 109 -54 171t-145 62t-143 -31q-105 -60 -151 -182q-23 -57 -35 -110l-170 30q77 309 303 402
q81 33 181 33t174 -29q144 -56 194 -199q25 -67 25 -143z" />
    <glyph glyph-name="three" unicode="3" 
d="M555 795h43q159 0 260 81q100 81 98 207q0 100 -64 155q-64 54 -144 54q-133 0 -205 -67q-71 -67 -97 -164l-157 41q32 121 150 224q118 104 296 104q179 0 287 -99t108 -243t-82 -236t-206 -133q94 -31 147 -116t53 -182q0 -295 -278 -409q-92 -37 -209 -37t-196 31
q-155 61 -205 192q-25 62 -29 128l170 41q5 -107 44 -156q77 -98 221 -97q145 1 225 87q81 87 81 201t-72 182q-73 68 -219 67l-45 -2h-24l26 148q12 -2 23 -2z" />
    <glyph glyph-name="four" unicode="4" 
d="M754 473l137 774h-4l-623 -774h490zM1081 1405l-163 -932h223l-49 -135h-199l-59 -338h-164l59 338h-653l22 133l752 934h231z" />
    <glyph glyph-name="five" unicode="5" 
d="M895 480q0 136 -62 216t-188 80q-180 0 -272 -149l-142 26l209 752h725l-49 -143h-569l-127 -441q101 96 237 94q204 0 310 -117t104 -296q0 -209 -143 -368t-366 -159t-337 126q-93 103 -86 235l160 37q0 -114 71 -186t187 -72q147 0 242 114q96 114 96 251z" />
    <glyph glyph-name="six" unicode="6" 
d="M354 403q0 -127 70 -209t203 -83q133 0 230 104t95 281q0 124 -66 200t-199 76t-233 -100t-100 -269zM358 723q114 184 381 184q84 0 161 -34t127 -90q101 -113 99 -283q0 -215 -142 -370t-357 -155q-449 1 -449 521q0 339 137 610q104 200 279 280q92 44 200 44
q191 1 292 -101q84 -82 102 -215l-168 -24q-26 200 -219 200q-175 0 -287 -157q-111 -157 -156 -410z" />
    <glyph glyph-name="seven" unicode="7" 
d="M336 1405h907l-20 -117q-388 -397 -603 -876q-87 -195 -124 -412h-183q67 384 308 766q188 303 399 496h-733z" />
    <glyph glyph-name="eight" unicode="8" 
d="M830 194q84 83 83 207q0 124 -84 188t-222 64t-221 -85t-83 -208t78 -186t222 -63q143 0 227 83zM676 793q221 0 289 164q20 51 20 109q0 109 -72 169q-72 61 -194 61q-121 0 -195 -82t-74 -194t71 -170q71 -57 155 -57zM1157 1069q0 -130 -81 -227q-81 -98 -195 -131
q79 -27 143 -104t65 -189q2 -210 -147 -326q-149 -117 -354 -117q-206 0 -334 100q-127 100 -127 258q0 159 91 268t237 138q-80 35 -128 109t-48 168q0 184 135 299t317 115t304 -99q122 -98 122 -262z" />
    <glyph glyph-name="nine" unicode="9" 
d="M975 1001q0 126 -74 210q-74 85 -202 84q-127 -1 -226 -105q-98 -104 -96 -281q1 -123 67 -199t198 -77q132 1 232 101t101 267zM971 682q-114 -184 -382 -184q-83 0 -160 34t-127 90q-101 114 -99 283q0 213 141 368t358 157q348 0 424 -315q25 -99 25 -207
q0 -344 -137 -609q-104 -199 -279 -281q-91 -43 -199 -43q-192 0 -293 101q-84 82 -102 215l168 24q4 -31 16 -66q41 -134 217 -134q78 0 151 44q202 122 278 523z" />
    <glyph glyph-name="colon" unicode=":" horiz-adv-x="524" 
d="M207 864q0 51 34 84t87 33t87 -33t34 -84t-34 -84q-34 -32 -87 -32t-87 32t-34 84zM74 102q0 51 34 84t87 33t87 -33t34 -84t-34 -84q-34 -32 -87 -32t-87 32t-34 84z" />
    <glyph glyph-name="semicolon" unicode=";" horiz-adv-x="532" 
d="M195 219q127 0 127 -153q0 -107 -62 -191t-190 -92l-23 82q53 0 99 33t51 96q-2 -2 -7 -2h-16q-43 0 -72 28q-28 28 -28 75q0 46 34 85t87 39zM213 864q0 51 34 84t87 33t87 -33t34 -84t-34 -84q-34 -32 -87 -32t-87 32t-34 84z" />
    <glyph glyph-name="less" unicode="&#x3c;" 
d="M121 590l24 139l1092 475l-33 -182l-889 -373l758 -373l-29 -159z" />
    <glyph glyph-name="equal" unicode="=" 
d="M121 549h1007l-24 -139h-1008zM186 922h1008l-25 -140h-1007z" />
    <glyph glyph-name="greater" unicode="&#x3e;" 
d="M1169 733l-24 -139l-1092 -475l33 182l889 373l-758 373l29 159z" />
    <glyph glyph-name="question" unicode="?" horiz-adv-x="1034" 
d="M338 99q0 48 32 79t83 31t83 -31t32 -79t-32 -81q-32 -32 -83 -32t-83 32t-32 81zM1061 1103q0 -222 -275 -404q-106 -69 -156 -131t-63 -134l-10 -57h-170l12 72q27 168 169 279q46 36 126 92t117 99q72 83 73 179q0 96 -62 158t-150 62q-215 1 -306 -188
q-28 -55 -40 -114l-172 28q49 188 177 302t331 112q100 0 175 -27q224 -84 224 -328z" />
    <glyph glyph-name="at" unicode="@" horiz-adv-x="1931" 
d="M731 463q0 -105 43 -167t129 -62t166 72q79 73 107 171l22 78q39 137 -11 218t-158 81t-204 -118q-94 -118 -94 -273zM109 436q0 236 86 425q172 378 556 529q185 72 382 72q369 -1 573 -220q92 -99 137 -224t45 -253q0 -268 -148 -462t-378 -194q-100 0 -142 43t-55 110
q-57 -84 -142 -119q-154 -64 -278 -11q-174 79 -174 335q0 95 38 191q39 96 101 166q62 71 145 112t176 41t160 -39t83 -96l31 116h151l-156 -557q-4 -18 -8 -33t-4 -32q0 -103 94 -103q52 0 114 35q133 76 202 262q35 96 35 222q0 258 -163 419q-163 162 -435 162
q-172 -1 -330 -67t-278 -186q-121 -120 -191 -284t-70 -344q0 -337 199 -515q186 -170 489 -170q241 0 462 125q62 36 122 77l76 -121q-285 -210 -687 -211q-402 -2 -610 220t-208 579z" />
    <glyph glyph-name="A" unicode="A" horiz-adv-x="1286" 
d="M772 1206l-32 -64t-48 -91t-58 -111t-82 -156q-52 -98 -134 -256h473q-29 158 -45 255t-26 157t-19 110q-8 52 -16 93q-7 41 -9 63h-4zM1161 0h-176l-70 389h-569l-209 -389h-184l774 1434h164z" />
    <glyph glyph-name="B" unicode="B" horiz-adv-x="1282" 
d="M1042 1087q0 207 -251 207h-289l-84 -485h266q172 0 265 75t93 203zM987 434q0 234 -315 236h-281l-92 -531h287q214 0 318 97q83 78 83 198zM848 1434q184 0 279 -89t95 -242t-88 -244q-89 -91 -208 -120q100 -16 170 -91q70 -74 70 -190q-1 -211 -153 -335
q-152 -123 -390 -123h-525l252 1434h498z" />
    <glyph glyph-name="C" unicode="C" horiz-adv-x="1368" 
d="M141 610q0 156 49 312q101 323 368 464q134 72 328 72t327 -98q132 -98 178 -266l-166 -60q-27 123 -117 201t-234 78q-144 1 -240 -59q-197 -121 -272 -386q-36 -130 -36 -250q1 -354 222 -460q76 -37 194 -37t215 81t155 204l164 -62q-82 -168 -219 -268t-338 -101
q-273 0 -426 168q-152 167 -152 467z" />
    <glyph glyph-name="D" unicode="D" horiz-adv-x="1429" 
d="M1186 870q0 203 -106 312t-330 108h-246l-203 -1147h279q295 0 457 219q149 199 149 508zM805 1434q259 0 412 -149q153 -151 153 -417q0 -404 -212 -636t-572 -232h-488l252 1434h455z" />
    <glyph glyph-name="E" unicode="E" horiz-adv-x="1138" 
d="M98 0l252 1434h840l-25 -144h-661l-84 -479h618l-26 -143h-619l-92 -525h676l-25 -143h-854z" />
    <glyph glyph-name="F" unicode="F" horiz-adv-x="1105" 
d="M98 0l252 1434h842l-25 -144h-663l-84 -479h620l-26 -143h-621l-117 -668h-178z" />
    <glyph glyph-name="G" unicode="G" horiz-adv-x="1468" 
d="M135 614q0 150 49 305q101 321 372 466q134 73 324 73t324 -93q133 -93 182 -267l-167 -56q-29 121 -118 196t-229 75q-140 -1 -239 -59q-198 -118 -276 -388q-38 -132 -38 -256q0 -237 101 -363t301 -126q154 0 270 92q115 92 137 250l17 102h-412l25 140h588l-125 -705
h-164l26 152q-63 -78 -129 -111q-129 -64 -263 -65t-238 46q-318 141 -318 592z" />
    <glyph glyph-name="H" unicode="H" horiz-adv-x="1421" 
d="M350 1434h178l-108 -621h696l109 621h178l-252 -1434h-178l119 670h-697l-119 -670h-178z" />
    <glyph glyph-name="I" unicode="I" horiz-adv-x="546" 
d="M350 1434h178l-252 -1434h-178z" />
    <glyph glyph-name="J" unicode="J" horiz-adv-x="884" 
d="M266 119q111 0 171 90t91 264l170 961h179l-170 -961q-41 -237 -126 -353q-108 -145 -321 -145q-212 0 -315 158l129 115q44 -66 84 -98t108 -31z" />
    <glyph glyph-name="K" unicode="K" horiz-adv-x="1265" 
d="M565 735l-188 -166l-101 -569h-178l252 1434h178l-110 -635l717 635h223l-658 -584l453 -850h-201z" />
    <glyph glyph-name="L" unicode="L" horiz-adv-x="1042" 
d="M350 1434h178l-227 -1291h635l-25 -143h-813z" />
    <glyph glyph-name="M" unicode="M" horiz-adv-x="1746" 
d="M823 217q32 62 662 1217h244l-252 -1434h-162l209 1190h-4q-173 -338 -400 -737q-227 -400 -258 -453h-149q-15 68 -35 159q-154 682 -205 1031h-4l-209 -1190h-162l252 1434h225q114 -575 146 -720q31 -146 49 -238t32 -161q14 -68 21 -98z" />
    <glyph glyph-name="N" unicode="N" horiz-adv-x="1480" 
d="M1026 0l-551 1167h-4l-207 -1167h-166l252 1434h185q460 -979 552 -1168h5l204 1168h166l-252 -1434h-184z" />
    <glyph glyph-name="O" unicode="O" horiz-adv-x="1490" 
d="M326 604q0 -339 220 -448q76 -37 192 -37q116 1 215 69q193 133 261 406q33 128 33 236q0 340 -220 448q-75 37 -193 37t-216 -69q-190 -134 -260 -406q-32 -126 -32 -236zM730 -25q-284 0 -436 165q-153 165 -153 454q0 359 189 601q92 119 226 191t286 72
q424 0 550 -360q40 -116 40 -272t-48 -312t-141 -276q-92 -120 -226 -191q-135 -72 -287 -72z" />
    <glyph glyph-name="P" unicode="P" horiz-adv-x="1230" 
d="M1085 1044q0 138 -72 192q-73 54 -239 54h-270l-98 -563h270q209 0 309 89q100 90 100 228zM831 1434q205 0 320 -87t115 -282q0 -235 -154 -359t-395 -122h-338l-103 -584h-178l252 1434h481z" />
    <glyph glyph-name="Q" unicode="Q" horiz-adv-x="1490" 
d="M326 604q0 -339 220 -448q75 -37 169 -37t172 33l-125 165l115 89l133 -175q114 102 175 268q62 166 62 303q0 136 -23 224q-49 179 -197 252q-75 37 -193 37t-216 -69q-190 -134 -260 -406q-32 -126 -32 -236zM141 594q0 359 189 601q92 119 226 191t286 72
q424 0 550 -360q40 -115 40 -243q0 -234 -84 -433q-84 -198 -240 -318l119 -151l-119 -90l-127 166q-132 -54 -267 -54q-267 0 -420 165t-153 454z" />
    <glyph glyph-name="R" unicode="R" horiz-adv-x="1292" 
d="M782 1290h-280l-90 -518h311q181 0 273 93q91 93 91 210t-78 166q-79 49 -227 49zM1268 1089q0 -185 -117 -304t-297 -144l270 -641h-198l-256 631h-285l-111 -631h-176l252 1434h498q152 0 267 -70q65 -39 109 -108t44 -167z" />
    <glyph glyph-name="S" unicode="S" horiz-adv-x="1275" 
d="M1153 412q0 -190 -140 -311q-150 -126 -406 -126t-397 133q-126 117 -122 312l174 22q0 -222 182 -296q70 -28 174 -27q170 0 259 78q88 78 88 194t-70 171q-70 54 -215 93q-146 39 -220 73t-122 79q-92 88 -90 240q0 179 140 295t362 116q223 0 352 -110
q130 -110 143 -285l-178 -37q0 131 -79 210q-80 79 -236 79q-156 1 -238 -69t-82 -177t66 -157q66 -51 203 -87q136 -37 215 -71q159 -68 210 -190q27 -62 27 -152z" />
    <glyph glyph-name="T" unicode="T" horiz-adv-x="1120" 
d="M213 1434h1026l-25 -144h-423l-228 -1290h-178l227 1290h-424z" />
    <glyph glyph-name="U" unicode="U" horiz-adv-x="1390" 
d="M628 119q100 0 173 34q198 94 241 355l164 926h178l-163 -924q-49 -279 -195 -407t-406 -128q-261 0 -374 143q-114 143 -70 392l164 924h178l-164 -926q-46 -261 114 -354q60 -35 160 -35z" />
    <glyph glyph-name="V" unicode="V" horiz-adv-x="1288" 
d="M592 227q137 283 641 1207h186l-782 -1434h-164l-272 1434h180q45 -244 73 -404t46 -264q18 -102 34 -200t30 -184q13 -87 24 -155h4z" />
    <glyph glyph-name="W" unicode="W" horiz-adv-x="1861" 
d="M1180 1434q90 -970 100 -1203h4q50 122 110 256q60 135 166 373t261 574h172l-656 -1434h-176q-97 976 -104 1176h-4q-80 -191 -173 -396q-94 -204 -166 -366t-190 -414h-176l-147 1434h172q90 -932 100 -1203h4q159 381 537 1203h166z" />
    <glyph glyph-name="X" unicode="X" horiz-adv-x="1345" 
d="M465 1434l276 -539l463 539h217l-602 -689l393 -745h-200l-318 606l-524 -606h-219l661 758l-348 676h201z" />
    <glyph glyph-name="Y" unicode="Y" horiz-adv-x="1265" 
d="M567 629l-379 805h193l297 -646l528 646h203l-664 -805l-110 -629h-178z" />
    <glyph glyph-name="Z" unicode="Z" horiz-adv-x="1263" 
d="M287 1434h1046l-20 -125l-1055 -1168h840l-25 -141h-1067l21 121l1056 1169h-821z" />
    <glyph glyph-name="bracketleft" unicode="[" horiz-adv-x="624" 
d="M373 1561h379l-21 -123h-221l-285 -1616h221l-22 -123h-379z" />
    <glyph glyph-name="backslash" unicode="\" horiz-adv-x="798" 
d="M514 -236l-301 1780h139l299 -1780h-137z" />
    <glyph glyph-name="bracketright" unicode="]" horiz-adv-x="624" 
d="M-78 -301l23 123h221l285 1616h-222l21 123h379l-328 -1862h-379z" />
    <glyph glyph-name="asciicircum" unicode="^" horiz-adv-x="1095" 
d="M1034 719h-164l-178 549l-377 -549h-172l502 715h141z" />
    <glyph glyph-name="underscore" unicode="_" horiz-adv-x="970" 
d="M-88 -125h934l-21 -113h-934z" />
    <glyph glyph-name="grave" unicode="`" 
d="M553 1313l102 121l299 -258l-69 -84z" />
    <glyph glyph-name="a" unicode="a" horiz-adv-x="1024" 
d="M213 264q0 -155 188 -155q110 0 194 75t103 189l15 84q-500 0 -500 -193zM39 256q0 84 57 151q58 67 154 105q170 66 485 68l10 59q16 98 -20 160q-37 61 -151 61t-178 -56t-77 -130l-167 24q35 146 154 220q120 73 287 73q166 0 257 -93t63 -265l-90 -502q-9 -61 -5 -89
q5 -27 7 -42h-168q-15 45 0 127q-41 -59 -121 -105t-162 -46q-81 0 -138 16q-197 55 -197 264z" />
    <glyph glyph-name="b" unicode="b" horiz-adv-x="1173" 
d="M580 117q64 0 128 35t109 94q98 128 96 307q0 129 -61 213t-178 84t-209 -75t-119 -218l-20 -115q-29 -158 52 -248q69 -77 202 -77zM605 -25q-83 -1 -136 15q-155 45 -203 160l-26 -150h-162l252 1434h172l-105 -590q45 59 119 103t171 44q190 0 298 -119
q107 -119 107 -317q0 -256 -151 -420q-69 -76 -161 -118t-175 -42z" />
    <glyph glyph-name="c" unicode="c" horiz-adv-x="1024" 
d="M82 419q0 99 34 203q72 218 262 318q98 51 206 51q271 0 365 -169q28 -50 38 -107l-164 -41q-10 82 -69 130q-60 48 -150 48q-159 0 -251 -132q-93 -132 -93 -321t134 -259q46 -24 131 -24q152 1 233 173l153 -60q-137 -251 -411 -254q-104 0 -183 34q-235 102 -235 410z
" />
    <glyph glyph-name="d" unicode="d" horiz-adv-x="1175" 
d="M260 394q0 -110 62 -193q62 -84 179 -84q118 0 210 76q91 76 118 227l19 100q30 166 -43 247t-210 82q-138 1 -237 -126q-98 -128 -98 -329zM600 991q116 0 193 -46q78 -46 112 -105l103 594h172l-254 -1434h-162l24 141q-38 -66 -119 -115q-80 -49 -188 -51
q-184 0 -292 117t-107 320q0 254 148 416q148 163 370 163z" />
    <glyph glyph-name="e" unicode="e" horiz-adv-x="1064" 
d="M600 858q-121 0 -203 -79t-114 -197h546q16 128 -46 202t-183 74zM82 387q0 267 147 436q147 168 375 168t324 -136t65 -345q-2 -6 -3 -15t-3 -19t-4 -23h-725q-35 -235 110 -316q52 -29 144 -29t154 47q61 46 110 126l142 -64q-135 -240 -422 -242q-202 0 -308 112
t-106 300z" />
    <glyph glyph-name="f" unicode="f" horiz-adv-x="649" 
d="M662 1458q74 0 140 -24t93 -58l-92 -131q-46 62 -133 64q-145 0 -176 -174l-31 -168h223l-22 -131h-224l-147 -836h-172l147 836h-166l23 131h166l31 168q32 177 127 250q94 73 213 73z" />
    <glyph glyph-name="g" unicode="g" horiz-adv-x="1173" 
d="M260 416q0 -104 62 -180q62 -78 180 -78q119 0 212 70t115 210l15 84q26 162 -47 244q-74 82 -197 84q-76 0 -138 -33q-202 -108 -202 -401zM486 16q-97 0 -171 29q-233 91 -233 401q0 110 40 214q82 211 267 291q91 40 175 40q205 0 298 -108q27 -31 41 -64l27 148h162
l-160 -912q-43 -249 -165 -369t-347 -120q-313 0 -400 250l158 59q29 -80 65 -112q67 -60 162 -60q299 0 353 332l20 117q-41 -52 -118 -94t-174 -42z" />
    <glyph glyph-name="h" unicode="h" horiz-adv-x="1116" 
d="M689 991q257 0 304 -192q16 -66 0 -154l-114 -645h-172l112 639q19 103 -33 157t-144 54t-183 -92t-117 -244l-90 -514h-174l254 1434h172l-105 -600q47 68 126 112t164 45z" />
    <glyph glyph-name="i" unicode="i" horiz-adv-x="499" 
d="M393 1233q-49 1 -81 33t-31 80q0 48 31 79q32 31 81 31t81 -31t32 -79t-32 -80t-81 -33zM248 967h172l-170 -967h-172z" />
    <glyph glyph-name="j" unicode="j" horiz-adv-x="503" 
d="M395 1233q-49 1 -81 33t-31 80q0 48 31 79q32 31 81 31t81 -31t32 -79t-32 -80t-81 -33zM-233 -236q63 -50 132 -50q69 -1 107 43t51 114l193 1096h172l-193 -1106q-29 -162 -115 -229q-86 -66 -218 -66q-133 0 -224 69z" />
    <glyph glyph-name="k" unicode="k" horiz-adv-x="1021" 
d="M457 512l-135 -106l-72 -406h-172l252 1434h172l-148 -838l467 371h217l-446 -357l336 -610h-195z" />
    <glyph glyph-name="l" unicode="l" horiz-adv-x="499" 
d="M330 1434h172l-252 -1434h-172z" />
    <glyph glyph-name="m" unicode="m" horiz-adv-x="1646" 
d="M681 991q95 0 162 -44t85 -130q82 121 228 161q48 13 108 13q135 0 212 -89q78 -89 48 -257l-115 -645h-172l113 639q19 103 -27 157t-104 54q-106 0 -189 -91t-110 -245l-91 -514h-172l113 639q19 103 -27 157t-103 54q-163 0 -256 -194q-30 -62 -44 -142l-90 -514h-172
l170 967h162l-25 -148q112 172 296 172z" />
    <glyph glyph-name="n" unicode="n" horiz-adv-x="1114" 
d="M700 991q156 0 239 -88t52 -258l-114 -645h-172l112 639q19 103 -33 157t-144 54t-183 -92t-117 -244l-90 -514h-172l170 967h162l-25 -148q126 172 315 172z" />
    <glyph glyph-name="o" unicode="o" horiz-adv-x="1116" 
d="M260 422q0 -211 141 -287q47 -25 121 -25q143 1 240 138q96 137 94 305q0 207 -142 278q-48 25 -121 25t-136 -40t-108 -103q-89 -128 -89 -291zM520 -25q-212 0 -325 122t-113 332t145 386t383 176q200 0 313 -122t111 -314q0 -106 -35 -211q-74 -218 -266 -318
q-97 -50 -213 -51z" />
    <glyph glyph-name="p" unicode="p" horiz-adv-x="1173" 
d="M580 117q66 0 130 35q62 35 107 94q98 128 96 307q0 129 -61 213t-184 84q-176 0 -276 -165q-34 -56 -48 -136l-18 -105q-16 -90 -1 -151q43 -176 255 -176zM694 991q182 0 290 -117t108 -319q0 -256 -148 -418t-370 -162q-116 0 -191 45q-76 45 -111 105l-94 -535h-172
l242 1377h162l-25 -142q64 111 206 152q48 14 103 14z" />
    <glyph glyph-name="q" unicode="q" horiz-adv-x="1175" 
d="M260 394q0 -110 62 -193q62 -84 186 -84q175 0 273 165q34 56 48 136l19 102q27 159 -45 244q-72 84 -209 85t-236 -126q-98 -128 -98 -329zM568 991q266 0 339 -172l27 148h162l-242 -1377h-172l94 537q-41 -59 -117 -105t-178 -47q-184 0 -292 117t-107 320
q0 129 41 236q81 215 269 301q92 42 176 42z" />
    <glyph glyph-name="r" unicode="r" horiz-adv-x="735" 
d="M650 850q-102 0 -194 -93t-114 -235l-92 -522h-172l170 967h162l-27 -152q41 84 125 130t171 46t128 -24l-68 -154q-33 37 -89 37z" />
    <glyph glyph-name="s" unicode="s" horiz-adv-x="935" 
d="M817 285q0 -139 -107 -225q-108 -85 -294 -85q-256 0 -343 160q-32 59 -34 150l162 24q1 -105 61 -153q60 -47 162 -47t162 44q59 44 59 109t-43 96t-180 65q-137 35 -211 101t-74 174q0 137 108 215t272 78q163 -1 260 -71t102 -205l-158 -39q-8 184 -207 184
q-90 0 -147 -38t-57 -104t54 -102q56 -36 156 -59q100 -24 153 -50q103 -50 131 -133q13 -40 13 -89z" />
    <glyph glyph-name="t" unicode="t" horiz-adv-x="681" 
d="M408 119q60 0 108 33l29 -144q-67 -31 -152 -32q-145 -2 -198 71t-35 180l106 609h-164l23 131h164l49 278l186 76l-63 -354h225l-22 -131h-226l-106 -607q-18 -111 76 -110z" />
    <glyph glyph-name="u" unicode="u" horiz-adv-x="1118" 
d="M297 328q-19 -106 34 -158q54 -53 147 -53t182 92q90 92 116 244l90 514h172l-170 -967h-161l24 147q-124 -170 -315 -172q-154 0 -239 88t-54 259l115 645h172z" />
    <glyph glyph-name="v" unicode="v" horiz-adv-x="978" 
d="M440 180q43 108 420 787h172l-543 -967h-161l-211 967h174q131 -637 145 -787h4z" />
    <glyph glyph-name="w" unicode="w" horiz-adv-x="1482" 
d="M379 182h4q14 35 48 107t74 160t83 179t79 167t58 123l25 49h157q25 -182 45 -342l17 -136q8 -68 15 -127t12 -105t8 -71h4q23 59 67 154l137 297q72 154 158 330h164l-481 -967h-166q-25 182 -45 336l-17 131q-8 66 -20 162t-12 123q-148 -307 -230 -482
q-82 -176 -106 -223l-23 -47h-166l-151 967h172q25 -180 45 -338l16 -135q29 -247 29 -312z" />
    <glyph glyph-name="x" unicode="x" horiz-adv-x="960" 
d="M463 373l-316 -373h-198l440 506l-235 461h184l168 -336l285 336h190l-406 -469l261 -498h-183z" />
    <glyph glyph-name="y" unicode="y" horiz-adv-x="983" 
d="M287 967q53 -251 155 -760h4q33 82 416 760h174l-671 -1200q-66 -119 -135 -162t-137 -43q-124 0 -181 39l76 135q46 -29 84 -29q91 0 161 131l95 178l-211 951h170z" />
    <glyph glyph-name="z" unicode="z" horiz-adv-x="907" 
d="M182 967h727l-18 -105l-653 -731h518l-23 -131h-737l20 111l648 725h-504z" />
    <glyph glyph-name="braceleft" unicode="{" horiz-adv-x="679" 
d="M510 989q-29 -167 -101 -261q-61 -76 -169 -97q152 -31 157 -199q2 -61 -12 -149l-20 -117q-30 -181 -15 -241q16 -60 54 -95t116 -43l-18 -111q-335 16 -308 355q7 100 27 215l6 35q10 61 15 111q13 161 -144 188l21 120q163 21 209 183q14 49 24 108l6 35
q20 119 44 221t72 178t132 121t230 49l-21 -116q-201 -10 -256 -236q-16 -66 -29 -137z" />
    <glyph glyph-name="bar" unicode="|" horiz-adv-x="538" 
d="M395 1632h150l-348 -1978h-150z" />
    <glyph glyph-name="braceright" unicode="}" horiz-adv-x="679" 
d="M369 1106q12 74 20 138t-4 114q-26 107 -174 121l20 116q247 -15 296 -179q24 -77 15 -177t-30 -213l-6 -35q-24 -142 -9 -193q15 -52 47 -78t91 -36l-23 -121q-160 -26 -205 -176q-15 -47 -26 -106l-6 -35q-23 -124 -47 -230t-72 -184q-105 -167 -358 -156l18 111
q209 20 259 242q15 66 28 137l20 117q31 176 96 254q66 78 175 94q-97 20 -137 101q-39 87 -9 257z" />
    <glyph glyph-name="asciitilde" unicode="~" horiz-adv-x="1218" 
d="M821 481q-78 0 -129 22q-51 21 -92 47t-80 48t-88 20q-114 0 -186 -122l-115 79q61 101 179 156q60 29 138 29t129 -22q50 -22 92 -48t81 -46q39 -22 88 -21q114 0 186 122l115 -79q-63 -101 -181 -156q-59 -29 -137 -29z" />
    <glyph glyph-name="Zcaron" horiz-adv-x="1263" 
d="M881 1540h-119l-187 244l95 71l161 -198l246 201l82 -84zM287 1434h1046l-20 -125l-1055 -1168h840l-25 -141h-1067l21 121l1056 1169h-821z" />
    <glyph glyph-name="Zcaron" unicode="&#x17d;" horiz-adv-x="1263" 
d="M881 1540h-119l-187 244l95 71l161 -198l246 201l82 -84zM287 1434h1046l-20 -125l-1055 -1168h840l-25 -141h-1067l21 121l1056 1169h-821z" />
    <glyph glyph-name="zcaron" horiz-adv-x="907" 
d="M616 1094h-114l-185 268l93 70l159 -218l244 220l80 -82zM182 967h727l-18 -105l-653 -731h518l-23 -131h-737l20 111l648 725h-504z" />
    <glyph glyph-name="zcaron" unicode="&#x17e;" horiz-adv-x="907" 
d="M616 1094h-114l-185 268l93 70l159 -218l244 220l80 -82zM182 967h727l-18 -105l-653 -731h518l-23 -131h-737l20 111l648 725h-504z" />
    <glyph glyph-name="exclamdown" unicode="&#xa1;" horiz-adv-x="487" 
d="M422 925q0 -48 -31 -79t-82 -31t-82 31t-31 79t31 81q31 32 82 32t82 -32t31 -81zM201 643h139l-162 -1053h-188z" />
    <glyph glyph-name="cent" unicode="&#xa2;" horiz-adv-x="1015" 
d="M354 905q-65 -117 -65 -250q1 -133 27 -187q50 -102 133 -124l129 731q-145 -26 -224 -170zM121 640q0 89 31 189q31 101 90 183q131 183 360 198l37 205h125l-37 -211q123 -20 201 -92t100 -180l-162 -33q-8 66 -49 113t-115 63l-129 -739q82 12 130 61t81 115l150 -57
q-52 -100 -146 -173t-239 -81l-35 -201h-125l37 209q-78 14 -134 53q-171 119 -171 378z" />
    <glyph glyph-name="sterling" unicode="&#xa3;" horiz-adv-x="1120" 
d="M965 1116q-53 178 -195 178q-131 0 -195 -76t-83 -188l-43 -242h352l-23 -131h-354l-53 -305q-29 -177 -119 -213l2 -4q30 10 102 10q99 0 187 -16q87 -16 153 -16q66 -1 112 33t87 118l147 -51q-76 -174 -229 -220q-103 -31 -213 -12q-35 5 -73 11t-87 11t-177 5
t-222 -33l-16 131q85 42 120 100q35 59 52 144l55 307h-121l23 131h120l43 240q44 272 253 367q77 35 206 35t220 -73t124 -190z" />
    <glyph glyph-name="currency" unicode="&#xa4;" horiz-adv-x="1241" 
d="M993 750q0 135 -87 219t-223 84t-247 -111t-109 -249q1 -138 86 -223t214 -85q72 0 138 30q135 59 197 199q30 68 31 136zM174 678q0 193 133 342l-123 135l119 105l119 -146q138 86 291 85t276 -99l158 147l104 -117l-168 -137q63 -98 64 -231q0 -195 -133 -342
l123 -133l-117 -103l-119 142q-133 -86 -293 -86t-280 100l-156 -143l-98 112l162 135q-62 105 -62 234z" />
    <glyph glyph-name="yen" unicode="&#xa5;" horiz-adv-x="1236" 
d="M700 463l-82 -463h-174l82 463h-348l21 117h348l6 34l-47 101h-283l21 116h207l-269 574h187l288 -637l521 637h200l-473 -574h211l-20 -116h-287l-82 -101l-6 -34h350l-20 -117h-351z" />
    <glyph glyph-name="brokenbar" unicode="&#xa6;" horiz-adv-x="538" 
d="M395 1632h150l-139 -788h-150zM186 442h150l-139 -788h-150z" />
    <glyph glyph-name="section" unicode="&#xa7;" horiz-adv-x="1040" 
d="M308 716q-50 -54 -50 -133t56 -128t190 -117q30 -16 56 -30t50 -32q88 18 138 72t51 133q0 80 -57 130t-152 97q-96 48 -144 78q-88 -16 -138 -70zM818 1274q-56 58 -171 57q-115 0 -174 -63t-59 -155q0 -93 56 -151t156 -106q194 -93 248 -146t72 -102t19 -116
q0 -113 -67 -183t-189 -112q98 -102 98 -248t-113 -245q-113 -100 -284 -98q-170 1 -273 82q-102 81 -112 210l149 39q8 -87 64 -145t172 -58q115 0 174 63t59 155q0 93 -56 151q-55 57 -155 105t-162 84q-126 74 -159 165q-19 48 -19 116q0 113 67 183t187 112
q-98 106 -97 250q1 143 114 243t284 98q171 -1 273 -82t112 -210l-149 -39q-9 88 -65 146z" />
    <glyph glyph-name="dieresis" unicode="&#xa8;" 
d="M834 1234q0 46 30 76q31 30 78 30t78 -30t31 -76t-31 -78t-78 -32t-78 32q-30 32 -30 78zM440 1234q0 46 31 76t78 30t78 -30t31 -76t-32 -78q-30 -32 -77 -32t-78 32t-31 78z" />
    <glyph glyph-name="copyright" unicode="&#xa9;" horiz-adv-x="1679" 
d="M879 -25q-154 -1 -290 55q-279 114 -395 389q-58 136 -58 299t58 298q118 274 395 387q136 55 290 55q153 0 289 -55q275 -112 396 -387q58 -135 58 -298q0 -321 -217 -534q-100 -98 -236 -154t-290 -55zM879 88q257 0 437 178q181 178 181 452q0 273 -182 450
q-84 83 -197 130q-114 48 -240 48t-239 -48q-231 -97 -330 -327q-49 -115 -49 -253t49 -254t133 -199t197 -130t240 -47zM496 719q0 188 110 304t285 116q225 0 326 -207l-117 -45q-25 61 -76 102t-133 41q-115 0 -187 -84t-71 -226t71 -227t185 -85q82 0 134 41t77 104
l117 -45q-96 -209 -326 -209q-175 0 -285 116t-110 304z" />
    <glyph glyph-name="ordfeminine" unicode="&#xaa;" horiz-adv-x="856" 
d="M299 868q0 -59 45 -90q46 -30 95 -30q136 0 207 122q22 37 30 82l10 64q-387 0 -387 -148zM647 762q-89 -119 -244 -119q-156 0 -222 117q-22 39 -21 94q0 258 545 258l8 47q26 172 -133 172q-86 0 -136 -43t-59 -102l-131 18q41 166 227 215q53 14 109 15q137 0 210 -70
t50 -193l-74 -407q-8 -41 -5 -58t7 -40h-131q-12 29 0 96z" />
    <glyph glyph-name="guillemotleft" unicode="&#xab;" horiz-adv-x="1001" 
d="M477 535l420 423l94 -88l-327 -350l202 -354l-110 -76zM78 535l420 423l94 -88l-328 -350l203 -354l-111 -76z" />
    <glyph glyph-name="logicalnot" unicode="&#xac;" 
d="M156 743h1007l-88 -499h-147l63 358h-860z" />
    <glyph glyph-name="uni00AD" unicode="&#xad;" horiz-adv-x="768" 
d="M154 657h522l-25 -137h-522z" />
    <glyph glyph-name="registered" unicode="&#xae;" horiz-adv-x="1679" 
d="M879 -25q-154 -1 -290 55q-279 114 -395 389q-58 136 -58 299t58 298q118 274 395 387q136 55 290 55q153 0 289 -55q275 -112 396 -387q58 -135 58 -298q0 -321 -217 -534q-100 -98 -236 -154t-290 -55zM879 88q257 0 437 178q181 178 181 452q0 273 -182 450
q-84 83 -197 130q-114 48 -240 48t-239 -48q-231 -97 -330 -327q-49 -115 -49 -253t49 -254t133 -199t197 -130t240 -47zM1063 891q0 123 -158 123h-164v-250h179q78 0 110 37t33 90zM1194 887q0 -81 -44 -141t-120 -82l195 -340h-150l-182 331h-152v-331h-125v796h308
q176 0 242 -106q28 -44 28 -127z" />
    <glyph glyph-name="macron" unicode="&#xaf;" 
d="M485 1270h531l-21 -121h-530z" />
    <glyph glyph-name="degree" unicode="&#xb0;" horiz-adv-x="774" 
d="M514 1341q-80 0 -132 -60t-52 -141t43 -130t123 -49t132 60t52 141t-43 130t-123 49zM735 1377q80 -81 80 -215t-96 -227t-230 -92t-214 81t-80 215q0 134 96 228q96 93 230 92t214 -82z" />
    <glyph glyph-name="plusminus" unicode="&#xb1;" 
d="M49 139h1008l-25 -139h-1007zM174 852h432l72 405h141l-71 -405h434l-25 -141h-434l-74 -418h-141l74 418h-432z" />
    <glyph glyph-name="twosuperior" unicode="&#xb2;" horiz-adv-x="751" 
d="M631 1220q0 118 -111 115q-76 0 -112 -49t-48 -106l-137 24q27 104 102 175t201 71t190 -65q62 -65 62 -149q0 -138 -156 -264q-111 -90 -274 -192h354l-20 -116h-547l19 108q91 69 168 124q78 54 140 100q170 126 169 224z" />
    <glyph glyph-name="threesuperior" unicode="&#xb3;" horiz-adv-x="733" 
d="M418 1116h26q82 0 125 37t43 87t-31 74q-32 24 -81 24t-87 -34q-38 -32 -48 -79l-127 35q23 75 93 133q70 57 180 57q111 0 179 -56t68 -138t-47 -130q-47 -49 -117 -69q57 -17 88 -63t31 -98q0 -102 -78 -174q-78 -71 -212 -72q-135 -1 -202 58t-74 144l138 37
q10 -127 133 -127q80 0 114 42t35 91q0 49 -37 79t-106 30l-25 -3h-12l21 117q4 -2 10 -2z" />
    <glyph glyph-name="acute" unicode="&#xb4;" 
d="M963 1305l-394 -213l-45 96l375 248z" />
    <glyph glyph-name="mu" unicode="&#xb5;" horiz-adv-x="1128" 
d="M307 328q-19 -106 34 -158q54 -53 146 -53t182 91t117 245l91 514h172l-170 -967h-162l24 147q-124 -170 -315 -172q-102 0 -174 45l-76 -426h-172l244 1373h172z" />
    <glyph glyph-name="mu" unicode="&#x3bc;" horiz-adv-x="1128" 
d="M307 328q-19 -106 34 -158q54 -53 146 -53t182 91t117 245l91 514h172l-170 -967h-162l24 147q-124 -170 -315 -172q-102 0 -174 45l-76 -426h-172l244 1373h172z" />
    <glyph glyph-name="paragraph" unicode="&#xb6;" 
d="M178 1000q0 84 41 167q82 165 263 234q87 33 180 33h690l-23 -125h-149l-281 -1592h-143l280 1592h-274l-281 -1592h-143l160 908q-72 2 -130 32q-190 101 -190 343z" />
    <glyph glyph-name="periodcentered" unicode="&#xb7;" horiz-adv-x="512" 
d="M160 589q0 48 31 80q32 31 83 31t83 -32t32 -79q0 -48 -32 -80t-83 -32t-83 32q-31 32 -31 80z" />
    <glyph glyph-name="cedilla" unicode="&#xb8;" 
d="M463 -190q-36 0 -82 -27l-45 55l94 162h96l-65 -117q22 17 69 17t87 -42t40 -125t-63 -136t-142 -53q-122 -1 -176 59l64 78q39 -39 92 -39t80 26t27 70q0 72 -76 72z" />
    <glyph glyph-name="onesuperior" unicode="&#xb9;" horiz-adv-x="520" 
d="M188 1354q144 18 218 80h126l-135 -770h-145l108 616q-59 -41 -165 -43z" />
    <glyph glyph-name="ordmasculine" unicode="&#xba;" horiz-adv-x="907" 
d="M330 958q0 -80 45 -144t127 -64q144 0 219 104q74 104 76 252q0 92 -45 157t-144 64q-68 0 -120 -31q-158 -95 -158 -338zM936 1104q0 -204 -120 -333q-120 -128 -287 -128t-253 88t-86 242q0 203 121 332t288 129t252 -88t85 -242z" />
    <glyph glyph-name="guillemotright" unicode="&#xbb;" horiz-adv-x="1005" 
d="M942 514l-420 -424l-94 88l328 350l-203 355l111 75zM541 514l-420 -424l-94 88l327 350l-202 355l110 75z" />
    <glyph glyph-name="onequarter" unicode="&#xbc;" horiz-adv-x="1490" 
d="M188 1354q144 18 218 80h126l-135 -770h-145l108 616q-59 -41 -165 -43zM82 -25l1153 1483h160l-1153 -1483h-160zM1151 276l61 353h-2l-297 -353h238zM778 276l414 490h182l-86 -490h129l-41 -110h-108l-29 -166h-137l28 166h-370z" />
    <glyph glyph-name="onehalf" unicode="&#xbd;" horiz-adv-x="1572" 
d="M188 1354q144 18 218 80h126l-135 -770h-145l108 616q-59 -41 -165 -43zM82 -25l1153 1483h160l-1153 -1483h-160zM1335 556q0 116 -110 116q-76 0 -113 -49t-47 -107l-137 25q27 104 101 175q75 70 202 70t189 -64t62 -149t-45 -149q-46 -64 -131 -132t-253 -175h354
l-21 -117h-546l18 109q51 39 105 75q43 33 92 68t111 81q168 125 169 223z" />
    <glyph glyph-name="threequarters" unicode="&#xbe;" horiz-adv-x="1671" 
d="M262 -25l1153 1483h160l-1153 -1483h-160zM418 1116h26q82 0 125 37t43 87t-31 74q-32 24 -81 24t-87 -34q-38 -32 -48 -79l-127 35q23 75 93 133q70 57 180 57q111 0 179 -56t68 -138t-47 -130q-47 -49 -117 -69q57 -17 88 -63t31 -98q0 -102 -78 -174q-78 -71 -212 -72
q-135 -1 -202 58t-74 144l138 37q10 -127 133 -127q80 0 114 42t35 91q0 49 -37 79t-106 30l-25 -3h-12l21 117q4 -2 10 -2zM1331 276l62 353h-2l-297 -353h237zM958 276l414 490h182l-86 -490h129l-41 -110h-108l-29 -166h-137l29 166h-371z" />
    <glyph glyph-name="questiondown" unicode="&#xbf;" horiz-adv-x="1011" 
d="M702 925q0 -48 -32 -79t-82 -31q-51 0 -83 31t-32 79t32 81q32 32 83 32t83 -32q31 -33 31 -81zM156 -74q0 -96 62 -158t150 -62q213 -1 307 188q28 55 40 114l172 -28q-49 -188 -177 -302t-326 -112q-198 0 -302 100t-103 248q2 230 275 411q106 69 156 131t63 134
l10 57h170l-12 -72q-25 -164 -169 -280q-46 -37 -94 -71t-86 -62q-136 -102 -136 -236z" />
    <glyph glyph-name="Agrave" unicode="&#xc0;" horiz-adv-x="1286" 
d="M616 1755l103 121l299 -258l-70 -84zM772 1206l-32 -64t-48 -91t-58 -111t-82 -156q-52 -98 -134 -256h473q-29 158 -45 255t-26 157t-19 110q-8 52 -16 93q-7 41 -9 63h-4zM1161 0h-176l-70 389h-569l-209 -389h-184l774 1434h164z" />
    <glyph glyph-name="Aacute" unicode="&#xc1;" horiz-adv-x="1286" 
d="M1087 1745l-393 -213l-45 96l375 248zM772 1206l-32 -64t-48 -91t-58 -111t-82 -156q-52 -98 -134 -256h473q-29 158 -45 255t-26 157t-19 110q-8 52 -16 93q-7 41 -9 63h-4zM1161 0h-176l-70 389h-569l-209 -389h-184l774 1434h164z" />
    <glyph glyph-name="Acircumflex" unicode="&#xc2;" horiz-adv-x="1286" 
d="M809 1843h119l186 -244l-94 -71l-162 198l-246 -200l-82 84zM772 1206l-32 -64t-48 -91t-58 -111t-82 -156q-52 -98 -134 -256h473q-29 158 -45 255t-26 157t-19 110q-8 52 -16 93q-7 41 -9 63h-4zM1161 0h-176l-70 389h-569l-209 -389h-184l774 1434h164z" />
    <glyph glyph-name="Atilde" unicode="&#xc3;" horiz-adv-x="1286" 
d="M692 1673q-82 0 -137 -92l-82 82q45 68 109 98q64 31 132 31t143 -52q29 -20 57 -36t63 -16q83 0 135 94l82 -82q-45 -73 -129 -110q-43 -19 -109 -19t-146 51q-30 18 -56 34t-62 17zM772 1206l-32 -64t-48 -91t-58 -111t-82 -156q-52 -98 -134 -256h473q-29 158 -45 255
t-26 157t-19 110q-8 52 -16 93q-7 41 -9 63h-4zM1161 0h-176l-70 389h-569l-209 -389h-184l774 1434h164z" />
    <glyph glyph-name="Adieresis" unicode="&#xc4;" horiz-adv-x="1286" 
d="M1038 1571q-48 -1 -78 31t-30 78t31 76t77 30t78 -30q31 -30 31 -76t-31 -78t-78 -31zM645 1571q-47 -1 -77 31t-31 78q0 46 30 76q31 30 78 30t78 -30t31 -76t-31 -78t-78 -31zM772 1206l-32 -64t-48 -91t-58 -111t-82 -156q-52 -98 -134 -256h473q-29 158 -45 255
t-26 157t-19 110q-8 52 -16 93q-7 41 -9 63h-4zM1161 0h-176l-70 389h-569l-209 -389h-184l774 1434h164z" />
    <glyph glyph-name="Aring" unicode="&#xc5;" horiz-adv-x="1286" 
d="M649 1702q1 82 59 139t149 57t141 -48t50 -130t-58 -141q-60 -59 -150 -59t-141 50q-50 50 -50 132zM748 1706q0 -43 26 -72q26 -28 69 -28q44 0 76 34q31 34 31 76q0 43 -24 70q-25 26 -70 26t-77 -31q-31 -32 -31 -75zM772 1206l-32 -64t-48 -91t-58 -111t-82 -156
q-52 -98 -134 -256h473q-29 158 -45 255t-26 157t-19 110q-8 52 -16 93q-7 41 -9 63h-4zM1161 0h-176l-70 389h-569l-209 -389h-184l774 1434h164z" />
    <glyph glyph-name="AE" unicode="&#xc6;" horiz-adv-x="1900" 
d="M539 528h415l127 725h-8zM860 0l68 389h-494l-291 -389h-198l1075 1434h932l-25 -144h-661l-84 -479h618l-26 -143h-619l-92 -525h676l-25 -143h-854z" />
    <glyph glyph-name="Ccedilla" unicode="&#xc7;" horiz-adv-x="1368" 
d="M678 -100q47 0 87 -42t40 -125q1 -83 -63 -136t-142 -53q-125 -1 -176 59l63 78q39 -39 93 -39t80 26t26 70q0 72 -76 72q-36 0 -82 -27l-45 55l88 152q-205 44 -317 202t-113 406q0 168 49 324q101 323 368 464q134 72 328 72t327 -98q132 -98 178 -266l-166 -60
q-27 123 -117 201t-234 78q-144 1 -240 -59q-197 -121 -272 -386q-36 -130 -36 -250q1 -354 222 -460q76 -37 194 -37t215 81t155 204l164 -62q-82 -168 -219 -268t-338 -101l-57 2l-54 -94q23 17 70 17z" />
    <glyph glyph-name="Egrave" unicode="&#xc8;" horiz-adv-x="1138" 
d="M584 1755l102 121l299 -258l-70 -84zM98 0l252 1434h840l-25 -144h-661l-84 -479h618l-26 -143h-619l-92 -525h676l-25 -143h-854z" />
    <glyph glyph-name="Eacute" unicode="&#xc9;" horiz-adv-x="1138" 
d="M1049 1745l-394 -213l-45 96l375 248zM98 0l252 1434h840l-25 -144h-661l-84 -479h618l-26 -143h-619l-92 -525h676l-25 -143h-854z" />
    <glyph glyph-name="Ecircumflex" unicode="&#xca;" horiz-adv-x="1138" 
d="M768 1843h119l186 -244l-94 -71l-162 198l-246 -200l-82 84zM98 0l252 1434h840l-25 -144h-661l-84 -479h618l-26 -143h-619l-92 -525h676l-25 -143h-854z" />
    <glyph glyph-name="Edieresis" unicode="&#xcb;" horiz-adv-x="1138" 
d="M977 1571q-47 -1 -78 31t-31 78t31 76t78 30t78 -30t31 -76t-32 -78q-30 -32 -77 -31zM584 1571q-47 -1 -78 31t-31 78t31 76t78 30t78 -30q30 -30 30 -76t-30 -78t-78 -31zM98 0l252 1434h840l-25 -144h-661l-84 -479h618l-26 -143h-619l-92 -525h676l-25 -143h-854z
" />
    <glyph glyph-name="Igrave" unicode="&#xcc;" horiz-adv-x="546" 
d="M279 1755l102 121l299 -258l-70 -84zM350 1434h178l-252 -1434h-178z" />
    <glyph glyph-name="Iacute" unicode="&#xcd;" horiz-adv-x="546" 
d="M684 1745l-393 -213l-45 96l375 248zM350 1434h178l-252 -1434h-178z" />
    <glyph glyph-name="Icircumflex" unicode="&#xce;" horiz-adv-x="546" 
d="M449 1843h118l187 -244l-95 -71l-161 198l-246 -200l-82 84zM350 1434h178l-252 -1434h-178z" />
    <glyph glyph-name="Idieresis" unicode="&#xcf;" horiz-adv-x="546" 
d="M350 1434h178l-252 -1434h-178zM672 1571q-47 -1 -78 31t-31 78t31 76t78 30t78 -30q30 -30 30 -76t-30 -78t-78 -31zM279 1786q47 0 77 -30t31 -76q0 -46 -31 -78q-32 -32 -78 -31q-46 -1 -77 31t-31 78t31 76t78 30z" />
    <glyph glyph-name="Eth" unicode="&#xd0;" horiz-adv-x="1468" 
d="M1225 870q-1 203 -107 312t-330 108h-245l-86 -477h389l-23 -129h-389l-94 -541h278q296 0 458 219q149 199 149 508zM844 1434q260 0 412 -150q153 -150 153 -416q0 -404 -212 -636t-572 -232h-488l119 684h-180l22 129h181l110 621h455z" />
    <glyph glyph-name="Ntilde" unicode="&#xd1;" horiz-adv-x="1480" 
d="M786 1673q-82 0 -137 -92l-82 82q44 66 129 109q44 20 112 20t143 -52q30 -20 58 -36t62 -16q83 0 135 94l82 -82q-45 -73 -129 -110q-43 -19 -109 -19t-146 51q-30 18 -56 34t-62 17zM1026 0l-551 1167h-4l-207 -1167h-166l252 1434h185q460 -979 552 -1168h5l204 1168
h166l-252 -1434h-184z" />
    <glyph glyph-name="Ograve" unicode="&#xd2;" horiz-adv-x="1476" 
d="M737 1755l103 121l299 -258l-70 -84zM319 604q0 -338 221 -448q76 -37 192 -37q116 1 215 69q193 133 261 406q33 128 33 236q0 340 -220 448q-75 37 -193 37t-216 -69t-162 -174t-98 -232q-33 -126 -33 -236zM724 -25q-284 0 -436 165q-153 165 -153 454q0 359 189 601
q92 119 226 191t286 72t256 -43q214 -87 293 -317q40 -116 40 -272t-48 -312t-140 -276t-226 -191q-135 -72 -287 -72z" />
    <glyph glyph-name="Oacute" unicode="&#xd3;" horiz-adv-x="1476" 
d="M1145 1745l-393 -213l-45 96l374 248zM319 604q0 -338 221 -448q76 -37 192 -37q116 1 215 69q193 133 261 406q33 128 33 236q0 340 -220 448q-75 37 -193 37t-216 -69t-162 -174t-98 -232q-33 -126 -33 -236zM724 -25q-284 0 -436 165q-153 165 -153 454q0 359 189 601
q92 119 226 191t286 72t256 -43q214 -87 293 -317q40 -116 40 -272t-48 -312t-140 -276t-226 -191q-135 -72 -287 -72z" />
    <glyph glyph-name="Ocircumflex" unicode="&#xd4;" horiz-adv-x="1476" 
d="M879 1843h118l187 -244l-94 -71l-162 198l-246 -200l-82 84zM319 604q0 -338 221 -448q76 -37 192 -37q116 1 215 69q193 133 261 406q33 128 33 236q0 340 -220 448q-75 37 -193 37t-216 -69t-162 -174t-98 -232q-33 -126 -33 -236zM724 -25q-284 0 -436 165
q-153 165 -153 454q0 359 189 601q92 119 226 191t286 72t256 -43q214 -87 293 -317q40 -116 40 -272t-48 -312t-140 -276t-226 -191q-135 -72 -287 -72z" />
    <glyph glyph-name="Otilde" unicode="&#xd5;" horiz-adv-x="1476" 
d="M780 1673q-82 0 -137 -92l-82 82q45 68 109 98q64 31 132 31t143 -52q29 -20 57 -36t63 -16q83 0 135 94l82 -82q-45 -73 -129 -110q-43 -19 -109 -19t-146 51q-30 18 -56 34t-62 17zM319 604q0 -338 221 -448q76 -37 192 -37q116 1 215 69q193 133 261 406
q33 128 33 236q0 340 -220 448q-75 37 -193 37t-216 -69t-162 -174t-98 -232q-33 -126 -33 -236zM724 -25q-284 0 -436 165q-153 165 -153 454q0 359 189 601q92 119 226 191t286 72t256 -43q214 -87 293 -317q40 -116 40 -272t-48 -312t-140 -276t-226 -191
q-135 -72 -287 -72z" />
    <glyph glyph-name="Odieresis" unicode="&#xd6;" horiz-adv-x="1476" 
d="M1124 1571q-48 -1 -78 31t-30 78t31 76t77 30t78 -30q31 -30 31 -76t-31 -78t-78 -31zM731 1571q-47 -1 -77 31t-31 78q0 46 30 76q31 30 78 30t78 -30t31 -76t-31 -78t-78 -31zM319 604q0 -338 221 -448q76 -37 192 -37q116 1 215 69q193 133 261 406q33 128 33 236
q0 340 -220 448q-75 37 -193 37t-216 -69t-162 -174t-98 -232q-33 -126 -33 -236zM724 -25q-284 0 -436 165q-153 165 -153 454q0 359 189 601q92 119 226 191t286 72t256 -43q214 -87 293 -317q40 -116 40 -272t-48 -312t-140 -276t-226 -191q-135 -72 -287 -72z" />
    <glyph glyph-name="multiply" unicode="&#xd7;" 
d="M922 213l-287 348l-408 -348l-90 111l410 346l-283 342l117 98l278 -342l400 340l90 -111l-397 -340l286 -346z" />
    <glyph glyph-name="Oslash" unicode="&#xd8;" horiz-adv-x="1480" 
d="M1245 858q0 136 -55 252l-725 -903q103 -90 245 -89q142 2 241 70q193 133 261 406q33 128 33 264zM324 572q0 -140 59 -259l727 908q-98 94 -247 94q-261 0 -409 -243q-130 -210 -130 -500zM880 1458q192 0 332 -108l154 190l102 -82l-161 -203q123 -160 123 -415
q0 -357 -189 -601q-203 -264 -551 -264q-190 0 -328 103l-159 -199l-103 82l168 209q-129 160 -129 424q0 359 189 601q202 263 552 263z" />
    <glyph glyph-name="Ugrave" unicode="&#xd9;" horiz-adv-x="1390" 
d="M664 1755l102 121l299 -258l-70 -84zM628 119q100 0 173 34q198 94 241 355l164 926h178l-163 -924q-49 -279 -195 -407t-406 -128q-261 0 -374 143q-114 143 -70 392l164 924h178l-164 -926q-46 -261 114 -354q60 -35 160 -35z" />
    <glyph glyph-name="Uacute" unicode="&#xda;" horiz-adv-x="1390" 
d="M1137 1745l-394 -213l-45 96l375 248zM628 119q100 0 173 34q198 94 241 355l164 926h178l-163 -924q-49 -279 -195 -407t-406 -128q-261 0 -374 143q-114 143 -70 392l164 924h178l-164 -926q-46 -261 114 -354q60 -35 160 -35z" />
    <glyph glyph-name="Ucircumflex" unicode="&#xdb;" horiz-adv-x="1390" 
d="M854 1843h119l186 -244l-94 -71l-162 198l-246 -200l-82 84zM628 119q100 0 173 34q198 94 241 355l164 926h178l-163 -924q-49 -279 -195 -407t-406 -128q-261 0 -374 143q-114 143 -70 392l164 924h178l-164 -926q-46 -261 114 -354q60 -35 160 -35z" />
    <glyph glyph-name="Udieresis" unicode="&#xdc;" horiz-adv-x="1390" 
d="M1085 1571q-47 -1 -77 31t-31 78q0 46 31 76q32 30 78 30t77 -30t31 -76t-31 -78t-78 -31zM692 1571q-48 -1 -78 31t-30 78t30 76q31 30 78 30t78 -30t31 -76t-31 -78t-78 -31zM628 119q100 0 173 34q198 94 241 355l164 926h178l-163 -924q-49 -279 -195 -407t-406 -128
q-261 0 -374 143q-114 143 -70 392l164 924h178l-164 -926q-46 -261 114 -354q60 -35 160 -35z" />
    <glyph glyph-name="Yacute" unicode="&#xdd;" horiz-adv-x="1265" 
d="M1075 1745l-393 -213l-45 96l375 248zM567 629l-379 805h193l297 -646l528 646h203l-664 -805l-110 -629h-178z" />
    <glyph glyph-name="Thorn" unicode="&#xde;" horiz-adv-x="1230" 
d="M1038 782q0 138 -72 192q-73 54 -237 54h-270l-99 -563h271q207 0 307 89q100 90 100 228zM786 1171q205 0 320 -87t115 -281q0 -235 -154 -359t-395 -122h-338l-58 -322h-178l252 1434h178l-45 -263h303z" />
    <glyph glyph-name="germandbls" unicode="&#xdf;" horiz-adv-x="1142" 
d="M592 821h18q136 0 224 88q79 83 79 198t-57 165q-58 50 -162 49q-104 0 -173 -87t-93 -228l-178 -1006h-172l176 997q59 329 278 427q76 34 172 34t168 -26q139 -52 190 -180q24 -60 23 -128q-1 -143 -75 -236t-191 -134q97 -27 157 -116q60 -90 60 -198
q0 -210 -128 -337q-128 -128 -345 -128q-102 0 -192 35l24 144q53 -39 156 -39q171 0 252 118q57 85 57 195q0 180 -151 245q-51 22 -119 21l-39 -2h-19l25 133q20 -4 35 -4z" />
    <glyph glyph-name="agrave" unicode="&#xe0;" horiz-adv-x="1024" 
d="M434 1313l103 121l299 -258l-70 -84zM213 264q0 -155 188 -155q110 0 194 75t103 189l15 84q-500 0 -500 -193zM39 256q0 84 57 151q58 67 154 105q170 66 485 68l10 59q16 98 -20 160q-37 61 -151 61t-178 -56t-77 -130l-167 24q35 146 154 220q120 73 287 73
q166 0 257 -93t63 -265l-90 -502q-9 -61 -5 -89q5 -27 7 -42h-168q-15 45 0 127q-41 -59 -121 -105t-162 -46q-81 0 -138 16q-197 55 -197 264z" />
    <glyph glyph-name="aacute" unicode="&#xe1;" horiz-adv-x="1024" 
d="M844 1305l-393 -213l-45 96l374 248zM213 264q0 -155 188 -155q110 0 194 75t103 189l15 84q-500 0 -500 -193zM39 256q0 84 57 151q58 67 154 105q170 66 485 68l10 59q16 98 -20 160q-37 61 -151 61t-178 -56t-77 -130l-167 24q35 146 154 220q120 73 287 73
q166 0 257 -93t63 -265l-90 -502q-9 -61 -5 -89q5 -27 7 -42h-168q-15 45 0 127q-41 -59 -121 -105t-162 -46q-81 0 -138 16q-197 55 -197 264z" />
    <glyph glyph-name="acircumflex" unicode="&#xe2;" horiz-adv-x="1024" 
d="M588 1421h114l191 -268l-92 -70l-166 217l-244 -219l-80 82zM213 264q0 -155 188 -155q110 0 194 75t103 189l15 84q-500 0 -500 -193zM39 256q0 84 57 151q58 67 154 105q170 66 485 68l10 59q16 98 -20 160q-37 61 -151 61t-178 -56t-77 -130l-167 24q35 146 154 220
q120 73 287 73q166 0 257 -93t63 -265l-90 -502q-9 -61 -5 -89q5 -27 7 -42h-168q-15 45 0 127q-41 -59 -121 -105t-162 -46q-81 0 -138 16q-197 55 -197 264z" />
    <glyph glyph-name="atilde" unicode="&#xe3;" horiz-adv-x="1024" 
d="M489 1235q-82 0 -137 -92l-82 82q45 68 129 108q44 21 110 21t145 -52q30 -20 58 -36t62 -17q83 0 135 94l82 -81q-45 -73 -129 -110q-43 -19 -109 -19t-146 51q-31 18 -57 34t-61 17zM213 264q0 -155 188 -155q110 0 194 75t103 189l15 84q-500 0 -500 -193zM39 256
q0 84 57 151q58 67 154 105q170 66 485 68l10 59q16 98 -20 160q-37 61 -151 61t-178 -56t-77 -130l-167 24q35 146 154 220q120 73 287 73q166 0 257 -93t63 -265l-90 -502q-9 -61 -5 -89q5 -27 7 -42h-168q-15 45 0 127q-41 -59 -121 -105t-162 -46q-81 0 -138 16
q-197 55 -197 264z" />
    <glyph glyph-name="adieresis" unicode="&#xe4;" horiz-adv-x="1024" 
d="M709 1234q0 46 30 76q31 30 78 30t78 -30t31 -76t-31 -78t-78 -32t-78 32q-30 32 -30 78zM315 1234q0 46 31 76t78 30t78 -30q30 -30 30 -76t-30 -78t-78 -32q-47 0 -78 32t-31 78zM213 264q0 -155 188 -155q110 0 194 75t103 189l15 84q-500 0 -500 -193zM39 256
q0 84 57 151q58 67 154 105q170 66 485 68l10 59q16 98 -20 160q-37 61 -151 61t-178 -56t-77 -130l-167 24q35 146 154 220q120 73 287 73q166 0 257 -93t63 -265l-90 -502q-9 -61 -5 -89q5 -27 7 -42h-168q-15 45 0 127q-41 -59 -121 -105t-162 -46q-81 0 -138 16
q-197 55 -197 264z" />
    <glyph glyph-name="aring" unicode="&#xe5;" horiz-adv-x="1024" 
d="M428 1259q0 81 58 139t150 58t141 -48q50 -48 50 -130t-59 -141q-60 -59 -150 -59t-140 49q-50 50 -50 132zM729 1274q-1 44 -25 70t-69 26t-77 -32t-32 -74q0 -43 26 -72t70 -29t75 34q32 34 32 77zM213 264q0 -155 188 -155q110 0 194 75t103 189l15 84
q-500 0 -500 -193zM39 256q0 84 57 151q58 67 154 105q170 66 485 68l10 59q16 98 -20 160q-37 61 -151 61t-178 -56t-77 -130l-167 24q35 146 154 220q120 73 287 73q166 0 257 -93t63 -265l-90 -502q-9 -61 -5 -89q5 -27 7 -42h-168q-15 45 0 127q-41 -59 -121 -105
t-162 -46q-81 0 -138 16q-197 55 -197 264z" />
    <glyph glyph-name="ae" unicode="&#xe6;" horiz-adv-x="1683" 
d="M1220 858q-120 0 -201 -79t-114 -197h543q16 128 -46 202t-182 74zM213 264q0 -76 50 -116q49 -40 119 -39q189 0 277 153q29 49 39 111l15 84q-500 0 -500 -193zM574 860q-114 0 -178 -56t-77 -130l-167 24q35 146 154 220q120 73 278 73q213 0 297 -145
q141 145 355 145t311 -137q96 -137 65 -344q-2 -6 -3 -15t-7 -38h-721q-22 -148 34 -249t209 -99q100 0 161 46q60 46 110 126l141 -64q-135 -240 -420 -242q-256 0 -350 197q-60 -86 -160 -141t-237 -56q-231 0 -306 152q-25 51 -25 134t58 148t154 103q163 65 485 68
l10 59q16 98 -20 160q-37 61 -151 61z" />
    <glyph glyph-name="ccedilla" unicode="&#xe7;" horiz-adv-x="1024" 
d="M469 -100q47 0 87 -42t40 -125t-64 -136t-142 -53q-125 -1 -175 59l64 78q39 -39 92 -39t80 26t26 70q0 72 -76 72q-36 0 -82 -27l-45 55l91 156q-141 40 -212 152t-71 242q0 251 141 427t381 176q169 0 265 -77t118 -199l-164 -41q-10 82 -69 130q-60 48 -150 48
q-159 0 -251 -132q-93 -132 -93 -321t134 -259q46 -24 131 -24q152 1 233 173l153 -60q-137 -251 -411 -254l-49 2l-52 -94q23 17 70 17z" />
    <glyph glyph-name="egrave" unicode="&#xe8;" horiz-adv-x="1064" 
d="M440 1313l103 121l299 -258l-70 -84zM600 858q-121 0 -203 -79t-114 -197h546q16 128 -46 202t-183 74zM82 387q0 267 147 436q147 168 375 168t324 -136t65 -345q-2 -6 -3 -15t-3 -19t-4 -23h-725q-35 -235 110 -316q52 -29 144 -29t154 47q61 46 110 126l142 -64
q-135 -240 -422 -242q-202 0 -308 112t-106 300z" />
    <glyph glyph-name="eacute" unicode="&#xe9;" horiz-adv-x="1064" 
d="M885 1305l-393 -213l-46 96l375 248zM600 858q-121 0 -203 -79t-114 -197h546q16 128 -46 202t-183 74zM82 387q0 267 147 436q147 168 375 168t324 -136t65 -345q-2 -6 -3 -15t-3 -19t-4 -23h-725q-35 -235 110 -316q52 -29 144 -29t154 47q61 46 110 126l142 -64
q-135 -240 -422 -242q-202 0 -308 112t-106 300z" />
    <glyph glyph-name="ecircumflex" unicode="&#xea;" horiz-adv-x="1064" 
d="M629 1421h114l191 -268l-92 -70l-166 217l-244 -219l-80 82zM600 858q-121 0 -203 -79t-114 -197h546q16 128 -46 202t-183 74zM82 387q0 267 147 436q147 168 375 168t324 -136t65 -345q-2 -6 -3 -15t-3 -19t-4 -23h-725q-35 -235 110 -316q52 -29 144 -29t154 47
q61 46 110 126l142 -64q-135 -240 -422 -242q-202 0 -308 112t-106 300z" />
    <glyph glyph-name="edieresis" unicode="&#xeb;" horiz-adv-x="1064" 
d="M741 1234q0 46 31 76t78 30t78 -30q30 -30 30 -76t-30 -78t-78 -32q-47 0 -78 32t-31 78zM348 1234q0 46 31 76t78 30t78 -30t31 -76t-32 -78q-30 -32 -77 -32t-78 32t-31 78zM600 858q-121 0 -203 -79t-114 -197h546q16 128 -46 202t-183 74zM82 387q0 267 147 436
q147 168 375 168t324 -136t65 -345q-2 -6 -3 -15t-3 -19t-4 -23h-725q-35 -235 110 -316q52 -29 144 -29t154 47q61 46 110 126l142 -64q-135 -240 -422 -242q-202 0 -308 112t-106 300z" />
    <glyph glyph-name="igrave" unicode="&#xec;" horiz-adv-x="499" 
d="M172 1313l102 121l299 -258l-69 -84zM248 967h172l-170 -967h-172z" />
    <glyph glyph-name="iacute" unicode="&#xed;" horiz-adv-x="499" 
d="M594 1305l-393 -213l-45 96l374 248zM248 967h172l-170 -967h-172z" />
    <glyph glyph-name="icircumflex" unicode="&#xee;" horiz-adv-x="499" 
d="M344 1421h115l190 -268l-92 -70l-166 217l-244 -219l-79 82zM248 967h172l-170 -967h-172z" />
    <glyph glyph-name="idieresis" unicode="&#xef;" horiz-adv-x="499" 
d="M455 1234q0 46 30 76q31 30 78 30t78 -30t31 -76t-31 -78t-78 -32t-78 32q-30 32 -30 78zM61 1234q0 46 31 76t78 30t78 -30t31 -76t-31 -78t-78 -32t-78 32t-31 78zM248 967h172l-170 -967h-172z" />
    <glyph glyph-name="eth" unicode="&#xf0;" horiz-adv-x="1128" 
d="M260 422q0 -212 139 -287q47 -25 120 -25t137 41q64 40 109 103q93 133 91 299q0 206 -144 278q-48 25 -121 25t-136 -40t-107 -103q-88 -129 -88 -291zM504 -25q-199 0 -310 121q-112 121 -112 330t134 381q65 82 159 133q95 51 197 51q102 1 166 -23t114 -77
q-63 174 -158 295l-178 -99l-51 109l147 82q-82 78 -190 123l106 100q130 -51 230 -145l168 94l49 -107l-135 -75q205 -256 207 -625q0 -264 -124 -450q-146 -216 -419 -218z" />
    <glyph glyph-name="ntilde" unicode="&#xf1;" horiz-adv-x="1114" 
d="M567 1235q-82 0 -137 -92l-82 82q45 68 129 108q44 21 110 21t145 -52q30 -20 58 -36t62 -17q83 0 135 94l82 -81q-45 -73 -129 -110q-43 -19 -109 -19t-146 51q-31 18 -57 34t-61 17zM700 991q156 0 239 -88t52 -258l-114 -645h-172l112 639q19 103 -33 157t-144 54
t-183 -92t-117 -244l-90 -514h-172l170 967h162l-25 -148q126 172 315 172z" />
    <glyph glyph-name="ograve" unicode="&#xf2;" horiz-adv-x="1116" 
d="M475 1313l103 121l299 -258l-70 -84zM260 422q0 -211 141 -287q47 -25 121 -25q143 1 240 138q96 137 94 305q0 207 -142 278q-48 25 -121 25t-136 -40t-108 -103q-89 -128 -89 -291zM520 -25q-212 0 -325 122t-113 332t145 386t383 176q200 0 313 -122t111 -314
q0 -106 -35 -211q-74 -218 -266 -318q-97 -50 -213 -51z" />
    <glyph glyph-name="oacute" unicode="&#xf3;" horiz-adv-x="1116" 
d="M891 1305l-393 -213l-45 96l374 248zM260 422q0 -211 141 -287q47 -25 121 -25q143 1 240 138q96 137 94 305q0 207 -142 278q-48 25 -121 25t-136 -40t-108 -103q-89 -128 -89 -291zM520 -25q-212 0 -325 122t-113 332t145 386t383 176q200 0 313 -122t111 -314
q0 -106 -35 -211q-74 -218 -266 -318q-97 -50 -213 -51z" />
    <glyph glyph-name="ocircumflex" unicode="&#xf4;" horiz-adv-x="1116" 
d="M639 1421h115l190 -268l-92 -70l-166 217l-244 -219l-80 82zM260 422q0 -211 141 -287q47 -25 121 -25q143 1 240 138q96 137 94 305q0 207 -142 278q-48 25 -121 25t-136 -40t-108 -103q-89 -128 -89 -291zM520 -25q-212 0 -325 122t-113 332t145 386t383 176
q200 0 313 -122t111 -314q0 -106 -35 -211q-74 -218 -266 -318q-97 -50 -213 -51z" />
    <glyph glyph-name="otilde" unicode="&#xf5;" horiz-adv-x="1116" 
d="M532 1235q-82 0 -137 -92l-82 82q45 68 129 108q44 21 110 21t145 -52q30 -20 58 -36q62 -37 116 -6q54 30 81 83l82 -81q-45 -73 -129 -110q-43 -19 -109 -19t-146 51q-30 18 -56 34t-62 17zM260 422q0 -211 141 -287q47 -25 121 -25q143 1 240 138q96 137 94 305
q0 207 -142 278q-48 25 -121 25t-136 -40t-108 -103q-89 -128 -89 -291zM520 -25q-212 0 -325 122t-113 332t145 386t383 176q200 0 313 -122t111 -314q0 -106 -35 -211q-74 -218 -266 -318q-97 -50 -213 -51z" />
    <glyph glyph-name="odieresis" unicode="&#xf6;" horiz-adv-x="1116" 
d="M758 1234q0 46 30 76q31 30 78 30t78 -30t31 -76t-31 -78t-78 -32t-78 32q-30 32 -30 78zM365 1234q0 46 30 76q31 30 78 30t78 -30t31 -76t-31 -78t-78 -32t-78 32q-30 32 -30 78zM260 422q0 -211 141 -287q47 -25 121 -25q143 1 240 138q96 137 94 305q0 207 -142 278
q-48 25 -121 25t-136 -40t-108 -103q-89 -128 -89 -291zM520 -25q-212 0 -325 122t-113 332t145 386t383 176q200 0 313 -122t111 -314q0 -106 -35 -211q-74 -218 -266 -318q-97 -50 -213 -51z" />
    <glyph glyph-name="divide" unicode="&#xf7;" 
d="M471 288q0 48 32 80t83 32t83 -32q31 -32 31 -80t-32 -80t-82 -32q-51 0 -83 32t-32 80zM596 1035q0 48 32 80t83 32t83 -32t32 -80t-32 -80q-32 -31 -83 -31t-83 32t-32 79zM154 733h1007l-24 -141h-1008z" />
    <glyph glyph-name="oslash" unicode="&#xf8;" horiz-adv-x="1116" 
d="M856 555q0 80 -31 152l-446 -560q55 -37 136 -37q150 1 246 136q95 135 95 309zM260 404q0 -88 37 -162l453 565q-62 49 -146 49q-153 0 -248 -135q-96 -135 -96 -317zM186 104q-104 116 -104 326t145 385q145 176 383 176q137 0 238 -61l125 155l94 -77l-127 -158
q94 -119 94 -295q0 -228 -142 -403t-384 -177q-129 0 -225 52l-129 -162l-97 78z" />
    <glyph glyph-name="ugrave" unicode="&#xf9;" horiz-adv-x="1120" 
d="M461 1313l102 121l299 -258l-69 -84zM297 328q-19 -106 34 -158q54 -53 147 -53t182 92q90 92 116 244l90 514h172l-170 -967h-161l24 147q-124 -170 -315 -172q-154 0 -239 88t-54 259l115 645h172z" />
    <glyph glyph-name="uacute" unicode="&#xfa;" horiz-adv-x="1120" 
d="M915 1305l-393 -213l-45 96l375 248zM297 328q-19 -106 34 -158q54 -53 147 -53t182 92q90 92 116 244l90 514h172l-170 -967h-161l24 147q-124 -170 -315 -172q-154 0 -239 88t-54 259l115 645h172z" />
    <glyph glyph-name="ucircumflex" unicode="&#xfb;" horiz-adv-x="1120" 
d="M645 1421h115l190 -268l-92 -70l-166 217l-243 -219l-80 82zM297 328q-19 -106 34 -158q54 -53 147 -53t182 92q90 92 116 244l90 514h172l-170 -967h-161l24 147q-124 -170 -315 -172q-154 0 -239 88t-54 259l115 645h172z" />
    <glyph glyph-name="udieresis" unicode="&#xfc;" horiz-adv-x="1120" 
d="M870 1124q-48 0 -78 32t-30 78t31 76t77 30t78 -30q31 -30 31 -76t-31 -78t-78 -32zM369 1234q0 46 30 76q31 30 78 30t78 -30t31 -76t-31 -78t-78 -32t-78 32q-30 32 -30 78zM297 328q-19 -106 34 -158q54 -53 147 -53t182 92q90 92 116 244l90 514h172l-170 -967h-161
l24 147q-124 -170 -315 -172q-154 0 -239 88t-54 259l115 645h172z" />
    <glyph glyph-name="yacute" unicode="&#xfd;" horiz-adv-x="983" 
d="M852 1305l-393 -213l-45 96l374 248zM287 967q53 -251 155 -760h4q33 82 416 760h174l-671 -1200q-66 -119 -135 -162t-137 -43q-124 0 -181 39l76 135q46 -29 84 -29q91 0 161 131l95 178l-211 951h170z" />
    <glyph glyph-name="thorn" unicode="&#xfe;" horiz-adv-x="1173" 
d="M913 572q0 110 -61 194t-180 84t-210 -79t-118 -222l-18 -105q-29 -163 50 -253q67 -74 205 -74t235 127t97 328zM1092 540q0 -114 -41 -222t-110 -184q-146 -159 -351 -159q-131 0 -207 45t-111 105l-94 -535h-172l324 1844h172l-105 -590q45 59 119 103t171 44
q190 0 298 -119q107 -119 107 -332z" />
    <glyph glyph-name="ydieresis" unicode="&#xff;" horiz-adv-x="983" 
d="M682 1234q0 46 31 76t78 30t77 -30t31 -76q0 -46 -31 -78q-32 -32 -78 -32t-77 32t-31 78zM289 1234q0 46 30 76q31 30 78 30t78 -30t31 -76t-31 -78t-78 -32t-78 32q-30 32 -30 78zM287 967q53 -251 155 -760h4q33 82 416 760h174l-671 -1200q-66 -119 -135 -162
t-137 -43q-124 0 -181 39l76 135q46 -29 84 -29q91 0 161 131l95 178l-211 951h170z" />
    <glyph glyph-name="Amacron" unicode="&#x100;" horiz-adv-x="1286" 
d="M584 1712h530l-20 -121h-531zM772 1206l-32 -64t-48 -91t-58 -111t-82 -156q-52 -98 -134 -256h473q-29 158 -45 255t-26 157t-19 110q-8 52 -16 93q-7 41 -9 63h-4zM1161 0h-176l-70 389h-569l-209 -389h-184l774 1434h164z" />
    <glyph glyph-name="amacron" unicode="&#x101;" horiz-adv-x="1024" 
d="M362 1270h531l-21 -121h-530zM213 264q0 -155 188 -155q110 0 194 75t103 189l15 84q-500 0 -500 -193zM39 256q0 84 57 151q58 67 154 105q170 66 485 68l10 59q16 98 -20 160q-37 61 -151 61t-178 -56t-77 -130l-167 24q35 146 154 220q120 73 287 73q166 0 257 -93
t63 -265l-90 -502q-9 -61 -5 -89q5 -27 7 -42h-168q-15 45 0 127q-41 -59 -121 -105t-162 -46q-81 0 -138 16q-197 55 -197 264z" />
    <glyph glyph-name="Abreve" unicode="&#x102;" horiz-adv-x="1286" 
d="M836 1671q72 0 126 45t74 109l135 -41q-33 -94 -121 -161t-216 -67q-126 0 -202 64t-87 164l135 41q2 -63 43 -109t113 -45zM772 1206l-32 -64t-48 -91t-58 -111t-82 -156q-52 -98 -134 -256h473q-29 158 -45 255t-26 157t-19 110q-8 52 -16 93q-7 41 -9 63h-4zM1161 0
h-176l-70 389h-569l-209 -389h-184l774 1434h164z" />
    <glyph glyph-name="abreve" unicode="&#x103;" horiz-adv-x="1024" 
d="M616 1225q72 0 126 45t75 108l135 -41q-33 -95 -122 -161t-215 -66q-127 0 -203 64t-86 163l135 41q2 -63 43 -108q40 -45 112 -45zM213 264q0 -155 188 -155q110 0 194 75t103 189l15 84q-500 0 -500 -193zM39 256q0 84 57 151q58 67 154 105q170 66 485 68l10 59
q16 98 -20 160q-37 61 -151 61t-178 -56t-77 -130l-167 24q35 146 154 220q120 73 287 73q166 0 257 -93t63 -265l-90 -502q-9 -61 -5 -89q5 -27 7 -42h-168q-15 45 0 127q-41 -59 -121 -105t-162 -46q-81 0 -138 16q-197 55 -197 264z" />
    <glyph glyph-name="Aogonek" unicode="&#x104;" horiz-adv-x="1286" 
d="M772 1206l-32 -64t-48 -91t-58 -111t-82 -156q-52 -98 -134 -256h473q-29 158 -45 255t-26 157t-19 110q-8 52 -16 93q-7 41 -9 63h-4zM1161 -301q-81 -98 -203 -98q-173 0 -176 153q0 152 203 246l-70 389h-569l-209 -389h-184l774 1434h164l270 -1434
q-244 -121 -243 -221q0 -31 19 -51t54 -21q63 0 111 66z" />
    <glyph glyph-name="aogonek" unicode="&#x105;" horiz-adv-x="1024" 
d="M213 264q0 -155 188 -155q110 0 194 75t103 189l15 84q-500 0 -500 -193zM825 0q-239 -130 -239 -211q0 -80 73 -82q63 0 111 66l59 -74q-81 -98 -201 -98t-161 76q-16 30 -16 75q0 90 61 148t145 100q-15 45 0 127q-41 -59 -121 -105t-162 -46q-233 -1 -309 147
q-26 49 -26 133t57 151q58 67 154 105q170 66 485 68l10 59q16 98 -20 160q-37 61 -151 61t-178 -56t-77 -130l-167 24q35 146 154 220q120 73 287 73q166 0 257 -93t63 -265l-90 -502q-9 -61 -5 -89q5 -27 7 -42z" />
    <glyph glyph-name="Cacute" unicode="&#x106;" horiz-adv-x="1368" 
d="M1155 1745l-393 -213l-45 96l375 248zM141 610q0 156 49 312q101 323 368 464q134 72 328 72t327 -98q132 -98 178 -266l-166 -60q-27 123 -117 201t-234 78q-144 1 -240 -59q-197 -121 -272 -386q-36 -130 -36 -250q1 -354 222 -460q76 -37 194 -37t215 81t155 204
l164 -62q-82 -168 -219 -268t-338 -101q-273 0 -426 168q-152 167 -152 467z" />
    <glyph glyph-name="cacute" unicode="&#x107;" horiz-adv-x="1024" 
d="M883 1305l-394 -213l-45 96l375 248zM82 419q0 99 34 203q72 218 262 318q98 51 206 51q271 0 365 -169q28 -50 38 -107l-164 -41q-10 82 -69 130q-60 48 -150 48q-159 0 -251 -132q-93 -132 -93 -321t134 -259q46 -24 131 -24q152 1 233 173l153 -60
q-137 -251 -411 -254q-104 0 -183 34q-235 102 -235 410z" />
    <glyph glyph-name="Ccircumflex" unicode="&#x108;" horiz-adv-x="1368" 
d="M885 1843h119l186 -244l-94 -71l-162 198l-246 -200l-82 84zM141 610q0 156 49 312q101 323 368 464q134 72 328 72t327 -98q132 -98 178 -266l-166 -60q-27 123 -117 201t-234 78q-144 1 -240 -59q-197 -121 -272 -386q-36 -130 -36 -250q1 -354 222 -460
q76 -37 194 -37t215 81t155 204l164 -62q-82 -168 -219 -268t-338 -101q-273 0 -426 168q-152 167 -152 467z" />
    <glyph glyph-name="ccircumflex" unicode="&#x109;" horiz-adv-x="1024" 
d="M631 1421h114l191 -268l-92 -70l-166 217l-244 -219l-80 82zM82 419q0 99 34 203q72 218 262 318q98 51 206 51q271 0 365 -169q28 -50 38 -107l-164 -41q-10 82 -69 130q-60 48 -150 48q-159 0 -251 -132q-93 -132 -93 -321t134 -259q46 -24 131 -24q152 1 233 173
l153 -60q-137 -251 -411 -254q-104 0 -183 34q-235 102 -235 410z" />
    <glyph glyph-name="Cdotaccent" unicode="&#x10a;" horiz-adv-x="1368" 
d="M797 1678q0 48 31 80q32 32 83 32t83 -32t32 -80t-32 -80t-83 -32t-83 32q-31 32 -31 80zM141 610q0 156 49 312q101 323 368 464q134 72 328 72t327 -98q132 -98 178 -266l-166 -60q-27 123 -117 201t-234 78q-144 1 -240 -59q-197 -121 -272 -386q-36 -130 -36 -250
q1 -354 222 -460q76 -37 194 -37t215 81t155 204l164 -62q-82 -168 -219 -268t-338 -101q-273 0 -426 168q-152 167 -152 467z" />
    <glyph glyph-name="cdotaccent" unicode="&#x10b;" horiz-adv-x="1024" 
d="M561 1238q0 48 32 79t81 31t81 -31q31 -31 31 -79t-32 -81t-80 -33q-49 0 -81 33t-32 81zM82 419q0 99 34 203q72 218 262 318q98 51 206 51q271 0 365 -169q28 -50 38 -107l-164 -41q-10 82 -69 130q-60 48 -150 48q-159 0 -251 -132q-93 -132 -93 -321t134 -259
q46 -24 131 -24q152 1 233 173l153 -60q-137 -251 -411 -254q-104 0 -183 34q-235 102 -235 410z" />
    <glyph glyph-name="Ccaron" unicode="&#x10c;" horiz-adv-x="1368" 
d="M965 1540h-119l-187 244l95 71l161 -198l246 201l82 -84zM141 610q0 156 49 312q101 323 368 464q134 72 328 72t327 -98q132 -98 178 -266l-166 -60q-27 123 -117 201t-234 78q-144 1 -240 -59q-197 -121 -272 -386q-36 -130 -36 -250q1 -354 222 -460q76 -37 194 -37
t215 81t155 204l164 -62q-82 -168 -219 -268t-338 -101q-273 0 -426 168q-152 167 -152 467z" />
    <glyph glyph-name="ccaron" unicode="&#x10d;" horiz-adv-x="1024" 
d="M692 1094h-114l-185 268l92 70l160 -218l244 220l80 -82zM82 419q0 99 34 203q72 218 262 318q98 51 206 51q271 0 365 -169q28 -50 38 -107l-164 -41q-10 82 -69 130q-60 48 -150 48q-159 0 -251 -132q-93 -132 -93 -321t134 -259q46 -24 131 -24q152 1 233 173l153 -60
q-137 -251 -411 -254q-104 0 -183 34q-235 102 -235 410z" />
    <glyph glyph-name="Dcaron" unicode="&#x10e;" horiz-adv-x="1429" 
d="M862 1540h-119l-186 244l94 71l162 -198l246 201l82 -84zM1186 870q0 203 -106 312t-330 108h-246l-203 -1147h279q295 0 457 219q149 199 149 508zM805 1434q259 0 412 -149q153 -151 153 -417q0 -404 -212 -636t-572 -232h-488l252 1434h455z" />
    <glyph glyph-name="dcaron" unicode="&#x10f;" horiz-adv-x="1175" 
d="M1489 1405l-180 -313l-92 30l137 328zM260 394q0 -110 62 -193q62 -84 179 -84q118 0 210 76q91 76 118 227l19 100q30 166 -43 247t-210 82q-138 1 -237 -126q-98 -128 -98 -329zM600 991q116 0 193 -46q78 -46 112 -105l103 594h172l-254 -1434h-162l24 141
q-38 -66 -119 -115q-80 -49 -188 -51q-184 0 -292 117t-107 320q0 254 148 416q148 163 370 163z" />
    <glyph glyph-name="Dcroat" unicode="&#x110;" horiz-adv-x="1468" 
d="M1225 870q-1 203 -107 312t-330 108h-245l-86 -477h389l-23 -129h-389l-94 -541h278q296 0 458 219q149 199 149 508zM844 1434q260 0 412 -150q153 -150 153 -416q0 -404 -212 -636t-572 -232h-488l119 684h-180l22 129h181l110 621h455z" />
    <glyph glyph-name="dcroat" unicode="&#x111;" horiz-adv-x="1175" 
d="M260 394q0 -110 62 -193q62 -84 179 -84q118 0 210 76q91 76 118 227l19 100q30 166 -43 247t-210 82q-138 1 -237 -126q-98 -128 -98 -329zM599 991q116 0 194 -46t112 -105l49 284h-321l22 129h322l31 181h172l-33 -181h127l-23 -129h-127l-198 -1124h-162l24 141
q-38 -66 -119 -115q-80 -49 -188 -51q-184 0 -292 117t-107 320q0 254 148 416q147 163 369 163z" />
    <glyph glyph-name="Emacron" unicode="&#x112;" horiz-adv-x="1138" 
d="M541 1712h530l-20 -121h-531zM98 0l252 1434h840l-25 -144h-661l-84 -479h618l-26 -143h-619l-92 -525h676l-25 -143h-854z" />
    <glyph glyph-name="emacron" unicode="&#x113;" horiz-adv-x="1064" 
d="M401 1270h531l-21 -121h-530zM600 858q-121 0 -203 -79t-114 -197h546q16 128 -46 202t-183 74zM82 387q0 267 147 436q147 168 375 168t324 -136t65 -345q-2 -6 -3 -15t-3 -19t-4 -23h-725q-35 -235 110 -316q52 -29 144 -29t154 47q61 46 110 126l142 -64
q-135 -240 -422 -242q-202 0 -308 112t-106 300z" />
    <glyph glyph-name="Ebreve" unicode="&#x114;" horiz-adv-x="1138" 
d="M782 1671q72 0 126 45t75 109l135 -41q-33 -94 -122 -161t-215 -67q-127 0 -203 64t-86 164l135 41q2 -63 43 -109q40 -46 112 -45zM98 0l252 1434h840l-25 -144h-661l-84 -479h618l-26 -143h-619l-92 -525h676l-25 -143h-854z" />
    <glyph glyph-name="ebreve" unicode="&#x115;" horiz-adv-x="1064" 
d="M650 1225q72 0 125 45q54 45 75 108l135 -41q-33 -95 -122 -161t-215 -66t-203 64t-87 163l136 41q2 -63 43 -108t113 -45zM600 858q-121 0 -203 -79t-114 -197h546q16 128 -46 202t-183 74zM82 387q0 267 147 436q147 168 375 168t324 -136t65 -345q-2 -6 -3 -15t-3 -19
t-4 -23h-725q-35 -235 110 -316q52 -29 144 -29t154 47q61 46 110 126l142 -64q-135 -240 -422 -242q-202 0 -308 112t-106 300z" />
    <glyph glyph-name="Edotaccent" unicode="&#x116;" horiz-adv-x="1138" 
d="M676 1678q0 48 32 80t83 32t83 -32t31 -80q0 -48 -32 -80q-33 -32 -83 -32t-82 32t-32 80zM98 0l252 1434h840l-25 -144h-661l-84 -479h618l-26 -143h-619l-92 -525h676l-25 -143h-854z" />
    <glyph glyph-name="edotaccent" unicode="&#x117;" horiz-adv-x="1064" 
d="M551 1238q0 48 32 79t81 31q48 0 80 -31t32 -79t-32 -81t-80 -33t-81 33q-32 33 -32 81zM600 858q-121 0 -203 -79t-114 -197h546q16 128 -46 202t-183 74zM82 387q0 267 147 436q147 168 375 168t324 -136t65 -345q-2 -6 -3 -15t-3 -19t-4 -23h-725q-35 -235 110 -316
q52 -29 144 -29t154 47q61 46 110 126l142 -64q-135 -240 -422 -242q-202 0 -308 112t-106 300z" />
    <glyph glyph-name="Eogonek" unicode="&#x118;" horiz-adv-x="1138" 
d="M862 -301q-81 -98 -203 -98q-173 0 -176 151q0 120 129 202q37 24 78 46h-592l252 1434h840l-25 -144h-661l-84 -479h618l-26 -143h-619l-92 -525h676l-25 -143h-90q-243 -132 -244 -212q-1 -79 74 -81q63 0 111 66z" />
    <glyph glyph-name="eogonek" unicode="&#x119;" horiz-adv-x="1064" 
d="M600 858q-121 0 -203 -79t-114 -197h546q16 128 -46 202t-183 74zM82 387q0 267 147 436q147 168 375 168t324 -136t65 -345q-2 -6 -3 -15t-3 -19t-4 -23h-725q-35 -235 110 -316q52 -29 144 -29t154 47q61 46 110 126l142 -64q-84 -147 -224 -215q-241 -114 -241 -223
q0 -31 19 -51t54 -21q63 0 111 66l59 -74q-81 -98 -202 -98q-82 0 -129 38q-47 39 -47 115t46 128t111 93q-188 4 -291 118q-104 114 -102 294z" />
    <glyph glyph-name="Ecaron" unicode="&#x11a;" horiz-adv-x="1138" 
d="M823 1540h-118l-187 244l94 71l162 -198l246 201l82 -84zM98 0l252 1434h840l-25 -144h-661l-84 -479h618l-26 -143h-619l-92 -525h676l-25 -143h-854z" />
    <glyph glyph-name="ecaron" unicode="&#x11b;" horiz-adv-x="1064" 
d="M690 1094h-115l-184 268l92 70l160 -218l244 220l80 -82zM600 858q-121 0 -203 -79t-114 -197h546q16 128 -46 202t-183 74zM82 387q0 267 147 436q147 168 375 168t324 -136t65 -345q-2 -6 -3 -15t-3 -19t-4 -23h-725q-35 -235 110 -316q52 -29 144 -29t154 47
q61 46 110 126l142 -64q-135 -240 -422 -242q-202 0 -308 112t-106 300z" />
    <glyph glyph-name="Gcircumflex" unicode="&#x11c;" horiz-adv-x="1468" 
d="M887 1843h119l186 -244l-94 -71l-162 198l-246 -200l-82 84zM135 614q0 150 49 305q101 321 372 466q134 73 324 73t324 -93q133 -93 182 -267l-167 -56q-29 121 -118 196t-229 75q-140 -1 -239 -59q-198 -118 -276 -388q-38 -132 -38 -256q0 -237 101 -363t301 -126
q154 0 270 92q115 92 137 250l17 102h-412l25 140h588l-125 -705h-164l26 152q-63 -78 -129 -111q-129 -64 -263 -65t-238 46q-318 141 -318 592z" />
    <glyph glyph-name="gcircumflex" unicode="&#x11d;" horiz-adv-x="1173" 
d="M616 1421h115l191 -268l-93 -70l-165 217l-244 -219l-80 82zM260 416q0 -104 62 -180q62 -78 180 -78q119 0 212 70t115 210l15 84q26 162 -47 244q-74 82 -197 84q-76 0 -138 -33q-202 -108 -202 -401zM486 16q-97 0 -171 29q-233 91 -233 401q0 110 40 214
q82 211 267 291q91 40 175 40q205 0 298 -108q27 -31 41 -64l27 148h162l-160 -912q-43 -249 -165 -369t-347 -120q-313 0 -400 250l158 59q29 -80 65 -112q67 -60 162 -60q299 0 353 332l20 117q-41 -52 -118 -94t-174 -42z" />
    <glyph glyph-name="Gbreve" unicode="&#x11e;" horiz-adv-x="1468" 
d="M910 1671q72 0 125 45q54 45 75 109l135 -41q-33 -94 -122 -161t-215 -67t-202 64t-88 164l136 41q2 -63 43 -109t113 -45zM135 614q0 150 49 305q101 321 372 466q134 73 324 73t324 -93q133 -93 182 -267l-167 -56q-29 121 -118 196t-229 75q-140 -1 -239 -59
q-198 -118 -276 -388q-38 -132 -38 -256q0 -237 101 -363t301 -126q154 0 270 92q115 92 137 250l17 102h-412l25 140h588l-125 -705h-164l26 152q-63 -78 -129 -111q-129 -64 -263 -65t-238 46q-318 141 -318 592z" />
    <glyph glyph-name="gbreve" unicode="&#x11f;" horiz-adv-x="1173" 
d="M643 1225q72 0 126 45t75 108l135 -41q-33 -95 -122 -161t-215 -66t-203 64t-87 163l135 41q2 -63 43 -108t113 -45zM260 416q0 -104 62 -180q62 -78 180 -78q119 0 212 70t115 210l15 84q26 162 -47 244q-74 82 -197 84q-76 0 -138 -33q-202 -108 -202 -401zM486 16
q-97 0 -171 29q-233 91 -233 401q0 110 40 214q82 211 267 291q91 40 175 40q205 0 298 -108q27 -31 41 -64l27 148h162l-160 -912q-43 -249 -165 -369t-347 -120q-313 0 -400 250l158 59q29 -80 65 -112q67 -60 162 -60q299 0 353 332l20 117q-41 -52 -118 -94t-174 -42z
" />
    <glyph glyph-name="Gdotaccent" unicode="&#x120;" horiz-adv-x="1468" 
d="M805 1678q0 48 32 80t83 32q50 0 82 -32t32 -80t-32 -80t-82 -32t-83 32q-32 32 -32 80zM135 614q0 150 49 305q101 321 372 466q134 73 324 73t324 -93q133 -93 182 -267l-167 -56q-29 121 -118 196t-229 75q-140 -1 -239 -59q-198 -118 -276 -388q-38 -132 -38 -256
q0 -237 101 -363t301 -126q154 0 270 92q115 92 137 250l17 102h-412l25 140h588l-125 -705h-164l26 152q-63 -78 -129 -111q-129 -64 -263 -65t-238 46q-318 141 -318 592z" />
    <glyph glyph-name="gdotaccent" unicode="&#x121;" horiz-adv-x="1173" 
d="M543 1238q0 48 31 79q32 31 81 31t81 -31t32 -79t-32 -81t-81 -33t-81 33q-31 33 -31 81zM260 416q0 -104 62 -180q62 -78 180 -78q119 0 212 70t115 210l15 84q26 162 -47 244q-74 82 -197 84q-76 0 -138 -33q-202 -108 -202 -401zM486 16q-97 0 -171 29
q-233 91 -233 401q0 110 40 214q82 211 267 291q91 40 175 40q205 0 298 -108q27 -31 41 -64l27 148h162l-160 -912q-43 -249 -165 -369t-347 -120q-313 0 -400 250l158 59q29 -80 65 -112q67 -60 162 -60q299 0 353 332l20 117q-41 -52 -118 -94t-174 -42z" />
    <glyph glyph-name="Gcommaaccent" unicode="&#x122;" horiz-adv-x="1468" 
d="M760 -227q0 -137 -109 -201q-41 -25 -104 -27l-19 68q47 1 83 23t40 67q-2 -2 -4 -2h-14q-35 2 -60 28q-53 55 1 129q26 34 79 34t80 -40q27 -39 27 -79zM135 614q0 150 49 305q101 321 372 466q134 73 324 73t324 -93q133 -93 182 -267l-167 -56q-29 121 -118 196
t-229 75q-140 -1 -239 -59q-198 -118 -276 -388q-38 -132 -38 -256q0 -237 101 -363t301 -126q154 0 270 92q115 92 137 250l17 102h-412l25 140h588l-125 -705h-164l26 152q-63 -78 -129 -111q-129 -64 -263 -65t-238 46q-318 141 -318 592z" />
    <glyph glyph-name="gcommaaccent" unicode="&#x123;" horiz-adv-x="1173" 
d="M545 1231q0 68 34 113q35 46 75 70t104 26l18 -68q-47 0 -84 -22t-41 -68q6 2 31 1q26 -1 50 -27t24 -60t-26 -69q-26 -34 -79 -33q-106 0 -106 137zM260 416q0 -104 62 -180q62 -78 180 -78q119 0 212 70t115 210l15 84q26 162 -47 244q-74 82 -197 84q-76 0 -138 -33
q-202 -108 -202 -401zM486 16q-97 0 -171 29q-233 91 -233 401q0 110 40 214q82 211 267 291q91 40 175 40q205 0 298 -108q27 -31 41 -64l27 148h162l-160 -912q-43 -249 -165 -369t-347 -120q-313 0 -400 250l158 59q29 -80 65 -112q67 -60 162 -60q299 0 353 332l20 117
q-41 -52 -118 -94t-174 -42z" />
    <glyph glyph-name="Hcircumflex" unicode="&#x124;" horiz-adv-x="1421" 
d="M868 1843h119l187 -244l-95 -71l-161 198l-246 -200l-82 84zM350 1434h178l-108 -621h696l109 621h178l-252 -1434h-178l119 670h-697l-119 -670h-178z" />
    <glyph glyph-name="hcircumflex" unicode="&#x125;" horiz-adv-x="1116" 
d="M422 1843h119l186 -244l-94 -71l-162 198l-246 -200l-82 84zM689 991q257 0 304 -192q16 -66 0 -154l-114 -645h-172l112 639q19 103 -33 157t-144 54t-183 -92t-117 -244l-90 -514h-174l254 1434h172l-105 -600q47 68 126 112t164 45z" />
    <glyph glyph-name="Hbar" unicode="&#x126;" horiz-adv-x="1421" 
d="M1116 813l37 215h-696l-37 -215h696zM279 1028h-162l24 139h162l47 267h178l-47 -267h697l47 267h178l-47 -267h166l-25 -139h-166l-180 -1028h-178l119 670h-697l-119 -670h-178z" />
    <glyph glyph-name="hbar" unicode="&#x127;" horiz-adv-x="1116" 
d="M689 991q257 0 304 -192q16 -66 0 -154l-114 -645h-172l112 639q19 103 -33 157t-144 54t-183 -92t-117 -244l-90 -514h-174l198 1124h-124l22 129h125l33 181h172l-33 -181h322l-23 -129h-321l-50 -290q47 68 126 112t164 45z" />
    <glyph glyph-name="Itilde" unicode="&#x128;" horiz-adv-x="546" 
d="M326 1673q-83 0 -138 -92l-82 82q44 67 109 98q64 31 132 31t143 -52q30 -20 58 -36t76 -16t87 47q20 20 34 47l82 -82q-45 -73 -129 -110q-43 -19 -109 -19t-146 51q-31 18 -57 34t-60 17zM350 1434h178l-252 -1434h-178z" />
    <glyph glyph-name="itilde" unicode="&#x129;" horiz-adv-x="499" 
d="M223 1235q-82 0 -137 -92l-82 82q45 69 129 108q44 21 110 21t145 -52q30 -20 58 -36t62 -17q83 0 135 94l82 -81q-45 -73 -129 -110q-43 -19 -109 -19t-146 51q-31 18 -57 34t-61 17zM248 967h172l-170 -967h-172z" />
    <glyph glyph-name="Imacron" unicode="&#x12a;" horiz-adv-x="546" 
d="M213 1712h530l-20 -121h-530zM350 1434h178l-252 -1434h-178z" />
    <glyph glyph-name="imacron" unicode="&#x12b;" horiz-adv-x="499" 
d="M106 1270h531l-21 -121h-530zM248 967h172l-170 -967h-172z" />
    <glyph glyph-name="Ibreve" unicode="&#x12c;" horiz-adv-x="546" 
d="M471 1671q72 0 126 45t75 109l135 -41q-33 -94 -122 -161t-215 -67t-203 64t-87 164l135 41q2 -63 43 -109t113 -45zM350 1434h178l-252 -1434h-178z" />
    <glyph glyph-name="ibreve" unicode="&#x12d;" horiz-adv-x="499" 
d="M360 1225q72 0 126 45t75 108l135 -41q-33 -95 -122 -161t-215 -66q-127 0 -203 64t-86 163l135 41q2 -63 43 -108q40 -45 112 -45zM248 967h172l-170 -967h-172z" />
    <glyph glyph-name="Iogonek" unicode="&#x12e;" horiz-adv-x="546" 
d="M74 -399q-176 0 -176 152t200 247l252 1434h178l-252 -1434q-244 -121 -243 -221q0 -31 19 -51t54 -21q63 0 111 66l59 -74q-81 -98 -202 -98z" />
    <glyph glyph-name="iogonek" unicode="&#x12f;" horiz-adv-x="499" 
d="M393 1233q-49 1 -81 33t-31 80q0 48 31 79q32 31 81 31t81 -31t32 -79t-32 -80t-81 -33zM47 -399q-82 0 -129 38t-47 98t17 97q32 71 112 120q37 24 78 46l170 967h172l-170 -967q-120 -66 -182 -117t-62 -104q0 -31 20 -51t54 -21q63 0 110 66l60 -74q-81 -98 -203 -98z
" />
    <glyph glyph-name="Idotaccent" unicode="&#x130;" horiz-adv-x="546" 
d="M350 1434h178l-252 -1434h-178zM362 1678q0 48 32 80t83 32t83 -32t32 -80t-32 -80t-83 -32t-83 32t-32 80z" />
    <glyph glyph-name="dotlessi" unicode="&#x131;" horiz-adv-x="499" 
d="M248 967h172l-170 -967h-172z" />
    <glyph glyph-name="IJ" unicode="&#x132;" horiz-adv-x="1392" 
d="M774 119q111 0 171 90t91 264l170 961h178l-170 -961q-41 -239 -125 -353q-108 -145 -321 -145q-212 0 -315 158l129 115q44 -66 84 -98t108 -31zM350 1434h178l-252 -1434h-178z" />
    <glyph glyph-name="ij" unicode="&#x133;" horiz-adv-x="1003" 
d="M895 1233q-49 1 -81 33t-32 80t32 79t81 31t81 -31t32 -79t-32 -80t-81 -33zM266 -236q63 -50 132 -50q69 -1 108 43t51 114l193 1096h172l-193 -1106q-29 -162 -115 -229q-86 -66 -220 -66t-222 69zM393 1233q-49 1 -81 33t-31 80q0 48 31 79q32 31 81 31t81 -31t32 -79
t-32 -80t-81 -33zM248 967h172l-170 -967h-172z" />
    <glyph glyph-name="Jcircumflex" unicode="&#x134;" horiz-adv-x="884" 
d="M797 1843h118l187 -244l-94 -71l-162 198l-246 -200l-82 84zM266 119q111 0 171 90t91 264l170 961h179l-170 -961q-41 -237 -126 -353q-108 -145 -321 -145q-212 0 -315 158l129 115q44 -66 84 -98t108 -31z" />
    <glyph glyph-name="jcircumflex" unicode="&#x135;" horiz-adv-x="503" 
d="M344 1421h115l190 -268l-92 -70l-166 217l-244 -219l-79 82zM-233 -236q63 -50 132 -50q69 -1 107 43t51 114l193 1096h172l-193 -1106q-29 -162 -115 -229q-86 -66 -218 -66q-133 0 -224 69z" />
    <glyph glyph-name="Kcommaaccent" unicode="&#x136;" horiz-adv-x="1265" 
d="M651 -227q0 -136 -108 -201q-41 -25 -105 -27l-18 68q47 1 83 23t40 67q-2 -2 -4 -2h-15q-36 2 -60 28q-24 27 -24 61t26 68t79 34t80 -39q26 -40 26 -80zM565 735l-188 -166l-101 -569h-178l252 1434h178l-110 -635l717 635h223l-658 -584l453 -850h-201z" />
    <glyph glyph-name="kcommaaccent" unicode="&#x137;" horiz-adv-x="1021" 
d="M553 -227q0 -137 -109 -201q-41 -25 -104 -27l-18 68q46 1 82 23t40 67q-2 -2 -4 -2h-14q-36 2 -60 28q-24 27 -24 61t26 68t78 34t80 -40q27 -39 27 -79zM457 512l-135 -106l-72 -406h-172l252 1434h172l-148 -838l467 371h217l-446 -357l336 -610h-195z" />
    <glyph glyph-name="kgreenlandic" unicode="&#x138;" horiz-adv-x="1021" 
d="M420 967l-66 -371l467 371h217l-446 -357l336 -610h-195l-272 504l-142 -111l-69 -393h-172l170 967h172z" />
    <glyph glyph-name="Lacute" unicode="&#x139;" horiz-adv-x="1042" 
d="M805 1745l-393 -213l-45 96l374 248zM350 1434h178l-227 -1291h635l-25 -143h-813z" />
    <glyph glyph-name="lacute" unicode="&#x13a;" horiz-adv-x="499" 
d="M672 1745l-393 -213l-46 96l375 248zM330 1434h172l-252 -1434h-172z" />
    <glyph glyph-name="Lcommaaccent" unicode="&#x13b;" horiz-adv-x="1042" 
d="M580 -227q0 -137 -109 -201q-41 -25 -104 -27l-19 68q47 1 83 23t40 67q-2 -2 -4 -2h-14q-35 2 -60 28q-53 55 1 129q26 34 79 34t80 -40q27 -39 27 -79zM350 1434h178l-227 -1291h635l-25 -143h-813z" />
    <glyph glyph-name="lcommaaccent" unicode="&#x13c;" horiz-adv-x="499" 
d="M250 -227q0 -137 -109 -201q-41 -25 -104 -27l-19 68q47 1 83 23t40 67q-2 -2 -4 -2h-14q-35 2 -60 28q-25 27 -25 61t27 68t79 34t79 -40q27 -39 27 -79zM330 1434h172l-252 -1434h-172z" />
    <glyph glyph-name="Lcaron" unicode="&#x13d;" horiz-adv-x="1042" 
d="M920 1405l-181 -313l-92 30l137 328zM350 1434h178l-227 -1291h635l-25 -143h-813z" />
    <glyph glyph-name="lcaron" unicode="&#x13e;" horiz-adv-x="499" 
d="M811 1405l-180 -313l-92 30l137 328zM330 1434h172l-252 -1434h-172z" />
    <glyph glyph-name="Ldot" unicode="&#x13f;" horiz-adv-x="1042" 
d="M666 720q0 48 31 79q32 31 81 31t81 -32q32 -30 32 -78t-32 -81t-81 -33t-81 33q-31 33 -31 81zM350 1434h178l-227 -1291h635l-25 -143h-813z" />
    <glyph glyph-name="ldot" unicode="&#x140;" horiz-adv-x="741" 
d="M494 720q0 48 31 79q32 31 81 31t81 -32q32 -30 32 -78t-32 -81t-81 -33t-81 33q-31 33 -31 81zM330 1434h172l-252 -1434h-172z" />
    <glyph glyph-name="Lslash" unicode="&#x141;" horiz-adv-x="1093" 
d="M240 516l-129 -72l-56 123l215 121l131 746h179l-113 -637l328 184l55 -123l-414 -231l-84 -484h635l-24 -143h-813z" />
    <glyph glyph-name="lslash" unicode="&#x142;" horiz-adv-x="593" 
d="M219 604l-137 -78l-53 121l219 125l117 662h172l-99 -553l178 100l56 -121l-262 -149l-125 -711h-172z" />
    <glyph glyph-name="Nacute" unicode="&#x143;" horiz-adv-x="1480" 
d="M1196 1745l-393 -213l-45 96l375 248zM1026 0l-551 1167h-4l-207 -1167h-166l252 1434h185q460 -979 552 -1168h5l204 1168h166l-252 -1434h-184z" />
    <glyph glyph-name="nacute" unicode="&#x144;" horiz-adv-x="1114" 
d="M975 1305l-393 -213l-45 96l374 248zM700 991q156 0 239 -88t52 -258l-114 -645h-172l112 639q19 103 -33 157t-144 54t-183 -92t-117 -244l-90 -514h-172l170 967h162l-25 -148q126 172 315 172z" />
    <glyph glyph-name="Ncommaaccent" unicode="&#x145;" horiz-adv-x="1480" 
d="M762 -227q0 -137 -109 -201q-41 -25 -104 -27l-19 68q47 1 83 23t40 67q-2 -2 -4 -2h-14q-35 2 -60 28q-25 27 -25 61t27 68t79 34t79 -40q27 -39 27 -79zM1026 0l-551 1167h-4l-207 -1167h-166l252 1434h185q460 -979 552 -1168h5l204 1168h166l-252 -1434h-184z" />
    <glyph glyph-name="ncommaaccent" unicode="&#x146;" horiz-adv-x="1114" 
d="M565 -227q0 -136 -108 -201q-41 -25 -105 -27l-18 68q47 1 83 23t40 67q-2 -2 -4 -2h-15q-36 2 -60 28q-24 27 -24 61t26 68t79 34t80 -39q26 -40 26 -80zM700 991q156 0 239 -88t52 -258l-114 -645h-172l112 639q19 103 -33 157t-144 54t-183 -92t-117 -244l-90 -514
h-172l170 967h162l-25 -148q126 172 315 172z" />
    <glyph glyph-name="Ncaron" unicode="&#x147;" horiz-adv-x="1480" 
d="M963 1540h-119l-187 244l95 71l161 -198l246 201l82 -84zM1026 0l-551 1167h-4l-207 -1167h-166l252 1434h185q460 -979 552 -1168h5l204 1168h166l-252 -1434h-184z" />
    <glyph glyph-name="ncaron" unicode="&#x148;" horiz-adv-x="1114" 
d="M743 1094h-114l-185 268l93 70l159 -218l244 220l80 -82zM700 991q156 0 239 -88t52 -258l-114 -645h-172l112 639q19 103 -33 157t-144 54t-183 -92t-117 -244l-90 -514h-172l170 967h162l-25 -148q126 172 315 172z" />
    <glyph glyph-name="Eng" unicode="&#x14a;" horiz-adv-x="1480" 
d="M809 -438q-193 0 -295 133l131 112q39 -53 74 -79t88 -25q92 0 150 72t77 176l8 51l-567 1167h-4l-207 -1169h-166l252 1434h185q546 -1127 557 -1147h4l200 1147h166l-264 -1504q-33 -184 -133 -276t-256 -92z" />
    <glyph glyph-name="eng" unicode="&#x14b;" horiz-adv-x="1114" 
d="M817 639q19 103 -33 157t-144 54t-183 -92t-117 -244l-90 -514h-172l170 967h162l-25 -148q126 172 315 172q156 0 239 -88t52 -258l-141 -805q-27 -152 -112 -213t-219 -61t-222 69l94 129q63 -50 131 -50q68 -1 106 38t50 98z" />
    <glyph glyph-name="Omacron" unicode="&#x14c;" horiz-adv-x="1476" 
d="M655 1712h531l-21 -121h-530zM319 604q0 -338 221 -448q76 -37 192 -37q116 1 215 69q193 133 261 406q33 128 33 236q0 340 -220 448q-75 37 -193 37t-216 -69t-162 -174t-98 -232q-33 -126 -33 -236zM724 -25q-284 0 -436 165q-153 165 -153 454q0 359 189 601
q92 119 226 191t286 72t256 -43q214 -87 293 -317q40 -116 40 -272t-48 -312t-140 -276t-226 -191q-135 -72 -287 -72z" />
    <glyph glyph-name="omacron" unicode="&#x14d;" horiz-adv-x="1116" 
d="M414 1270h530l-20 -121h-531zM260 422q0 -211 141 -287q47 -25 121 -25q143 1 240 138q96 137 94 305q0 207 -142 278q-48 25 -121 25t-136 -40t-108 -103q-89 -128 -89 -291zM520 -25q-212 0 -325 122t-113 332t145 386t383 176q200 0 313 -122t111 -314
q0 -106 -35 -211q-74 -218 -266 -318q-97 -50 -213 -51z" />
    <glyph glyph-name="Obreve" unicode="&#x14e;" horiz-adv-x="1476" 
d="M899 1671q72 0 126 45t75 109l135 -41q-33 -94 -122 -161t-215 -67t-203 64t-87 164l135 41q2 -63 43 -109t113 -45zM319 604q0 -338 221 -448q76 -37 192 -37q116 1 215 69q193 133 261 406q33 128 33 236q0 340 -220 448q-75 37 -193 37t-216 -69t-162 -174t-98 -232
q-33 -126 -33 -236zM724 -25q-284 0 -436 165q-153 165 -153 454q0 359 189 601q92 119 226 191t286 72t256 -43q214 -87 293 -317q40 -116 40 -272t-48 -312t-140 -276t-226 -191q-135 -72 -287 -72z" />
    <glyph glyph-name="obreve" unicode="&#x14f;" horiz-adv-x="1116" 
d="M662 1225q72 0 126 45t74 108l135 -41q-33 -95 -121 -161t-216 -66q-126 0 -202 64t-87 163l135 41q2 -63 43 -108t113 -45zM260 422q0 -211 141 -287q47 -25 121 -25q143 1 240 138q96 137 94 305q0 207 -142 278q-48 25 -121 25t-136 -40t-108 -103q-89 -128 -89 -291z
M520 -25q-212 0 -325 122t-113 332t145 386t383 176q200 0 313 -122t111 -314q0 -106 -35 -211q-74 -218 -266 -318q-97 -50 -213 -51z" />
    <glyph glyph-name="Ohungarumlaut" unicode="&#x150;" horiz-adv-x="1476" 
d="M1417 1747l-373 -213l-45 96l355 248zM1012 1747l-373 -213l-45 96l354 248zM319 604q0 -338 221 -448q76 -37 192 -37q116 1 215 69q193 133 261 406q33 128 33 236q0 340 -220 448q-75 37 -193 37t-216 -69t-162 -174t-98 -232q-33 -126 -33 -236zM724 -25
q-284 0 -436 165q-153 165 -153 454q0 359 189 601q92 119 226 191t286 72t256 -43q214 -87 293 -317q40 -116 40 -272t-48 -312t-140 -276t-226 -191q-135 -72 -287 -72z" />
    <glyph glyph-name="ohungarumlaut" unicode="&#x151;" horiz-adv-x="1116" 
d="M1188 1305l-373 -213l-45 96l354 248zM782 1305l-372 -213l-45 96l354 248zM260 422q0 -211 141 -287q47 -25 121 -25q143 1 240 138q96 137 94 305q0 207 -142 278q-48 25 -121 25t-136 -40t-108 -103q-89 -128 -89 -291zM520 -25q-212 0 -325 122t-113 332t145 386
t383 176q200 0 313 -122t111 -314q0 -106 -35 -211q-74 -218 -266 -318q-97 -50 -213 -51z" />
    <glyph glyph-name="OE" unicode="&#x152;" horiz-adv-x="2136" 
d="M326 604q0 -339 217 -448q73 -37 181 -37t194 56q164 107 245 323q37 98 51 184l15 84q39 228 -59 389q-98 160 -320 160q-133 0 -232 -69q-190 -134 -260 -406q-32 -126 -32 -236zM141 594q0 362 190 603q93 120 228 191t309 70q211 0 354 -121q52 -45 89 -112l37 209
h839l-24 -144h-662l-84 -479h619l-27 -143h-618l-93 -525h676l-24 -143h-854l32 184q-25 -39 -65 -75q-147 -134 -385 -134q-104 0 -208 43t-178 123q-151 165 -151 453z" />
    <glyph glyph-name="oe" unicode="&#x153;" horiz-adv-x="1812" 
d="M1349 858q-120 0 -201 -79t-114 -197h543q16 128 -46 202t-182 74zM260 422q0 -211 141 -287q47 -25 121 -25q143 1 240 138q96 137 94 305q0 207 -142 278q-48 25 -121 25t-136 -40t-108 -103q-89 -128 -89 -291zM508 -25q-201 0 -313 122q-113 122 -113 332t145 386
t383 176q129 0 217 -55t136 -148q148 203 381 203t336 -145q88 -126 61 -336q-2 -6 -3 -15t-3 -19t-4 -23h-721q-22 -147 35 -246q56 -99 208 -98q100 0 161 46q60 46 110 126l141 -64q-135 -240 -420 -242q-257 0 -350 199q-146 -199 -387 -199z" />
    <glyph glyph-name="Racute" unicode="&#x154;" horiz-adv-x="1292" 
d="M1065 1745l-393 -213l-45 96l374 248zM782 1290h-280l-90 -518h311q181 0 273 93q91 93 91 210t-78 166q-79 49 -227 49zM1268 1089q0 -185 -117 -304t-297 -144l270 -641h-198l-256 631h-285l-111 -631h-176l252 1434h498q152 0 267 -70q65 -39 109 -108t44 -167z" />
    <glyph glyph-name="racute" unicode="&#x155;" horiz-adv-x="735" 
d="M862 1305l-393 -213l-45 96l375 248zM650 850q-102 0 -194 -93t-114 -235l-92 -522h-172l170 967h162l-27 -152q41 84 125 130t171 46t128 -24l-68 -154q-33 37 -89 37z" />
    <glyph glyph-name="Rcommaaccent" unicode="&#x156;" horiz-adv-x="1292" 
d="M659 -227q0 -136 -108 -201q-41 -25 -105 -27l-18 68q47 1 83 23t40 67q-2 -2 -4 -2h-15q-36 2 -60 28q-52 56 2 129q26 34 79 34t80 -39q26 -40 26 -80zM782 1290h-280l-90 -518h311q181 0 273 93q91 93 91 210t-78 166q-79 49 -227 49zM1268 1089q0 -185 -117 -304
t-297 -144l270 -641h-198l-256 631h-285l-111 -631h-176l252 1434h498q152 0 267 -70q65 -39 109 -108t44 -167z" />
    <glyph glyph-name="rcommaaccent" unicode="&#x157;" horiz-adv-x="735" 
d="M244 -227q0 -137 -109 -201q-41 -25 -104 -27l-19 68q47 1 83 23t40 67q-2 -2 -4 -2h-14q-35 2 -60 28q-53 55 1 129q26 34 79 34t80 -40q27 -39 27 -79zM650 850q-102 0 -194 -93t-114 -235l-92 -522h-172l170 967h162l-27 -152q41 84 125 130t171 46t128 -24l-68 -154
q-33 37 -89 37z" />
    <glyph glyph-name="Rcaron" unicode="&#x158;" horiz-adv-x="1292" 
d="M854 1540h-119l-186 244l94 71l162 -198l246 201l82 -84zM782 1290h-280l-90 -518h311q181 0 273 93q91 93 91 210t-78 166q-79 49 -227 49zM1268 1089q0 -185 -117 -304t-297 -144l270 -641h-198l-256 631h-285l-111 -631h-176l252 1434h498q152 0 267 -70
q65 -39 109 -108t44 -167z" />
    <glyph glyph-name="rcaron" unicode="&#x159;" horiz-adv-x="735" 
d="M606 1094h-114l-185 268l92 70l160 -218l244 220l80 -82zM650 850q-102 0 -194 -93t-114 -235l-92 -522h-172l170 967h162l-27 -152q41 84 125 130t171 46t128 -24l-68 -154q-33 37 -89 37z" />
    <glyph glyph-name="Sacute" unicode="&#x15a;" horiz-adv-x="1275" 
d="M1053 1745l-394 -213l-45 96l375 248zM1153 412q0 -190 -140 -311q-150 -126 -406 -126t-397 133q-126 117 -122 312l174 22q0 -222 182 -296q70 -28 174 -27q170 0 259 78q88 78 88 194t-70 171q-70 54 -215 93q-146 39 -220 73t-122 79q-92 88 -90 240q0 179 140 295
t362 116q223 0 352 -110q130 -110 143 -285l-178 -37q0 131 -79 210q-80 79 -236 79q-156 1 -238 -69t-82 -177t66 -157q66 -51 203 -87q136 -37 215 -71q159 -68 210 -190q27 -62 27 -152z" />
    <glyph glyph-name="sacute" unicode="&#x15b;" horiz-adv-x="935" 
d="M815 1305l-393 -213l-45 96l375 248zM817 285q0 -139 -107 -225q-108 -85 -294 -85q-256 0 -343 160q-32 59 -34 150l162 24q1 -105 61 -153q60 -47 162 -47t162 44q59 44 59 109t-43 96t-180 65q-137 35 -211 101t-74 174q0 137 108 215t272 78q163 -1 260 -71t102 -205
l-158 -39q-8 184 -207 184q-90 0 -147 -38t-57 -104t54 -102q56 -36 156 -59q100 -24 153 -50q103 -50 131 -133q13 -40 13 -89z" />
    <glyph glyph-name="Scircumflex" unicode="&#x15c;" horiz-adv-x="1275" 
d="M776 1843h119l186 -244l-94 -71l-162 198l-245 -200l-82 84zM1153 412q0 -190 -140 -311q-150 -126 -406 -126t-397 133q-126 117 -122 312l174 22q0 -222 182 -296q70 -28 174 -27q170 0 259 78q88 78 88 194t-70 171q-70 54 -215 93q-146 39 -220 73t-122 79
q-92 88 -90 240q0 179 140 295t362 116q223 0 352 -110q130 -110 143 -285l-178 -37q0 131 -79 210q-80 79 -236 79q-156 1 -238 -69t-82 -177t66 -157q66 -51 203 -87q136 -37 215 -71q159 -68 210 -190q27 -62 27 -152z" />
    <glyph glyph-name="scircumflex" unicode="&#x15d;" horiz-adv-x="935" 
d="M551 1421h115l190 -268l-92 -70l-166 217l-244 -219l-80 82zM817 285q0 -139 -107 -225q-108 -85 -294 -85q-256 0 -343 160q-32 59 -34 150l162 24q1 -105 61 -153q60 -47 162 -47t162 44q59 44 59 109t-43 96t-180 65q-137 35 -211 101t-74 174q0 137 108 215t272 78
q163 -1 260 -71t102 -205l-158 -39q-8 184 -207 184q-90 0 -147 -38t-57 -104t54 -102q56 -36 156 -59q100 -24 153 -50q103 -50 131 -133q13 -40 13 -89z" />
    <glyph glyph-name="Scedilla" unicode="&#x15e;" horiz-adv-x="1275" 
d="M510 -190q-36 0 -82 -27l-45 55l86 150q-293 52 -361 283q-22 71 -20 149l174 22q0 -222 182 -296q70 -28 174 -27q170 0 259 78q88 78 88 194t-70 171q-70 54 -215 93q-146 39 -220 73t-122 79q-92 88 -90 240q0 179 140 295t362 116q223 0 352 -110q130 -110 143 -285
l-178 -37q0 131 -79 210q-80 79 -236 79t-238 -70t-82 -176t66 -157t203 -87q136 -37 215 -71q159 -68 210 -190q27 -62 27 -152q0 -190 -140 -311q-150 -126 -395 -126h-30q-14 0 -29 2l-51 -94q22 17 69 17t87 -42t41 -125t-63 -136t-143 -53q-124 -1 -175 59l63 78
q39 -39 92 -39t80 26t27 70q0 72 -76 72z" />
    <glyph glyph-name="scedilla" unicode="&#x15f;" horiz-adv-x="935" 
d="M817 285q0 -139 -107 -225q-108 -85 -294 -85h-19q-8 0 -18 2l-51 -94q22 17 69 17t87 -42t40 -125t-63 -136t-142 -53q-122 -1 -176 59l64 78q39 -39 92 -39t80 26t27 70q0 72 -76 72q-36 0 -82 -27l-45 55l86 150q-104 22 -175 90t-75 207l162 24q1 -105 61 -153
q60 -47 162 -47t162 44q59 44 59 109t-43 96t-180 65q-137 35 -211 101t-74 174q0 137 108 215t272 78q163 -1 260 -71t102 -205l-158 -39q-8 184 -207 184q-90 0 -147 -38t-57 -104t54 -102q56 -36 156 -59q100 -24 153 -50q103 -50 131 -133q13 -40 13 -89z" />
    <glyph glyph-name="Scaron" unicode="&#x160;" horiz-adv-x="1275" 
d="M858 1540h-119l-186 244l94 71l162 -198l246 201l82 -84zM1153 412q0 -190 -140 -311q-150 -126 -406 -126t-397 133q-126 117 -122 312l174 22q0 -222 182 -296q70 -28 174 -27q170 0 259 78q88 78 88 194t-70 171q-70 54 -215 93q-146 39 -220 73t-122 79
q-92 88 -90 240q0 179 140 295t362 116q223 0 352 -110q130 -110 143 -285l-178 -37q0 131 -79 210q-80 79 -236 79q-156 1 -238 -69t-82 -177t66 -157q66 -51 203 -87q136 -37 215 -71q159 -68 210 -190q27 -62 27 -152z" />
    <glyph glyph-name="scaron" unicode="&#x161;" horiz-adv-x="935" 
d="M608 1094h-114l-185 268l92 70l160 -218l244 220l80 -82zM817 285q0 -139 -107 -225q-108 -85 -294 -85q-256 0 -343 160q-32 59 -34 150l162 24q1 -105 61 -153q60 -47 162 -47t162 44q59 44 59 109t-43 96t-180 65q-137 35 -211 101t-74 174q0 137 108 215t272 78
q163 -1 260 -71t102 -205l-158 -39q-8 184 -207 184q-90 0 -147 -38t-57 -104t54 -102q56 -36 156 -59q100 -24 153 -50q103 -50 131 -133q13 -40 13 -89z" />
    <glyph glyph-name="Tcommaaccent" unicode="&#x162;" horiz-adv-x="1120" 
d="M553 -227q0 -137 -109 -201q-41 -25 -104 -27l-18 68q46 1 82 23t40 67q-2 -2 -4 -2h-14q-36 2 -60 28q-24 27 -24 61t26 68t78 34t80 -40q27 -39 27 -79zM213 1434h1026l-25 -144h-423l-228 -1290h-178l227 1290h-424z" />
    <glyph glyph-name="tcommaaccent" unicode="&#x163;" horiz-adv-x="681" 
d="M365 -227q0 -137 -109 -201q-41 -25 -104 -27l-19 68q47 1 83 23t40 67q-2 -2 -4 -2h-14q-35 2 -60 28q-53 55 1 129q26 34 79 34t80 -40q27 -39 27 -79zM408 119q60 0 108 33l29 -144q-67 -31 -152 -32q-145 -2 -198 71t-35 180l106 609h-164l23 131h164l49 278l186 76
l-63 -354h225l-22 -131h-226l-106 -607q-18 -111 76 -110z" />
    <glyph glyph-name="Tcaron" unicode="&#x164;" horiz-adv-x="1120" 
d="M803 1540h-119l-186 244l94 71l162 -198l245 201l82 -84zM213 1434h1026l-25 -144h-423l-228 -1290h-178l227 1290h-424z" />
    <glyph glyph-name="tcaron" unicode="&#x165;" horiz-adv-x="681" 
d="M856 1405l-180 -313l-92 30l137 328zM408 119q60 0 108 33l29 -144q-67 -31 -152 -32q-145 -2 -198 71t-35 180l106 609h-164l23 131h164l49 278l186 76l-63 -354h225l-22 -131h-226l-106 -607q-18 -111 76 -110z" />
    <glyph glyph-name="Tbar" unicode="&#x166;" horiz-adv-x="1120" 
d="M213 1434h1026l-25 -144h-423l-72 -409h282l-24 -140h-283l-131 -741h-178l131 741h-283l25 140h283l71 409h-424z" />
    <glyph glyph-name="tbar" unicode="&#x167;" horiz-adv-x="681" 
d="M545 8q-67 -31 -152 -32q-145 -2 -198 71t-35 180l49 279h-164l23 123h161l37 207h-164l23 131h164l49 278l186 76l-63 -354h225l-22 -131h-226l-37 -207h217l-22 -123h-217l-47 -277q-18 -111 76 -110q60 0 108 33z" />
    <glyph glyph-name="Utilde" unicode="&#x168;" horiz-adv-x="1390" 
d="M745 1673q-82 0 -137 -92l-82 82q44 66 129 109q44 20 112 20t143 -52q30 -20 58 -36t62 -16q83 0 135 94l82 -82q-45 -73 -129 -110q-43 -19 -109 -19t-146 51q-31 18 -57 34t-61 17zM628 119q100 0 173 34q198 94 241 355l164 926h178l-163 -924q-49 -279 -195 -407
t-406 -128q-261 0 -374 143q-114 143 -70 392l164 924h178l-164 -926q-46 -261 114 -354q60 -35 160 -35z" />
    <glyph glyph-name="utilde" unicode="&#x169;" horiz-adv-x="1120" 
d="M526 1235q-82 0 -137 -92l-82 82q45 68 129 108q44 21 110 21t145 -52q30 -20 58 -36t62 -17q83 0 135 94l82 -81q-45 -73 -129 -110q-43 -19 -109 -19t-146 51q-30 18 -56 34t-62 17zM297 328q-19 -106 34 -158q54 -53 147 -53t182 92q90 92 116 244l90 514h172
l-170 -967h-161l24 147q-124 -170 -315 -172q-154 0 -239 88t-54 259l115 645h172z" />
    <glyph glyph-name="Umacron" unicode="&#x16a;" horiz-adv-x="1390" 
d="M635 1712h530l-20 -121h-531zM628 119q100 0 173 34q198 94 241 355l164 926h178l-163 -924q-49 -279 -195 -407t-406 -128q-261 0 -374 143q-114 143 -70 392l164 924h178l-164 -926q-46 -261 114 -354q60 -35 160 -35z" />
    <glyph glyph-name="umacron" unicode="&#x16b;" horiz-adv-x="1120" 
d="M422 1270h530l-20 -121h-531zM297 328q-19 -106 34 -158q54 -53 147 -53t182 92q90 92 116 244l90 514h172l-170 -967h-161l24 147q-124 -170 -315 -172q-154 0 -239 88t-54 259l115 645h172z" />
    <glyph glyph-name="Ubreve" unicode="&#x16c;" horiz-adv-x="1390" 
d="M879 1671q72 0 126 45t74 109l135 -41q-34 -94 -122 -161t-214 -67t-204 64q-76 64 -86 164l135 41q2 -63 43 -109t113 -45zM628 119q100 0 173 34q198 94 241 355l164 926h178l-163 -924q-49 -279 -195 -407t-406 -128q-261 0 -374 143q-114 143 -70 392l164 924h178
l-164 -926q-46 -261 114 -354q60 -35 160 -35z" />
    <glyph glyph-name="ubreve" unicode="&#x16d;" horiz-adv-x="1120" 
d="M662 1225q72 0 126 45t74 108l135 -41q-33 -95 -121 -161t-216 -66q-126 0 -202 64t-87 163l135 41q2 -63 43 -108t113 -45zM297 328q-19 -106 34 -158q54 -53 147 -53t182 92q90 92 116 244l90 514h172l-170 -967h-161l24 147q-124 -170 -315 -172q-154 0 -239 88
t-54 259l115 645h172z" />
    <glyph glyph-name="Uring" unicode="&#x16e;" horiz-adv-x="1390" 
d="M690 1702q0 82 58 139t150 57q91 0 141 -48q51 -48 51 -130t-60 -141t-149 -59q-90 0 -141 50q-50 50 -50 132zM788 1706q0 -43 26 -72q26 -28 70 -28t76 34t31 76q0 43 -24 70q-25 26 -70 26t-77 -32t-32 -74zM628 119q100 0 173 34q198 94 241 355l164 926h178
l-163 -924q-49 -279 -195 -407t-406 -128q-261 0 -374 143q-114 143 -70 392l164 924h178l-164 -926q-46 -261 114 -354q60 -35 160 -35z" />
    <glyph glyph-name="uring" unicode="&#x16f;" horiz-adv-x="1120" 
d="M473 1259q0 81 58 139q57 58 149 58t142 -48t50 -130t-59 -141t-149 -59t-141 49q-50 50 -50 132zM667 1163q43 0 75 34t32 77q0 44 -24 70t-70 26q-45 0 -77 -32t-32 -74q0 -43 26 -72t70 -29zM297 328q-19 -106 34 -158q54 -53 147 -53t182 92q90 92 116 244l90 514
h172l-170 -967h-161l24 147q-124 -170 -315 -172q-154 0 -239 88t-54 259l115 645h172z" />
    <glyph glyph-name="Uhungarumlaut" unicode="&#x170;" horiz-adv-x="1390" 
d="M1407 1747l-373 -213l-45 96l354 248zM1001 1747l-372 -213l-45 96l354 248zM628 119q100 0 173 34q198 94 241 355l164 926h178l-163 -924q-49 -279 -195 -407t-406 -128q-261 0 -374 143q-114 143 -70 392l164 924h178l-164 -926q-46 -261 114 -354q60 -35 160 -35z
" />
    <glyph glyph-name="uhungarumlaut" unicode="&#x171;" horiz-adv-x="1120" 
d="M1157 1305l-373 -213l-45 96l355 248zM752 1305l-373 -213l-45 96l354 248zM297 328q-19 -106 34 -158q54 -53 147 -53t182 92q90 92 116 244l90 514h172l-170 -967h-161l24 147q-124 -170 -315 -172q-154 0 -239 88t-54 259l115 645h172z" />
    <glyph glyph-name="Uogonek" unicode="&#x172;" horiz-adv-x="1390" 
d="M628 119q100 0 173 34q198 94 241 355l164 926h178l-163 -924q-66 -365 -312 -485q-137 -66 -211 -126q-73 -61 -73 -120q0 -31 19 -51t54 -21q63 0 111 66l59 -74q-81 -98 -202 -98q-174 0 -177 153q0 133 148 221q-277 0 -391 143t-70 392l164 924h178l-164 -926
q-46 -261 114 -354q60 -35 160 -35z" />
    <glyph glyph-name="uogonek" unicode="&#x173;" horiz-adv-x="1120" 
d="M676 -399q-176 1 -176 159q0 82 62 142t145 98l24 147q-124 -170 -315 -172q-154 0 -239 88t-54 259l115 645h172l-113 -639q-19 -106 34 -158q54 -53 147 -53t182 92q90 92 116 244l90 514h172l-170 -967q-233 -131 -233 -211t74 -82q63 0 110 66l60 -74
q-81 -98 -203 -98z" />
    <glyph glyph-name="Wcircumflex" unicode="&#x174;" horiz-adv-x="1861" 
d="M1100 1843h119l186 -244l-94 -71l-162 198l-246 -200l-82 84zM1180 1434q90 -970 100 -1203h4q50 122 110 256q60 135 166 373t261 574h172l-656 -1434h-176q-97 976 -104 1176h-4q-80 -191 -173 -396q-94 -204 -166 -366t-190 -414h-176l-147 1434h172
q90 -932 100 -1203h4q159 381 537 1203h166z" />
    <glyph glyph-name="wcircumflex" unicode="&#x175;" horiz-adv-x="1482" 
d="M834 1421h114l191 -268l-92 -70l-166 217l-244 -219l-80 82zM379 182h4q14 35 48 107t74 160t83 179t79 167t58 123l25 49h157q25 -182 45 -342l17 -136q8 -68 15 -127t12 -105t8 -71h4q23 59 67 154l137 297q72 154 158 330h164l-481 -967h-166q-25 182 -45 336l-17 131
q-8 66 -20 162t-12 123q-148 -307 -230 -482q-82 -176 -106 -223l-23 -47h-166l-151 967h172q25 -180 45 -338l16 -135q29 -247 29 -312z" />
    <glyph glyph-name="Ycircumflex" unicode="&#x176;" horiz-adv-x="1265" 
d="M784 1843h119l187 -244l-95 -71l-161 198l-246 -200l-82 84zM567 629l-379 805h193l297 -646l528 646h203l-664 -805l-110 -629h-178z" />
    <glyph glyph-name="ycircumflex" unicode="&#x177;" horiz-adv-x="983" 
d="M571 1421h115l191 -268l-93 -70l-166 217l-243 -219l-80 82zM287 967q53 -251 155 -760h4q33 82 416 760h174l-671 -1200q-66 -119 -135 -162t-137 -43q-124 0 -181 39l76 135q46 -29 84 -29q91 0 161 131l95 178l-211 951h170z" />
    <glyph glyph-name="Ydieresis" unicode="&#x178;" horiz-adv-x="1265" 
d="M1004 1786q48 0 78 -30t30 -76t-31 -78t-77 -31q-46 -1 -78 31q-31 32 -31 78t31 76t78 30zM610 1571q-48 -1 -78 31t-30 78t30 76q31 30 78 30t78 -30t31 -76t-31 -78t-78 -31zM567 629l-379 805h193l297 -646l528 646h203l-664 -805l-110 -629h-178z" />
    <glyph glyph-name="Zacute" unicode="&#x179;" horiz-adv-x="1263" 
d="M1106 1745l-393 -213l-45 96l374 248zM287 1434h1046l-20 -125l-1055 -1168h840l-25 -141h-1067l21 121l1056 1169h-821z" />
    <glyph glyph-name="zacute" unicode="&#x17a;" horiz-adv-x="907" 
d="M827 1305l-393 -213l-45 96l375 248zM182 967h727l-18 -105l-653 -731h518l-23 -131h-737l20 111l648 725h-504z" />
    <glyph glyph-name="Zdotaccent" unicode="&#x17b;" horiz-adv-x="1263" 
d="M729 1678q0 48 32 80t83 32t83 -32q31 -32 31 -80t-32 -80t-82 -32q-51 0 -83 32t-32 80zM287 1434h1046l-20 -125l-1055 -1168h840l-25 -141h-1067l21 121l1056 1169h-821z" />
    <glyph glyph-name="zdotaccent" unicode="&#x17c;" horiz-adv-x="907" 
d="M469 1238q0 48 32 79t81 31t81 -31q31 -31 31 -79t-32 -81t-80 -33q-49 0 -81 33t-32 81zM182 967h727l-18 -105l-653 -731h518l-23 -131h-737l20 111l648 725h-504z" />
    <glyph glyph-name="florin" unicode="&#x192;" horiz-adv-x="974" 
d="M113 -307q-72 -1 -131 21t-86 46l98 131q47 -47 115 -48q130 -2 163 157l164 725h-153l22 127h162l70 303q69 303 329 303q125 0 213 -67l-98 -131q-47 47 -118 48t-109 -45t-56 -124l-65 -287h244l-23 -127h-250l-166 -729q-32 -154 -120 -228q-88 -75 -205 -75z" />
    <glyph glyph-name="Scommaaccent" unicode="&#x218;" horiz-adv-x="1275" 
d="M668 -227q0 -137 -109 -201q-41 -25 -104 -27l-19 68q47 1 83 23t40 67q-2 -2 -4 -2h-14q-35 2 -60 28q-53 55 1 129q26 34 79 34t80 -40q27 -39 27 -79zM1153 412q0 -190 -140 -311q-150 -126 -406 -126t-397 133q-126 117 -122 312l174 22q0 -222 182 -296
q70 -28 174 -27q170 0 259 78q88 78 88 194t-70 171q-70 54 -215 93q-146 39 -220 73t-122 79q-92 88 -90 240q0 179 140 295t362 116q223 0 352 -110q130 -110 143 -285l-178 -37q0 131 -79 210q-80 79 -236 79q-156 1 -238 -69t-82 -177t66 -157q66 -51 203 -87
q136 -37 215 -71q159 -68 210 -190q27 -62 27 -152z" />
    <glyph glyph-name="scommaaccent" unicode="&#x219;" horiz-adv-x="935" 
d="M485 -227q0 -136 -108 -201q-41 -25 -105 -27l-18 68q47 1 83 23t40 67q-2 -2 -4 -2h-15q-36 2 -60 28q-24 27 -24 61t26 68t79 34t80 -39q26 -40 26 -80zM817 285q0 -139 -107 -225q-108 -85 -294 -85q-256 0 -343 160q-32 59 -34 150l162 24q1 -105 61 -153
q60 -47 162 -47t162 44q59 44 59 109t-43 96t-180 65q-137 35 -211 101t-74 174q0 137 108 215t272 78q163 -1 260 -71t102 -205l-158 -39q-8 184 -207 184q-90 0 -147 -38t-57 -104t54 -102q56 -36 156 -59q100 -24 153 -50q103 -50 131 -133q13 -40 13 -89z" />
    <glyph glyph-name="dotlessj" unicode="&#x237;" horiz-adv-x="503" 
d="M-233 -236q63 -50 132 -50q69 -1 107 43t51 114l193 1096h172l-193 -1106q-29 -162 -115 -229q-86 -66 -218 -66q-133 0 -224 69z" />
    <glyph glyph-name="circumflex" unicode="&#x2c6;" 
d="M719 1421h115l190 -268l-92 -70l-166 217l-244 -219l-80 82z" />
    <glyph glyph-name="caron" unicode="&#x2c7;" 
d="M778 1094h-114l-185 268l92 70l160 -218l244 220l80 -82z" />
    <glyph glyph-name="breve" unicode="&#x2d8;" 
d="M742 1225q72 0 125 45q54 45 75 108l135 -41q-33 -95 -122 -161t-215 -66t-202 64t-87 163l135 41q2 -63 43 -108t113 -45z" />
    <glyph glyph-name="dotaccent" unicode="&#x2d9;" 
d="M745 1124q-49 0 -81 33t-31 81q0 48 32 79q33 31 81 31t80 -31t32 -79t-32 -81t-81 -33z" />
    <glyph glyph-name="ring" unicode="&#x2da;" 
d="M553 1259q0 81 58 139q57 58 149 58t142 -48t50 -130t-59 -141t-149 -59t-141 49q-50 50 -50 132zM854 1274q0 44 -25 70t-69 26t-77 -32q-32 -32 -32 -74q0 -43 26 -72q25 -29 69 -29t76 34t32 77z" />
    <glyph glyph-name="ogonek" unicode="&#x2db;" 
d="M293 -263q0 60 17 97q32 71 112 120q37 24 78 46h172q-120 -66 -182 -117t-62 -104q0 -31 19 -51t55 -21q63 0 110 66l60 -74q-81 -98 -203 -98q-82 0 -129 38t-47 98z" />
    <glyph glyph-name="tilde" unicode="&#x2dc;" 
d="M606 1235q-82 0 -137 -92l-82 82q45 69 129 108q43 21 109 21t146 -52q29 -20 57 -36t63 -17q83 0 135 94l82 -81q-45 -73 -129 -110q-43 -19 -109 -19t-146 51q-30 18 -56 34t-62 17z" />
    <glyph glyph-name="hungarumlaut" unicode="&#x2dd;" 
d="M1153 1305l-373 -213l-45 96l355 248zM748 1305l-373 -213l-45 96l354 248z" />
    <glyph glyph-name="uni0312" unicode="&#x312;" 
d="M649 1215q0 134 109 198q41 25 104 27l19 -68q-47 0 -84 -22t-41 -68q6 2 30 1t50 -27q53 -55 -1 -129q-26 -33 -82 -33t-80 41t-24 80z" />
    <glyph glyph-name="pi" unicode="&#x3c0;" horiz-adv-x="1171" 
d="M930 113q30 0 69 26l19 -137q-52 -27 -114 -27q-62 -1 -104 11q-143 39 -106 247l107 603h-357l-147 -836h-158l148 836h-133l22 131h938l-22 -131h-131l-109 -605q-14 -99 36 -114q12 -4 42 -4z" />
    <glyph glyph-name="pi" unicode="&#x3d6;" horiz-adv-x="1171" 
d="M930 113q30 0 69 26l19 -137q-52 -27 -114 -27q-62 -1 -104 11q-143 39 -106 247l107 603h-357l-147 -836h-158l148 836h-133l22 131h938l-22 -131h-131l-109 -605q-14 -99 36 -114q12 -4 42 -4z" />
    <glyph glyph-name="Wgrave" unicode="&#x1e80;" horiz-adv-x="1861" 
d="M909 1755l103 121l299 -258l-70 -84zM1180 1434q90 -970 100 -1203h4q50 122 110 256q60 135 166 373t261 574h172l-656 -1434h-176q-97 976 -104 1176h-4q-80 -191 -173 -396q-94 -204 -166 -366t-190 -414h-176l-147 1434h172q90 -932 100 -1203h4q159 381 537 1203
h166z" />
    <glyph glyph-name="wgrave" unicode="&#x1e81;" horiz-adv-x="1482" 
d="M639 1313l102 121l299 -258l-69 -84zM379 182h4q14 35 48 107t74 160t83 179t79 167t58 123l25 49h157q25 -182 45 -342l17 -136q8 -68 15 -127t12 -105t8 -71h4q23 59 67 154l137 297q72 154 158 330h164l-481 -967h-166q-25 182 -45 336l-17 131q-8 66 -20 162t-12 123
q-148 -307 -230 -482q-82 -176 -106 -223l-23 -47h-166l-151 967h172q25 -180 45 -338l16 -135q29 -247 29 -312z" />
    <glyph glyph-name="Wacute" unicode="&#x1e82;" horiz-adv-x="1861" 
d="M1378 1745l-393 -213l-45 96l375 248zM1180 1434q90 -970 100 -1203h4q50 122 110 256q60 135 166 373t261 574h172l-656 -1434h-176q-97 976 -104 1176h-4q-80 -191 -173 -396q-94 -204 -166 -366t-190 -414h-176l-147 1434h172q90 -932 100 -1203h4q159 381 537 1203
h166z" />
    <glyph glyph-name="wacute" unicode="&#x1e83;" horiz-adv-x="1482" 
d="M1108 1305l-393 -213l-45 96l374 248zM379 182h4q14 35 48 107t74 160t83 179t79 167t58 123l25 49h157q25 -182 45 -342l17 -136q8 -68 15 -127t12 -105t8 -71h4q23 59 67 154l137 297q72 154 158 330h164l-481 -967h-166q-25 182 -45 336l-17 131q-8 66 -20 162
t-12 123q-148 -307 -230 -482q-82 -176 -106 -223l-23 -47h-166l-151 967h172q25 -180 45 -338l16 -135q29 -247 29 -312z" />
    <glyph glyph-name="Wdieresis" unicode="&#x1e84;" horiz-adv-x="1861" 
d="M1323 1571q-47 -1 -78 31t-31 78t31 76t78 30t78 -30t31 -76t-31 -78t-78 -31zM930 1571q-47 -1 -78 31t-31 78t31 76t78 30t78 -30q30 -30 30 -76t-30 -78t-78 -31zM1180 1434q90 -970 100 -1203h4q50 122 110 256q60 135 166 373t261 574h172l-656 -1434h-176
q-97 976 -104 1176h-4q-80 -191 -173 -396q-94 -204 -166 -366t-190 -414h-176l-147 1434h172q90 -932 100 -1203h4q159 381 537 1203h166z" />
    <glyph glyph-name="wdieresis" unicode="&#x1e85;" horiz-adv-x="1482" 
d="M944 1234q0 46 31 76t78 30t77 -30t31 -76q0 -46 -31 -78q-32 -32 -78 -32t-77 32t-31 78zM659 1124q-47 0 -77 32t-31 78q0 46 31 76q32 30 78 30t77 -30t31 -76t-31 -78t-78 -32zM379 182h4q14 35 48 107t74 160t83 179t79 167t58 123l25 49h157q25 -182 45 -342
l17 -136q8 -68 15 -127t12 -105t8 -71h4q23 59 67 154l137 297q72 154 158 330h164l-481 -967h-166q-25 182 -45 336l-17 131q-8 66 -20 162t-12 123q-148 -307 -230 -482q-82 -176 -106 -223l-23 -47h-166l-151 967h172q25 -180 45 -338l16 -135q29 -247 29 -312z" />
    <glyph glyph-name="figuredash" unicode="&#x2012;" 
d="M154 657h983l-25 -137h-983z" />
    <glyph glyph-name="endash" unicode="&#x2013;" horiz-adv-x="1024" 
d="M154 657h778l-25 -137h-778z" />
    <glyph glyph-name="emdash" unicode="&#x2014;" horiz-adv-x="1781" 
d="M154 657h1536l-25 -137h-1536z" />
    <glyph glyph-name="uni2015" unicode="&#x2015;" horiz-adv-x="2457" 
d="M2365 657l-24 -137h-2212l25 137h2211z" />
    <glyph glyph-name="doublebar" unicode="&#x2016;" horiz-adv-x="837" 
d="M694 1632h150l-348 -1978h-150zM395 1632h150l-348 -1978h-150z" />
    <glyph glyph-name="quoteleft" unicode="&#x2018;" horiz-adv-x="442" 
d="M342 1022q-127 0 -127 154q0 107 61 191t191 91l22 -82q-53 0 -99 -33t-50 -96q8 2 36 2q28 -1 58 -29q29 -28 29 -74t-34 -85t-87 -39z" />
    <glyph glyph-name="quoteright" unicode="&#x2019;" horiz-adv-x="442" 
d="M367 1458q127 0 127 -153q0 -107 -62 -191t-190 -92l-23 82q53 0 99 33t51 96q-8 -2 -37 -2t-58 29q-28 28 -28 74t34 85t87 39z" />
    <glyph glyph-name="quotesinglbase" unicode="&#x201a;" horiz-adv-x="450" 
d="M156 219q127 0 127 -153q0 -107 -62 -191t-190 -92l-23 82q53 0 100 33q46 33 50 96q-2 -2 -6 -2h-17q-43 0 -72 28t-29 75q0 46 35 85q34 39 87 39z" />
    <glyph glyph-name="reversequoteleft" unicode="&#x201b;" horiz-adv-x="428" 
d="M265 1399q36 59 102 59q67 0 94 -33t27 -81t-36 -80q-34 -33 -83 -33q-16 0 -25 2q-10 -59 22 -92t68 -37l-39 -80q-128 21 -157 164q-9 40 -9 96t36 115z" />
    <glyph glyph-name="quotedblleft" unicode="&#x201c;" horiz-adv-x="763" 
d="M664 1022q-127 0 -127 154q0 107 61 191t190 91l23 -82q-53 0 -99 -33t-50 -96q8 2 36 2q28 -1 58 -29q28 -28 28 -74t-34 -85t-86 -39zM342 1022q-127 0 -127 154q0 107 61 191t191 91l22 -82q-53 0 -99 -33t-50 -96q8 2 36 2q28 -1 58 -29q29 -28 29 -74t-34 -85
t-87 -39z" />
    <glyph glyph-name="quotedblright" unicode="&#x201d;" horiz-adv-x="763" 
d="M688 1458q127 0 127 -153q0 -108 -61 -192t-191 -91l-22 82q53 0 99 33t50 96q-8 -2 -36 -2t-58 29q-29 28 -29 74t34 85t87 39zM367 1458q127 0 127 -153q0 -107 -62 -191t-190 -92l-23 82q53 0 99 33t51 96q-8 -2 -37 -2t-58 29q-28 28 -28 74t34 85t87 39z" />
    <glyph glyph-name="quotedblbase" unicode="&#x201e;" horiz-adv-x="770" 
d="M477 219q127 0 127 -153q0 -108 -61 -192t-191 -91l-22 82q53 0 99 33t50 96q-2 -2 -6 -2h-16q-43 0 -72 28t-29 75q0 46 34 85t87 39zM156 219q127 0 127 -153q0 -107 -62 -191t-190 -92l-23 82q53 0 100 33q46 33 50 96q-2 -2 -6 -2h-17q-43 0 -72 28t-29 75
q0 46 35 85q34 39 87 39z" />
    <glyph glyph-name="reversequotedblleft" unicode="&#x201f;" horiz-adv-x="749" 
d="M551 1262q0 131 79 179q28 17 76 17t76 -33q27 -33 27 -81t-35 -80q-35 -33 -84 -33q-16 0 -24 2q-10 -59 22 -92t68 -37l-39 -80q-125 20 -158 164q-8 39 -8 74zM265 1399q36 59 102 59q67 0 94 -33t27 -81t-36 -80q-34 -33 -83 -33q-16 0 -25 2q-10 -59 22 -92t68 -37
l-39 -80q-128 21 -157 164q-9 40 -9 96t36 115z" />
    <glyph glyph-name="dagger" unicode="&#x2020;" horiz-adv-x="972" 
d="M150 985h342l77 449h166l-78 -449h342l-26 -145h-342l-191 -1082h-166l191 1082h-342z" />
    <glyph glyph-name="daggerdbl" unicode="&#x2021;" horiz-adv-x="972" 
d="M45 389h342l82 467h-342l25 145h342l75 433h166l-76 -433h342l-24 -145h-342l-82 -467h342l-27 -145h-342l-86 -486h-166l86 486h-342z" />
    <glyph glyph-name="bullet" unicode="&#x2022;" horiz-adv-x="757" 
d="M655 668q-1 -102 -69 -169t-176 -67t-178 67q-68 67 -68 169t68 171q68 68 178 68t177 -68q68 -69 68 -171z" />
    <glyph glyph-name="ellipsis" unicode="&#x2026;" horiz-adv-x="1622" 
d="M629 97q0 48 31 80q32 32 83 32t83 -32t32 -80t-32 -80q-32 -31 -83 -31t-83 31q-31 32 -31 80zM1184 97q0 48 31 80q32 32 83 32t83 -32t32 -80t-32 -80q-32 -31 -83 -31t-83 31q-31 32 -31 80zM74 97q0 48 31 80q32 32 83 32t83 -32t32 -80t-32 -80q-32 -31 -83 -31
t-83 31q-31 32 -31 80z" />
    <glyph glyph-name="perthousand" unicode="&#x2030;" horiz-adv-x="2523" 
d="M1493 424q0 76 -39 125q-38 49 -102 49q-111 0 -169 -91q-57 -91 -59 -228q0 -85 39 -135t103 -50t103 26q124 81 124 304zM1334 717q306 0 306 -307q0 -70 -22 -148q-47 -164 -181 -246q-69 -41 -155 -41q-229 0 -288 183q-17 55 -17 126t22 148q49 166 181 244
q68 40 154 41zM692 1140q0 76 -39 126t-102 49q-111 1 -169 -91t-58 -204q0 -210 151 -209q53 0 93 26q124 81 124 303zM534 1434q232 0 288 -183q39 -125 -8 -281q-46 -156 -178 -237q-69 -41 -155 -41q-154 0 -228 82q-75 82 -77 221q0 76 23 154q49 167 181 245
q69 40 154 40zM262 -25l1153 1483h160l-1153 -1483h-160zM2275 424q0 76 -39 125t-102 49q-109 0 -168 -92t-59 -202q0 -210 151 -210q53 0 93 26q124 81 124 304zM2117 717q232 0 288 -182q39 -125 -8 -282q-46 -157 -178 -237q-69 -41 -155 -41q-154 0 -228 82
q-75 82 -77 222q0 76 23 153q49 166 181 244q69 40 154 41z" />
    <glyph glyph-name="guilsinglleft" unicode="&#x2039;" horiz-adv-x="602" 
d="M78 535l420 423l94 -88l-328 -350l203 -354l-111 -76z" />
    <glyph glyph-name="guilsinglright" unicode="&#x203a;" horiz-adv-x="604" 
d="M541 514l-420 -424l-94 88l327 350l-202 355l110 75z" />
    <glyph glyph-name="fraction" unicode="&#x2044;" horiz-adv-x="524" 
d="M-354 -25l1153 1483h159l-1153 -1483h-159z" />
    <glyph glyph-name="uni2070" unicode="&#x2070;" horiz-adv-x="813" 
d="M536 1333q-48 0 -88 -41t-76 -126t-36 -211q0 -125 63 -171q25 -18 75 -18t90 42t76 127t36 210t-65 170q-27 18 -75 18zM549 1450q145 0 210 -83t64 -224q0 -198 -82 -332q-97 -162 -278 -162q-143 0 -209 82t-66 250t82 305q98 164 279 164z" />
    <glyph glyph-name="uni2074" unicode="&#x2074;" horiz-adv-x="757" 
d="M514 940l61 352h-2l-297 -352h238zM141 940l414 490h182l-86 -490h129l-41 -111h-108l-29 -165h-137l29 165h-371z" />
    <glyph glyph-name="uni2075" unicode="&#x2075;" horiz-adv-x="731" 
d="M675 1106q60 -68 60 -174t-85 -194q-85 -89 -218 -89q-132 0 -201 58q-68 58 -73 141l135 35q2 -49 36 -84q33 -35 99 -35t114 48t48 116t-33 101q-33 34 -92 34q-90 0 -141 -72l-119 23l121 416h454l-39 -117h-329l-60 -195q54 54 140 56q123 0 183 -68z" />
    <glyph glyph-name="uni2076" unicode="&#x2076;" horiz-adv-x="757" 
d="M625 920q-1 142 -131 141q-64 0 -115 -44q-51 -45 -51 -113t34 -106t101 -38q66 0 114 44t48 116zM560 1337q-54 1 -93 -21q-106 -59 -141 -239q24 35 76 65t118 30q120 -1 184 -68q64 -66 64 -175q0 -110 -83 -196t-218 -86t-209 73t-74 254t86 315q102 161 287 161
q111 0 174 -50t74 -132l-135 -21q-4 35 -30 63t-80 27z" />
    <glyph glyph-name="uni2077" unicode="&#x2077;" horiz-adv-x="663" 
d="M246 1430h532l-18 -107q-139 -145 -201 -240q-138 -208 -182 -419h-148q31 190 139 368q107 178 222 281h-389z" />
    <glyph glyph-name="uni2078" unicode="&#x2078;" horiz-adv-x="753" 
d="M299 877q-1 -115 145 -115q72 0 114 38t42 93t-41 84t-105 29t-109 -36q-46 -36 -46 -93zM381 1223q0 -51 34 -78t91 -27t96 33t39 84t-36 77t-90 26t-94 -32t-40 -83zM156 855q0 81 53 140t137 76q-47 18 -77 58q-29 41 -29 91q2 153 164 212q52 18 118 18
q117 0 188 -59q70 -59 70 -139t-48 -129q-48 -50 -116 -66q54 -19 92 -63t38 -99q-1 -105 -85 -175q-83 -70 -222 -70t-211 62t-72 143z" />
    <glyph glyph-name="uni2079" unicode="&#x2079;" horiz-adv-x="768" 
d="M344 1178q0 -142 130 -142q64 0 116 44q51 44 51 114t-35 108q-34 40 -100 40t-114 -46t-48 -118zM409 760q178 0 234 260q-23 -35 -76 -65q-53 -29 -119 -29q-119 1 -183 67t-64 175q0 110 83 196t217 86q285 0 283 -315q0 -194 -86 -327q-102 -161 -286 -161
q-111 0 -174 50t-74 132l135 21q4 -34 30 -62t80 -28z" />
    <glyph glyph-name="uni207A" unicode="&#x207a;" horiz-adv-x="759" 
d="M195 1133h233l41 235h129l-41 -235h234l-23 -129h-233l-43 -242h-130l44 242h-234z" />
    <glyph glyph-name="uni207B" unicode="&#x207b;" horiz-adv-x="776" 
d="M215 1133h571l-22 -129h-571z" />
    <glyph glyph-name="uni207C" unicode="&#x207c;" horiz-adv-x="776" 
d="M195 1008h571l-23 -127h-571zM240 1260h571l-23 -127h-571z" />
    <glyph glyph-name="uni207D" unicode="&#x207d;" horiz-adv-x="460" 
d="M188 940q0 197 102 346q102 150 232 207l64 -72q-127 -80 -194 -206t-66 -277q0 -199 112 -320l-80 -53q-78 59 -124 163t-46 212z" />
    <glyph glyph-name="uni207E" unicode="&#x207e;" horiz-adv-x="460" 
d="M457 1112q0 -204 -103 -355q-103 -150 -231 -198l-64 72q127 80 194 206t66 281q0 195 -112 316l80 53q72 -53 121 -157t49 -218z" />
    <glyph glyph-name="n.superior" unicode="&#x207f;" horiz-adv-x="753" 
d="M553 1221q152 0 185 -124q11 -42 1 -100l-73 -407h-131l69 395q12 69 -20 99t-84 30q-50 0 -106 -50t-72 -151l-58 -323h-131l109 614h125l-17 -94q76 111 203 111z" />
    <glyph glyph-name="uni2080" unicode="&#x2080;" horiz-adv-x="813" 
d="M559 481q0 186 -129 189q-105 0 -164 -142q-47 -111 -47 -213q-1 -103 19 -139q38 -72 104 -73q110 -2 170 143q47 111 47 235zM72 291q0 198 82 332q97 163 278 163q145 0 210 -83t65 -251t-82 -305q-96 -161 -279 -161q-274 0 -274 305z" />
    <glyph glyph-name="uni2081" unicode="&#x2081;" horiz-adv-x="520" 
d="M74 690q143 17 217 80h127l-135 -770h-146l109 616q-59 -41 -166 -43z" />
    <glyph glyph-name="uni2082" unicode="&#x2082;" horiz-adv-x="751" 
d="M514 556q0 116 -111 116q-77 0 -113 -49t-46 -107l-138 25q27 104 102 175q75 70 202 70t189 -64q63 -64 63 -149t-46 -149t-133 -134q-86 -70 -252 -173h355l-21 -117h-547l19 109q51 39 104 75q43 33 92 68t111 81q170 125 170 223z" />
    <glyph glyph-name="uni2083" unicode="&#x2083;" horiz-adv-x="733" 
d="M301 453h27q82 1 125 37t43 86t-32 74t-81 24t-87 -33t-48 -80l-127 35q23 76 93 133t180 57t178 -56t69 -137q0 -81 -47 -130t-117 -70q57 -17 88 -63t31 -98q0 -104 -78 -175t-213 -71t-202 59t-72 143l137 37q10 -124 133 -127q80 0 115 42t35 91t-37 79t-107 30
l-24 -2h-13l21 117q4 -2 10 -2z" />
    <glyph glyph-name="uni2084" unicode="&#x2084;" horiz-adv-x="757" 
d="M397 276l62 353h-2l-297 -353h237zM25 276l413 490h183l-86 -490h129l-41 -110h-109l-29 -166h-137l29 166h-371z" />
    <glyph glyph-name="uni2085" unicode="&#x2085;" horiz-adv-x="731" 
d="M377 510q123 0 183 -68t60 -173t-85 -195q-86 -90 -220 -89q-133 1 -200 59t-72 140l135 35q2 -49 36 -84t100 -35t113 48q48 48 48 116t-33 102t-92 33q-91 0 -141 -71l-119 22l121 416h455l-39 -117h-330l-59 -194q55 55 139 55z" />
    <glyph glyph-name="uni2086" unicode="&#x2086;" horiz-adv-x="757" 
d="M508 256q0 142 -130 141q-64 0 -116 -44q-51 -45 -51 -113t35 -106q34 -38 100 -38t114 44t48 116zM443 674q-178 0 -234 -260q23 34 76 64t119 30q118 0 182 -67q65 -67 65 -176t-84 -196t-218 -86t-208 73q-73 72 -73 255q0 182 86 315q101 160 286 160q111 0 174 -50
t74 -132l-135 -20q-4 34 -30 62t-80 28z" />
    <glyph glyph-name="uni2087" unicode="&#x2087;" horiz-adv-x="663" 
d="M131 766h533l-19 -107q-138 -145 -201 -239q-138 -206 -182 -420h-147q32 195 139 371t221 278h-389z" />
    <glyph glyph-name="uni2088" unicode="&#x2088;" horiz-adv-x="753" 
d="M182 214q0 -116 146 -116q72 0 114 38t41 93q0 55 -41 84q-40 29 -104 29t-110 -36t-46 -92zM264 559q0 -51 34 -78t91 -27t96 34q39 32 39 83t-36 77t-90 26t-94 -32t-40 -83zM39 192q0 81 53 140t137 76q-47 18 -77 58t-29 90q0 102 78 166q78 65 200 64q123 0 193 -59
t70 -138t-48 -129t-116 -67q55 -20 92 -63q37 -42 37 -98q0 -104 -85 -175t-223 -71t-210 62t-72 144z" />
    <glyph glyph-name="uni2089" unicode="&#x2089;" horiz-adv-x="768" 
d="M227 516q1 -142 131 -143q64 0 115 44q51 43 51 113t-35 109t-101 39t-113 -45q-48 -45 -48 -117zM292 96q183 0 234 260q-24 -34 -76 -64t-118 -30q-119 0 -183 67q-65 67 -65 176t84 196t217 86t208 -73t75 -254q0 -181 -86 -316q-101 -160 -287 -160q-111 0 -174 50
t-74 132l135 20q4 -34 30 -62t80 -28z" />
    <glyph glyph-name="uni208A" unicode="&#x208a;" horiz-adv-x="759" 
d="M78 469h233l41 236h129l-41 -236h234l-23 -129h-233l-43 -242h-129l43 242h-234z" />
    <glyph glyph-name="uni208B" unicode="&#x208b;" horiz-adv-x="776" 
d="M98 469h572l-23 -129h-571z" />
    <glyph glyph-name="uni208C" unicode="&#x208c;" horiz-adv-x="776" 
d="M78 344h571l-22 -127h-572zM123 596h571l-22 -127h-572z" />
    <glyph glyph-name="uni208D" unicode="&#x208d;" horiz-adv-x="460" 
d="M72 276q0 196 102 348q102 151 232 205l63 -71q-127 -80 -194 -206t-66 -278q0 -201 113 -319l-80 -53q-78 58 -124 162t-46 212z" />
    <glyph glyph-name="uni208E" unicode="&#x208e;" horiz-adv-x="460" 
d="M207 474q0 175 -113 296l80 53q72 -53 121 -157t49 -218q0 -200 -103 -353q-103 -152 -231 -199l-63 71q260 163 260 507z" />
    <glyph glyph-name="Euro" unicode="&#x20ac;" horiz-adv-x="1280" 
d="M1184 1128q-88 158 -256 158q-275 0 -425 -227q-50 -74 -81 -168h561l-20 -117h-568q-12 -66 -12 -135h555l-20 -117h-531q26 -284 212 -377q62 -31 146 -30q194 0 332 166l119 -99q-184 -204 -457 -207q-238 0 -373 147t-155 400h-143l20 117h119q6 101 10 135h-104
l20 117h111q71 250 260 393t416 141q279 0 401 -204z" />
    <glyph glyph-name="servicemark" unicode="&#x2120;" horiz-adv-x="1472" 
d="M317 1020q9 -99 154 -84q67 7 70 76q0 29 -26 46t-96 38t-103 46q-64 51 -64 132q0 82 71 128q61 42 157 42q94 0 156 -40t73 -118l-121 -24q-14 82 -111 84q-27 0 -61 -14t-33 -49q0 -36 29 -56q30 -20 106 -44q76 -25 115 -61t39 -94q0 -100 -69 -147t-175 -47t-170 46
t-70 124zM1112 979q28 70 229 455h168l-104 -592h-111l78 438h-2q-69 -142 -136 -268t-89 -170h-113q-6 50 -33 201q-27 152 -36 237h-2l-78 -438h-115l104 592h162q20 -113 36 -209t29 -162q13 -64 13 -84z" />
    <glyph glyph-name="trademark" unicode="&#x2122;" horiz-adv-x="1411" 
d="M229 1434h465l-16 -99h-170l-86 -493h-125l86 493h-170zM1053 979q28 70 229 455h168l-104 -592h-111l78 438h-2q-69 -142 -141 -277t-85 -161h-112q-4 33 -33 197t-37 241h-2l-78 -438h-114l104 592h162q19 -112 31 -180t19 -107t13 -73l10 -60q4 -26 5 -35z" />
    <glyph glyph-name="estimated" unicode="&#x212e;" horiz-adv-x="1576" 
d="M1194 1013q-100 326 -406 326q-410 0 -446 -553h891q-8 125 -39 227zM102 727q0 345 186 540t513 195q328 0 508 -217q166 -198 166 -526v-57h-1133q19 -410 263 -528q83 -40 189 -40q356 0 470 303l157 -61q-41 -86 -97 -154q-174 -211 -552 -211q-148 1 -277 55
q-258 108 -349 388q-44 137 -44 313z" />
    <glyph glyph-name="uni2153" unicode="&#x2153;" horiz-adv-x="1566" 
d="M188 1354q144 18 218 80h126l-135 -770h-145l108 616q-59 -41 -165 -43zM82 -25l1153 1483h160l-1153 -1483h-160zM1135 453h26q82 1 125 37t43 86t-32 74q-33 24 -81 24t-86 -33t-49 -80l-127 35q23 76 93 133t180 57q111 0 179 -56t69 -137t-47 -130t-117 -70
q57 -17 88 -63t31 -98t-20 -95t-56 -77q-37 -34 -92 -54t-127 -20q-131 0 -197 58t-74 144l137 37q10 -124 134 -127q81 0 115 42t34 91t-37 79t-106 30l-25 -2h-12l20 117q4 -2 11 -2z" />
    <glyph glyph-name="uni2154" unicode="&#x2154;" horiz-adv-x="1763" 
d="M279 -25l1153 1483h159l-1153 -1483h-159zM1331 453h27q82 1 125 37t43 86t-32 74t-81 24t-87 -33t-48 -80l-127 35q23 76 93 133t180 57t179 -56t69 -137t-48 -130q-47 -49 -117 -70q57 -17 88 -63t31 -98q0 -104 -78 -175t-213 -71t-202 59t-72 143l137 37
q10 -124 133 -127q80 0 115 42t35 91t-37 79t-107 30l-24 -2h-13l21 117q4 -2 10 -2zM631 1220q0 118 -111 115q-76 0 -112 -49t-48 -106l-137 24q27 104 102 175t201 71t190 -65q62 -65 62 -149q0 -138 -156 -264q-111 -90 -274 -192h354l-20 -116h-547l19 108
q91 69 168 124q78 54 140 100q170 126 169 224z" />
    <glyph glyph-name="uni2155" unicode="&#x2155;" horiz-adv-x="1556" 
d="M188 1354q144 18 218 80h126l-135 -770h-145l108 616q-59 -41 -165 -43zM82 -25l1153 1483h160l-1153 -1483h-160zM1202 510q123 0 183 -68q61 -68 61 -173t-86 -195t-219 -89q-132 1 -199 58t-74 141l136 35q2 -49 36 -84t99 -35t113 48t48 116q0 138 -124 135
q-89 0 -142 -71l-119 22l121 416h455l-39 -117h-330l-59 -194q55 55 139 55z" />
    <glyph glyph-name="uni2156" unicode="&#x2156;" horiz-adv-x="1744" 
d="M270 -25l1153 1483h160l-1153 -1483h-160zM1410 510q104 0 164 -68t60 -174t-86 -195q-86 -88 -219 -88q-132 1 -200 58t-72 141l135 35q2 -49 36 -84t100 -35t113 48q48 48 48 116t-33 102t-92 33q-91 0 -141 -71l-119 22l121 416h454l-39 -117h-329l-60 -194
q55 55 159 55zM631 1220q0 118 -111 115q-76 0 -112 -49t-48 -106l-137 24q27 104 102 175t201 71t190 -65q62 -65 62 -149q0 -138 -156 -264q-111 -90 -274 -192h354l-20 -116h-547l19 108q91 69 168 124q78 54 140 100q170 126 169 224z" />
    <glyph glyph-name="uni2157" unicode="&#x2157;" horiz-adv-x="1736" 
d="M262 -25l1153 1483h160l-1153 -1483h-160zM418 1116h26q82 0 125 37t43 87t-31 74q-32 24 -81 24t-87 -34q-38 -32 -48 -79l-127 35q23 75 93 133q70 57 180 57q111 0 179 -56t68 -138t-47 -130q-47 -49 -117 -69q57 -17 88 -63t31 -98q0 -102 -78 -174q-78 -71 -212 -72
q-135 -1 -202 58t-74 144l138 37q10 -127 133 -127q80 0 114 42t35 91q0 49 -37 79t-106 30l-25 -3h-12l21 117q4 -2 10 -2zM1382 510q124 0 184 -68t60 -174t-86 -195q-86 -88 -219 -88q-132 1 -200 58t-72 141l135 35q2 -49 36 -84t100 -35t113 48q48 48 48 116t-33 102
t-92 33q-89 0 -142 -71l-118 22l121 416h454l-39 -117h-329l-60 -194q55 55 139 55z" />
    <glyph glyph-name="uni2158" unicode="&#x2158;" horiz-adv-x="1775" 
d="M301 -25l1153 1483h160l-1153 -1483h-160zM1421 510q123 0 183 -68t61 -174q0 -106 -86 -195q-86 -88 -219 -88q-132 1 -199 58t-74 141l136 35q1 -49 35 -84t100 -35t114 48t48 116t-33 102t-92 33q-89 0 -142 -71l-118 22l120 416h455l-39 -117h-330l-59 -194
q55 55 139 55zM514 940l61 352h-2l-297 -352h238zM141 940l414 490h182l-86 -490h129l-41 -111h-108l-29 -165h-137l29 165h-371z" />
    <glyph glyph-name="uni2159" unicode="&#x2159;" horiz-adv-x="1568" 
d="M188 1354q144 18 218 80h126l-135 -770h-145l108 616q-59 -41 -165 -43zM82 -25l1153 1483h160l-1153 -1483h-160zM1319 256q-1 142 -131 141q-64 0 -115 -44q-51 -45 -51 -113t35 -106t101 -38t113 44q48 44 48 116zM1254 674q-178 0 -234 -260q23 34 76 64
q52 30 118 30q118 0 183 -67t65 -176t-84 -196t-218 -86t-208 73t-74 255q0 182 87 315q101 160 286 160q111 0 174 -50t74 -132l-135 -20q-4 34 -30 62t-80 28z" />
    <glyph glyph-name="uni215A" unicode="&#x215a;" horiz-adv-x="1751" 
d="M264 -25l1153 1483h160l-1153 -1483h-160zM675 1106q60 -68 60 -174t-85 -194q-85 -89 -218 -89q-132 0 -201 58q-68 58 -73 141l135 35q2 -49 36 -84q33 -35 99 -35t114 48t48 116t-33 101q-33 34 -92 34q-90 0 -141 -72l-119 23l121 416h454l-39 -117h-329l-60 -195
q54 54 140 56q123 0 183 -68zM1501 256q-1 142 -131 141q-64 0 -115 -44q-51 -45 -51 -113t35 -106t101 -38t113 44q48 44 48 116zM1437 674q-179 0 -235 -260q23 34 76 64q52 30 118 30q118 0 183 -66q64 -66 65 -175t-83 -197t-218 -87q-135 1 -209 73t-73 255
q0 182 86 315q101 160 287 160q111 0 174 -50t73 -132l-135 -20q-4 34 -30 62t-79 28z" />
    <glyph glyph-name="uni215B" unicode="&#x215b;" horiz-adv-x="1581" 
d="M188 1354q144 18 218 80h126l-135 -770h-145l108 616q-59 -41 -165 -43zM82 -25l1153 1483h160l-1153 -1483h-160zM1010 214q0 -116 146 -116q72 0 113 38q42 38 42 93t-41 84t-105 29q-63 0 -109 -36t-46 -92zM1092 559q0 -51 34 -78t90 -27q57 0 97 33q39 33 39 84
t-36 77t-90 26t-94 -32t-40 -83zM866 192q0 81 54 140t137 76q-47 18 -77 58t-30 90q0 99 78 165q78 65 200 65t192 -59t71 -138q0 -79 -48 -129t-116 -67q55 -20 92 -63q37 -42 37 -98q0 -106 -85 -176t-223 -70t-210 62t-72 144z" />
    <glyph glyph-name="uni215C" unicode="&#x215c;" horiz-adv-x="1761" 
d="M262 -25l1153 1483h160l-1153 -1483h-160zM1190 214q0 -116 146 -116q72 0 113 38q42 38 42 93t-41 84q-40 29 -104 29t-110 -36t-46 -92zM1272 559q0 -51 34 -78t91 -27t96 34q39 32 39 83t-36 77t-90 26t-94 -32t-40 -83zM1047 192q0 81 53 140t137 76q-47 18 -77 58
t-30 90q0 99 78 165q78 65 200 65t193 -59t71 -138t-49 -129q-48 -50 -116 -67q55 -20 92 -63q37 -42 37 -98q0 -106 -85 -176t-223 -70t-210 62q-71 63 -71 144zM418 1116h26q82 0 125 37t43 87t-31 74q-32 24 -81 24t-87 -34q-38 -32 -48 -79l-127 35q23 75 93 133
q70 57 180 57q111 0 179 -56t68 -138t-47 -130q-47 -49 -117 -69q57 -17 88 -63t31 -98q0 -102 -78 -174q-78 -71 -212 -72q-135 -1 -202 58t-74 144l138 37q10 -127 133 -127q80 0 114 42t35 91q0 49 -37 79t-106 30l-25 -3h-12l21 117q4 -2 10 -2z" />
    <glyph glyph-name="uni215D" unicode="&#x215d;" horiz-adv-x="1763" 
d="M264 -25l1153 1483h160l-1153 -1483h-160zM1192 214q0 -116 146 -116q72 0 113 38q42 38 42 93t-41 84q-40 29 -104 29t-110 -36t-46 -92zM1274 559q0 -51 34 -78t91 -27t96 34q39 32 39 83t-36 77t-90 26t-94 -32t-40 -83zM1049 192q0 81 53 140t137 76q-47 18 -77 58
t-30 90q1 101 79 165q77 65 199 65t193 -59t71 -138t-49 -129q-48 -50 -116 -67q55 -20 93 -63q38 -42 36 -98q-1 -106 -85 -176t-223 -70q-138 0 -210 62q-71 63 -71 144zM675 1106q60 -68 60 -174t-85 -194q-85 -89 -218 -89q-132 0 -201 58q-68 58 -73 141l135 35
q2 -49 36 -84q33 -35 99 -35t114 48t48 116t-33 101q-33 34 -92 34q-90 0 -141 -72l-119 23l121 416h454l-39 -117h-329l-60 -195q54 54 140 56q123 0 183 -68z" />
    <glyph glyph-name="uni215E" unicode="&#x215e;" horiz-adv-x="1583" 
d="M84 -25l1153 1483h160l-1153 -1483h-160zM1012 214q0 -116 146 -116q72 0 113 38q42 38 42 93t-41 84t-105 29q-63 0 -109 -36t-46 -92zM1094 559q0 -51 34 -78t90 -27q57 0 97 33q39 33 39 84t-36 77t-90 26t-94 -32t-40 -83zM868 192q0 81 54 140t137 76q-47 18 -77 58
t-30 90q0 99 78 165q78 65 200 65t192 -59t71 -138q0 -79 -48 -129t-116 -67q55 -20 92 -63q37 -42 37 -98q0 -106 -85 -176t-223 -70t-210 62t-72 144zM246 1430h532l-18 -107q-139 -145 -201 -240q-138 -208 -182 -419h-148q31 190 139 368q107 178 222 281h-389z" />
    <glyph glyph-name="uni215F" unicode="&#x215f;" horiz-adv-x="1232" 
d="M188 1354q144 18 218 80h126l-135 -770h-145l108 616q-59 -41 -165 -43zM82 -25l1153 1483h160l-1153 -1483h-160z" />
    <glyph glyph-name="arrowleft" unicode="&#x2190;" horiz-adv-x="1740" 
d="M1591 786v-143h-1185l401 -403l-100 -101l-578 576l578 575l100 -100l-401 -404h1185z" />
    <glyph glyph-name="arrowup" unicode="&#x2191;" horiz-adv-x="1536" 
d="M840 0h-144v1186l-403 -402l-100 101l575 577l575 -577l-100 -101l-403 402v-1186z" />
    <glyph glyph-name="arrowright" unicode="&#x2192;" horiz-adv-x="1740" 
d="M150 643v143h1185l-401 404l100 100l578 -575l-578 -576l-100 101l401 403h-1185z" />
    <glyph glyph-name="arrowdown" unicode="&#x2193;" horiz-adv-x="1536" 
d="M696 1434h144v-1186l403 401l100 -100l-575 -578l-575 578l100 100l403 -401v1186z" />
    <glyph glyph-name="uni2196" unicode="&#x2196;" horiz-adv-x="1536" 
d="M420 618h-144v816h816v-144h-570l838 -839l-100 -101l-840 838v-570z" />
    <glyph glyph-name="uni2197" unicode="&#x2197;" horiz-adv-x="1536" 
d="M444 1290v144h816v-816h-144v570l-840 -838l-100 101l838 839h-570z" />
    <glyph glyph-name="uni2198" unicode="&#x2198;" horiz-adv-x="1536" 
d="M1116 815h144v-815h-816v143h570l-838 840l100 100l840 -837v569z" />
    <glyph glyph-name="uni2199" unicode="&#x2199;" horiz-adv-x="1536" 
d="M1092 143v-143h-816v815h144v-569l840 837l100 -100l-838 -840h570z" />
    <glyph glyph-name="partialdiff" unicode="&#x2202;" horiz-adv-x="1110" 
d="M567 735q-86 0 -143 -34q-110 -66 -153 -209q-19 -68 -19 -158t55 -154q55 -66 143 -66q157 1 269 139q111 137 123 298q-21 79 -105 131q-84 53 -170 53zM660 1458q196 0 292 -131t96 -383q1 -477 -156 -722t-435 -247q-193 0 -289 109t-94 272q0 88 32 180t94 168
q143 170 367 170q167 0 259 -92q26 -25 44 -47q87 584 -231 584q-74 0 -122 -41t-81 -94l-108 96q135 178 332 178z" />
    <glyph glyph-name="Delta" unicode="&#x2206;" horiz-adv-x="1394" 
d="M256 135h768l-193 1094zM1217 0h-1211l770 1434h178z" />
    <glyph glyph-name="product" unicode="&#x220f;" horiz-adv-x="1363" 
d="M340 1434h1016l-252 -1434h-172l227 1290h-672l-227 -1290h-172z" />
    <glyph glyph-name="summation" unicode="&#x2211;" horiz-adv-x="1116" 
d="M928 0h-912l25 131l504 588l-295 594l18 121h912l-25 -144h-717l289 -585l-475 -562h700z" />
    <glyph glyph-name="minus" unicode="&#x2212;" 
d="M154 733h1007l-24 -141h-1008z" />
    <glyph glyph-name="radical" unicode="&#x221a;" horiz-adv-x="1202" 
d="M90 772l313 98l113 -684l660 1248h172l-781 -1434h-161l-130 698l-167 -51z" />
    <glyph glyph-name="infinity" unicode="&#x221e;" horiz-adv-x="1593" 
d="M1222 887q-135 0 -252 -141q-34 -39 -65 -82q74 -217 236 -220q98 0 163 71q64 71 64 176t-44 151t-102 45zM289 637q0 -101 44 -147t102 -46q100 0 175 64t144 160q-35 90 -90 154t-150 65q-95 0 -160 -74t-65 -176zM850 799q192 229 357 229q230 0 296 -175
q23 -58 23 -146t-33 -164t-88 -129t-128 -82t-165 -29t-165 55t-136 174q-103 -119 -168 -161q-105 -68 -222 -68t-203 80q-87 80 -87 252q0 171 117 282t284 111q111 0 184 -55t134 -174z" />
    <glyph glyph-name="integral" unicode="&#x222b;" horiz-adv-x="643" 
d="M644 1458q152 0 222 -65l-96 -133q-42 47 -102 49q-113 0 -140 -150l-209 -1177q-26 -150 -108 -220q-83 -69 -207 -69t-194 63l96 135q42 -47 102 -49q113 0 139 150l211 1177q26 159 111 224t175 65z" />
    <glyph glyph-name="approxequal" unicode="&#x2248;" 
d="M807 481q108 0 188 123l115 -80q-62 -99 -181 -155q-61 -29 -139 -29t-128 22t-92 47t-81 47t-88 21q-116 0 -186 -123l-115 80q60 99 180 156q60 28 138 28t128 -22t92 -46q42 -26 81 -48t88 -21zM887 864q114 0 186 123l115 -80q-61 -99 -180 -155q-60 -29 -138 -29
q-78 -1 -129 21t-92 48t-80 48t-87 20q-84 -1 -142 -61q-29 -27 -47 -62l-113 80q60 98 179 156q61 29 139 29t128 -22t92 -48t81 -46q39 -22 88 -22z" />
    <glyph glyph-name="notequal" unicode="&#x2260;" 
d="M186 922h582l268 340l107 -72l-213 -268h264l-25 -140h-350l-184 -233h493l-24 -139h-580l-272 -344l-107 71l215 273h-264l25 139h350l186 233h-495z" />
    <glyph glyph-name="equivalence" unicode="&#x2261;" 
d="M84 324h1008l-25 -140h-1008zM156 733h1007l-24 -139h-1008zM229 1143h1008l-25 -139h-1007z" />
    <glyph glyph-name="lessequal" unicode="&#x2264;" 
d="M150 694l24 140l1086 450l-33 -174l-883 -352l760 -352l-29 -158zM49 139h1008l-25 -139h-1007z" />
    <glyph glyph-name="greaterequal" unicode="&#x2265;" 
d="M1178 838l-25 -140l-1085 -450l32 174l883 352l-760 352l29 158zM49 139h1008l-25 -139h-1007z" />
    <glyph glyph-name="squaremultiply" unicode="&#x22a0;" horiz-adv-x="1740" 
d="M870 625l-385 -387l-96 94l387 385l-387 387l96 94l385 -387l385 387l97 -94l-387 -387l387 -385l-97 -94zM285 123h1171v1188h-1171v-1188zM154 1434h1433v-1434h-1433v1434z" />
    <glyph glyph-name="blacksquare" unicode="&#x25a0;" horiz-adv-x="1740" 
d="M154 1434h1433v-1434h-1433v1434z" />
    <glyph glyph-name="blacksquare" unicode="&#xe740;" horiz-adv-x="1740" 
d="M154 1434h1433v-1434h-1433v1434z" />
    <glyph glyph-name="whitesquare" unicode="&#x25a1;" horiz-adv-x="1740" 
d="M285 123h1171v1188h-1171v-1188zM154 1434h1433v-1434h-1433v1434z" />
    <glyph glyph-name="blacksmallsquare" unicode="&#x25aa;" 
d="M131 967h967v-967h-967v967z" />
    <glyph glyph-name="whitesmallsquare" unicode="&#x25ab;" 
d="M252 113h725v741h-725v-741zM131 967h967v-967h-967v967z" />
    <glyph glyph-name="triagup" unicode="&#x25b2;" horiz-adv-x="1638" 
d="M102 0l717 1466l717 -1466h-1434z" />
    <glyph glyph-name="triagrt" unicode="&#x25ba;" horiz-adv-x="1607" 
d="M102 1434l1403 -717l-1403 -717v1434z" />
    <glyph glyph-name="triagdn" unicode="&#x25bc;" horiz-adv-x="1638" 
d="M1536 1434l-717 -1467l-717 1467h1434z" />
    <glyph glyph-name="triaglf" unicode="&#x25c4;" horiz-adv-x="1607" 
d="M1505 0l-1403 717l1403 717v-1434z" />
    <glyph glyph-name="lozenge" unicode="&#x25ca;" horiz-adv-x="1089" 
d="M324 709l163 -521l361 541l-164 520zM1028 717l-485 -717h-168l-232 717l486 717h168z" />
    <glyph glyph-name="whitecircle" unicode="&#x25cb;" horiz-adv-x="1740" 
d="M1479 717q0 127 -48 239q-98 230 -324 330q-112 49 -238 49q-127 0 -237 -49t-192 -133t-130 -197q-48 -114 -48 -240t48 -239q97 -228 323 -330q111 -49 237 -49t237 49q222 97 324 330q48 113 48 240zM129 717q0 154 58 289q118 274 395 394q134 58 288 58t289 -58
t235 -158t159 -236q59 -135 59 -289t-58 -289q-119 -274 -395 -394q-135 -58 -289 -58t-288 58q-274 119 -395 394q-58 135 -58 289z" />
    <glyph glyph-name="whitecircle" unicode="&#x25ef;" horiz-adv-x="1740" 
d="M1479 717q0 127 -48 239q-98 230 -324 330q-112 49 -238 49q-127 0 -237 -49t-192 -133t-130 -197q-48 -114 -48 -240t48 -239q97 -228 323 -330q111 -49 237 -49t237 49q222 97 324 330q48 113 48 240zM129 717q0 154 58 289q118 274 395 394q134 58 288 58t289 -58
t235 -158t159 -236q59 -135 59 -289t-58 -289q-119 -274 -395 -394q-135 -58 -289 -58t-288 58q-274 119 -395 394q-58 135 -58 289z" />
    <glyph glyph-name="blackcircle" unicode="&#x25cf;" horiz-adv-x="1740" 
d="M1612 717q0 -152 -60 -287q-122 -276 -396 -396q-134 -58 -286 -58t-286 58q-274 120 -396 396q-59 135 -59 287t59 287q120 275 397 396q133 58 285 58t286 -58q275 -119 396 -396q60 -135 60 -287z" />
    <glyph glyph-name="uni25E2" unicode="&#x25e2;" horiz-adv-x="1638" 
d="M1104 1434l452 -1467l-1468 451z" />
    <glyph glyph-name="uni25E3" unicode="&#x25e3;" horiz-adv-x="1638" 
d="M1550 418l-1468 -451l453 1467z" />
    <glyph glyph-name="uni25E4" unicode="&#x25e4;" horiz-adv-x="1638" 
d="M535 -33l-453 1467l1468 -451z" />
    <glyph glyph-name="uni25E5" unicode="&#x25e5;" horiz-adv-x="1638" 
d="M88 983l1468 451l-452 -1467z" />
    <glyph glyph-name="ballotboxwithx" unicode="&#x2612;" 
d="M614 399l-165 -168l-89 86l168 166l-168 168l89 86l165 -168l166 168l88 -86l-168 -168l168 -166l-88 -86zM252 113h725v741h-725v-741zM131 967h967v-967h-967v967z" />
    <glyph glyph-name="mediumwhitecircle" unicode="&#x26aa;" 
d="M343 760q-112 -114 -112 -278t113 -277q112 -113 270 -113t270 112t113 278q0 165 -112 279q-112 115 -271 114t-271 -115zM106 484q0 106 40 198q82 190 271 269q93 40 198 40q209 0 358 -148t149 -358t-148 -361q-150 -149 -360 -149t-359 149t-149 360z" />
    <glyph glyph-name="mediumblackcircle" unicode="&#x26ab;" 
d="M104 479q0 103 40 197q81 190 272 271q92 40 197 40q210 0 360 -147q151 -147 151 -359t-150 -361t-360 -149q-209 0 -359 148q-151 149 -151 360z" />
    <glyph glyph-name="anglebracketleft" unicode="&#x3008;" horiz-adv-x="636" 
d="M655 1622l144 -49l-494 -944l150 -948l-150 -46l-178 1004z" />
    <glyph glyph-name="anglebracketright" unicode="&#x3009;" horiz-adv-x="636" 
d="M31 -365l-144 50l494 944l-150 948l150 45l178 -1004z" />
    <glyph glyph-name="aogonek.school" unicode="&#xe150;" horiz-adv-x="1159" 
d="M260 394q0 -110 58 -193q58 -84 174 -84t205 77q90 77 116 226l18 104q26 163 -44 243t-191 83q-74 0 -135 -35q-201 -116 -201 -421zM717 -399q-176 1 -176 159q0 82 62 142t145 98l24 141q-33 -64 -114 -114t-185 -52q-180 0 -286 117q-105 117 -105 320q0 254 145 417
q145 162 351 162q128 0 206 -52t107 -118l27 146h161l-170 -967q-233 -131 -233 -211t74 -82q63 0 110 66l60 -74q-81 -98 -203 -98z" />
    <glyph glyph-name="a.school" unicode="&#xe151;" horiz-adv-x="1159" 
d="M260 394q0 -110 58 -193q58 -84 174 -84t205 77q90 77 116 226l18 104q26 163 -44 243t-191 83q-74 0 -135 -35q-201 -116 -201 -421zM82 412q0 254 145 417q145 162 351 162q128 0 206 -52t107 -118l27 146h161l-170 -967h-161l24 141q-33 -64 -114 -114t-185 -52
q-180 0 -286 117q-105 117 -105 320z" />
    <glyph glyph-name="agrave.school" unicode="&#xe152;" horiz-adv-x="1159" 
d="M457 1313l102 121l299 -258l-70 -84zM260 394q0 -110 58 -193q58 -84 174 -84t205 77q90 77 116 226l18 104q26 163 -44 243t-191 83q-74 0 -135 -35q-201 -116 -201 -421zM82 412q0 254 145 417q145 162 351 162q128 0 206 -52t107 -118l27 146h161l-170 -967h-161
l24 141q-33 -64 -114 -114t-185 -52q-180 0 -286 117q-105 117 -105 320z" />
    <glyph glyph-name="aacute.school" unicode="&#xe153;" horiz-adv-x="1159" 
d="M879 1305l-394 -213l-45 96l375 248zM260 394q0 -110 58 -193q58 -84 174 -84t205 77q90 77 116 226l18 104q26 163 -44 243t-191 83q-74 0 -135 -35q-201 -116 -201 -421zM82 412q0 254 145 417q145 162 351 162q128 0 206 -52t107 -118l27 146h161l-170 -967h-161
l24 141q-33 -64 -114 -114t-185 -52q-180 0 -286 117q-105 117 -105 320z" />
    <glyph glyph-name="acircumflex.school" unicode="&#xe154;" horiz-adv-x="1159" 
d="M612 1421h115l191 -268l-93 -70l-166 217l-243 -219l-80 82zM260 394q0 -110 58 -193q58 -84 174 -84t205 77q90 77 116 226l18 104q26 163 -44 243t-191 83q-74 0 -135 -35q-201 -116 -201 -421zM82 412q0 254 145 417q145 162 351 162q128 0 206 -52t107 -118l27 146
h161l-170 -967h-161l24 141q-33 -64 -114 -114t-185 -52q-180 0 -286 117q-105 117 -105 320z" />
    <glyph glyph-name="adieresis.school" unicode="&#xe155;" horiz-adv-x="1159" 
d="M731 1234q0 46 31 76t78 30t78 -30q30 -30 30 -76t-30 -78t-78 -32q-47 0 -78 32t-31 78zM446 1124q-48 0 -78 32t-30 78t31 76t77 30t78 -30q31 -30 31 -76t-31 -78t-78 -32zM260 394q0 -110 58 -193q58 -84 174 -84t205 77q90 77 116 226l18 104q26 163 -44 243
t-191 83q-74 0 -135 -35q-201 -116 -201 -421zM82 412q0 254 145 417q145 162 351 162q128 0 206 -52t107 -118l27 146h161l-170 -967h-161l24 141q-33 -64 -114 -114t-185 -52q-180 0 -286 117q-105 117 -105 320z" />
    <glyph glyph-name="atilde.school" unicode="&#xe156;" horiz-adv-x="1159" 
d="M1008 1262q-80 -129 -239 -129q-67 0 -145 51q-30 18 -57 34t-61 17q-85 0 -137 -92l-82 82q45 69 129 108q43 21 98 21t91 -16t66 -36q29 -20 57 -36t63 -17q83 0 135 94zM260 394q0 -110 58 -193q58 -84 174 -84t205 77q90 77 116 226l18 104q26 163 -44 243t-191 83
q-74 0 -135 -35q-201 -116 -201 -421zM82 412q0 254 145 417q145 162 351 162q128 0 206 -52t107 -118l27 146h161l-170 -967h-161l24 141q-33 -64 -114 -114t-185 -52q-180 0 -286 117q-105 117 -105 320z" />
    <glyph glyph-name="aring.school" unicode="&#xe157;" horiz-adv-x="1159" 
d="M449 1259q0 81 58 139q57 58 149 58t142 -48t50 -130t-60 -141t-149 -59q-90 0 -140 49q-50 50 -50 132zM750 1274q0 44 -25 70t-70 26t-77 -32t-31 -74q-1 -43 25 -72t70 -29t76 34t32 77zM260 394q0 -110 58 -193q58 -84 174 -84t205 77q90 77 116 226l18 104
q26 163 -44 243t-191 83q-74 0 -135 -35q-201 -116 -201 -421zM82 412q0 254 145 417q145 162 351 162q128 0 206 -52t107 -118l27 146h161l-170 -967h-161l24 141q-33 -64 -114 -114t-185 -52q-180 0 -286 117q-105 117 -105 320z" />
    <glyph glyph-name="amacron.school" unicode="&#xe159;" horiz-adv-x="1159" 
d="M383 1270h530l-20 -121h-531zM260 394q0 -110 58 -193q58 -84 174 -84t205 77q90 77 116 226l18 104q26 163 -44 243t-191 83q-74 0 -135 -35q-201 -116 -201 -421zM82 412q0 254 145 417q145 162 351 162q128 0 206 -52t107 -118l27 146h161l-170 -967h-161l24 141
q-33 -64 -114 -114t-185 -52q-180 0 -286 117q-105 117 -105 320z" />
    <glyph glyph-name="abreve.school" unicode="&#xe15a;" horiz-adv-x="1159" 
d="M637 1225q72 0 126 45t75 108l135 -41q-33 -95 -122 -161t-215 -66t-203 64t-87 163l135 41q2 -63 43 -108t113 -45zM260 394q0 -110 58 -193q58 -84 174 -84t205 77q90 77 116 226l18 104q26 163 -44 243t-191 83q-74 0 -135 -35q-201 -116 -201 -421zM82 412
q0 254 145 417q145 162 351 162q128 0 206 -52t107 -118l27 146h161l-170 -967h-161l24 141q-33 -64 -114 -114t-185 -52q-180 0 -286 117q-105 117 -105 320z" />
    <glyph glyph-name="ordfeminine.school" unicode="&#xe182;" horiz-adv-x="929" 
d="M405 1226q-75 -97 -75 -220q0 -255 188 -254q133 0 206 131q26 45 36 106l14 80q23 126 -38 193q-55 61 -156 61q-100 0 -175 -97zM496 641q-139 0 -223 91q-83 91 -83 268t115 305q115 129 273 129q100 0 160 -41t83 -93l21 115h127l-133 -756h-127l20 111
q-29 -47 -90 -88t-143 -41z" />
    <glyph glyph-name="p.smcp" unicode="&#xe200;" horiz-adv-x="1083" 
d="M702 1155q365 0 365 -305q0 -193 -129 -295t-338 -100h-252l-80 -455h-170l205 1155h399zM578 592q160 0 238 66t77 170q0 106 -57 147t-183 41h-204l-74 -424h203z" />
    <glyph glyph-name="p.smcp" unicode="&#xf770;" horiz-adv-x="1083" 
d="M702 1155q365 0 365 -305q0 -193 -129 -295t-338 -100h-252l-80 -455h-170l205 1155h399zM578 592q160 0 238 66t77 170q0 106 -57 147t-183 41h-204l-74 -424h203z" />
    <glyph glyph-name="a.smcp" unicode="&#xe201;" horiz-adv-x="1081" 
d="M713 436l-88 508h-4l-24 -48q-15 -32 -54 -106t-81 -155q-42 -82 -104 -199h355zM958 0h-170l-53 301h-448l-162 -301h-174l624 1155h164z" />
    <glyph glyph-name="a.smcp" unicode="&#xf761;" horiz-adv-x="1081" 
d="M713 436l-88 508h-4l-24 -48q-15 -32 -54 -106t-81 -155q-42 -82 -104 -199h355zM958 0h-170l-53 301h-448l-162 -301h-174l624 1155h164z" />
    <glyph glyph-name="b.smcp" unicode="&#xe202;" horiz-adv-x="1110" 
d="M586 659q128 1 198 55t70 141t-45 125t-145 38h-222l-61 -359h205zM510 135q160 0 240 71q61 56 61 148t-62 132t-176 40h-217l-67 -391h221zM723 1155q149 0 227 -75t78 -196t-73 -196t-162 -92q78 -16 135 -74t57 -152t-33 -160q-68 -134 -229 -184q-80 -26 -174 -26
h-451l203 1155h422z" />
    <glyph glyph-name="b.smcp" unicode="&#xf762;" horiz-adv-x="1110" 
d="M586 659q128 1 198 55t70 141t-45 125t-145 38h-222l-61 -359h205zM510 135q160 0 240 71q61 56 61 148t-62 132t-176 40h-217l-67 -391h221zM723 1155q149 0 227 -75t78 -196t-73 -196t-162 -92q78 -16 135 -74t57 -152t-33 -160q-68 -134 -229 -184q-80 -26 -174 -26
h-451l203 1155h422z" />
    <glyph glyph-name="c.smcp" unicode="&#xe203;" horiz-adv-x="1161" 
d="M606 -25q-225 1 -352 137t-127 373q0 291 162 491t432 202q180 0 293 -80t147 -221l-162 -56q-20 97 -89 157t-180 60q-200 0 -314 -163q-113 -163 -113 -388q0 -256 172 -344q57 -29 137 -28q195 0 297 219l158 -58q-67 -139 -181 -220t-280 -81z" />
    <glyph glyph-name="c.smcp" unicode="&#xf763;" horiz-adv-x="1161" 
d="M606 -25q-225 1 -352 137t-127 373q0 291 162 491t432 202q180 0 293 -80t147 -221l-162 -56q-20 97 -89 157t-180 60q-200 0 -314 -163q-113 -163 -113 -388q0 -256 172 -344q57 -29 137 -28q195 0 297 219l158 -58q-67 -139 -181 -220t-280 -81z" />
    <glyph glyph-name="d.smcp" unicode="&#xe204;" horiz-adv-x="1245" 
d="M684 1155q215 0 340 -122t125 -339q0 -325 -174 -509q-174 -185 -471 -185h-406l203 1155h383zM971 714q0 134 -82 218t-250 84h-193l-153 -877h213q227 0 346 159q119 158 119 416z" />
    <glyph glyph-name="d.smcp" unicode="&#xf764;" horiz-adv-x="1245" 
d="M684 1155q215 0 340 -122t125 -339q0 -325 -174 -509q-174 -185 -471 -185h-406l203 1155h383zM971 714q0 134 -82 218t-250 84h-193l-153 -877h213q227 0 346 159q119 158 119 416z" />
    <glyph glyph-name="e.smcp" unicode="&#xe205;" horiz-adv-x="1001" 
d="M98 0l203 1155h707l-25 -139h-537l-61 -352h502l-25 -138h-502l-67 -387h547l-25 -139h-717z" />
    <glyph glyph-name="e.smcp" unicode="&#xf765;" horiz-adv-x="1001" 
d="M98 0l203 1155h707l-25 -139h-537l-61 -352h502l-25 -138h-502l-67 -387h547l-25 -139h-717z" />
    <glyph glyph-name="f.smcp" unicode="&#xe206;" horiz-adv-x="985" 
d="M98 0l203 1155h709l-25 -139h-539l-61 -352h502l-25 -138h-502l-92 -526h-170z" />
    <glyph glyph-name="f.smcp" unicode="&#xf766;" horiz-adv-x="985" 
d="M98 0l203 1155h709l-25 -139h-539l-61 -352h502l-25 -138h-502l-92 -526h-170z" />
    <glyph glyph-name="g.smcp" unicode="&#xe207;" horiz-adv-x="1271" 
d="M717 1038q-183 0 -299 -162q-115 -162 -115 -397q0 -166 76 -265t233 -99q118 0 208 70q91 70 110 194l12 74h-324l25 133h490l-103 -586h-158l21 123q-62 -92 -207 -134q-49 -13 -133 -13t-169 38q-85 39 -142 107q-115 137 -115 362q0 281 163 487t435 208
q174 0 286 -78t154 -219l-164 -54q-50 211 -284 211z" />
    <glyph glyph-name="g.smcp" unicode="&#xf767;" horiz-adv-x="1271" 
d="M717 1038q-183 0 -299 -162q-115 -162 -115 -397q0 -166 76 -265t233 -99q118 0 208 70q91 70 110 194l12 74h-324l25 133h490l-103 -586h-158l21 123q-62 -92 -207 -134q-49 -13 -133 -13t-169 38q-85 39 -142 107q-115 137 -115 362q0 281 163 487t435 208
q174 0 286 -78t154 -219l-164 -54q-50 211 -284 211z" />
    <glyph glyph-name="h.smcp" unicode="&#xe208;" horiz-adv-x="1241" 
d="M301 1155h170l-86 -489h533l86 489h170l-203 -1155h-170l92 526h-533l-92 -526h-170z" />
    <glyph glyph-name="h.smcp" unicode="&#xf768;" horiz-adv-x="1241" 
d="M301 1155h170l-86 -489h533l86 489h170l-203 -1155h-170l92 526h-533l-92 -526h-170z" />
    <glyph glyph-name="i.smcp" unicode="&#xe209;" horiz-adv-x="538" 
d="M301 1155h170l-203 -1155h-170z" />
    <glyph glyph-name="i.smcp" unicode="&#xf769;" horiz-adv-x="538" 
d="M301 1155h170l-203 -1155h-170z" />
    <glyph glyph-name="j.smcp" unicode="&#xe20a;" horiz-adv-x="780" 
d="M221 115q86 1 130 67t67 195l137 778h170l-137 -778q-36 -196 -105 -286q-88 -116 -270 -116t-270 131l125 109q35 -51 67 -76q33 -24 86 -24z" />
    <glyph glyph-name="j.smcp" unicode="&#xf76a;" horiz-adv-x="780" 
d="M221 115q86 1 130 67t67 195l137 778h170l-137 -778q-36 -196 -105 -286q-88 -116 -270 -116t-270 131l125 109q35 -51 67 -76q33 -24 86 -24z" />
    <glyph glyph-name="k.smcp" unicode="&#xe20b;" horiz-adv-x="1089" 
d="M489 571l-143 -129l-78 -442h-170l203 1155h170l-86 -491l551 491h209l-522 -471l358 -684h-197z" />
    <glyph glyph-name="k.smcp" unicode="&#xf76b;" horiz-adv-x="1089" 
d="M489 571l-143 -129l-78 -442h-170l203 1155h170l-86 -491l551 491h209l-522 -471l358 -684h-197z" />
    <glyph glyph-name="l.smcp" unicode="&#xe20c;" horiz-adv-x="909" 
d="M301 1155h170l-178 -1016h510l-23 -139h-682z" />
    <glyph glyph-name="l.smcp" unicode="&#xf76c;" horiz-adv-x="909" 
d="M301 1155h170l-178 -1016h510l-23 -139h-682z" />
    <glyph glyph-name="m.smcp" unicode="&#xe20d;" horiz-adv-x="1517" 
d="M1255 932q-190 -361 -510 -932h-147q-139 652 -178 932h-4l-164 -932h-154l203 1155h219q54 -268 93 -474t53 -278q14 -73 24 -125t15 -75q22 43 514 952h231l-203 -1155h-151l164 932h-5z" />
    <glyph glyph-name="m.smcp" unicode="&#xf76d;" horiz-adv-x="1517" 
d="M1255 932q-190 -361 -510 -932h-147q-139 652 -178 932h-4l-164 -932h-154l203 1155h219q54 -268 93 -474t53 -278q14 -73 24 -125t15 -75q22 43 514 952h231l-203 -1155h-151l164 932h-5z" />
    <glyph glyph-name="n.smcp" unicode="&#xe20e;" horiz-adv-x="1286" 
d="M840 0l-422 905h-4l-158 -905h-158l203 1155h176q358 -757 422 -905h4l158 905h158l-203 -1155h-176z" />
    <glyph glyph-name="n.smcp" unicode="&#xf76e;" horiz-adv-x="1286" 
d="M840 0l-422 905h-4l-158 -905h-158l203 1155h176q358 -757 422 -905h4l158 905h158l-203 -1155h-176z" />
    <glyph glyph-name="o.smcp" unicode="&#xe20f;" horiz-adv-x="1288" 
d="M1016 666q0 169 -79 272q-79 102 -226 100q-192 0 -308 -189q-100 -163 -100 -370q0 -250 170 -336q57 -29 148 -29t167 54q76 53 127 135q51 83 76 181t25 182zM127 489q0 129 40 256q83 263 303 376q110 57 234 57q232 1 360 -135q128 -135 128 -367q0 -294 -162 -497
q-162 -202 -430 -204q-220 0 -346 136q-127 137 -127 378z" />
    <glyph glyph-name="o.smcp" unicode="&#xf76f;" horiz-adv-x="1288" 
d="M1016 666q0 169 -79 272q-79 102 -226 100q-192 0 -308 -189q-100 -163 -100 -370q0 -250 170 -336q57 -29 148 -29t167 54q76 53 127 135q51 83 76 181t25 182zM127 489q0 129 40 256q83 263 303 376q110 57 234 57q232 1 360 -135q128 -135 128 -367q0 -294 -162 -497
q-162 -202 -430 -204q-220 0 -346 136q-127 137 -127 378z" />
    <glyph glyph-name="q.smcp" unicode="&#xe211;" horiz-adv-x="1288" 
d="M1016 682q0 154 -79 256t-226 100q-192 0 -308 -189q-100 -163 -100 -370q0 -250 170 -336q111 -57 252 -8l-104 137l104 80l113 -145q45 41 78 96q100 162 100 379zM127 489q0 129 40 256q83 263 303 376q110 57 234 57q232 1 360 -135q128 -135 128 -367
q0 -184 -68 -340t-190 -252l94 -119l-108 -80l-103 131q-100 -41 -213 -41t-201 35t-149 101q-61 65 -94 157t-33 221z" />
    <glyph glyph-name="q.smcp" unicode="&#xf771;" horiz-adv-x="1288" 
d="M1016 682q0 154 -79 256t-226 100q-192 0 -308 -189q-100 -163 -100 -370q0 -250 170 -336q111 -57 252 -8l-104 137l104 80l113 -145q45 41 78 96q100 162 100 379zM127 489q0 129 40 256q83 263 303 376q110 57 234 57q232 1 360 -135q128 -135 128 -367
q0 -184 -68 -340t-190 -252l94 -119l-108 -80l-103 131q-100 -41 -213 -41t-201 35t-149 101q-61 65 -94 157t-33 221z" />
    <glyph glyph-name="r.smcp" unicode="&#xe212;" horiz-adv-x="1120" 
d="M653 1016h-209l-67 -391h229q140 1 210 71t71 159q-1 89 -59 125t-175 36zM942 1093q119 -79 119 -223t-89 -243t-231 -123l211 -504h-186l-197 489h-217l-86 -489h-168l205 1155h406q138 0 233 -62z" />
    <glyph glyph-name="r.smcp" unicode="&#xf772;" horiz-adv-x="1120" 
d="M653 1016h-209l-67 -391h229q140 1 210 71t71 159q-1 89 -59 125t-175 36zM942 1093q119 -79 119 -223t-89 -243t-231 -123l211 -504h-186l-197 489h-217l-86 -489h-168l205 1155h406q138 0 233 -62z" />
    <glyph glyph-name="s.smcp" unicode="&#xe213;" horiz-adv-x="1085" 
d="M233 360q-1 -250 293 -248q100 0 174 55q72 54 72 146t-55 132q-55 41 -173 73q-204 54 -279 123q-72 70 -72 193q0 154 116 249t303 95t297 -90q111 -90 119 -234l-172 -33q2 99 -60 159t-184 60t-182 -51q-61 -51 -61 -134t56 -121q56 -39 161 -66q200 -52 283 -125
t81 -201q0 -162 -120 -264q-120 -103 -332 -103q-211 0 -325 103t-107 258z" />
    <glyph glyph-name="s.smcp" unicode="&#xf773;" horiz-adv-x="1085" 
d="M233 360q-1 -250 293 -248q100 0 174 55q72 54 72 146t-55 132q-55 41 -173 73q-204 54 -279 123q-72 70 -72 193q0 154 116 249t303 95t297 -90q111 -90 119 -234l-172 -33q2 99 -60 159t-184 60t-182 -51q-61 -51 -61 -134t56 -121q56 -39 161 -66q200 -52 283 -125
t81 -201q0 -162 -120 -264q-120 -103 -332 -103q-211 0 -325 103t-107 258z" />
    <glyph glyph-name="t.smcp" unicode="&#xe214;" horiz-adv-x="946" 
d="M164 1155h852l-25 -139h-342l-178 -1016h-170l178 1016h-340z" />
    <glyph glyph-name="t.smcp" unicode="&#xf774;" horiz-adv-x="946" 
d="M164 1155h852l-25 -139h-342l-178 -1016h-170l178 1016h-340z" />
    <glyph glyph-name="u.smcp" unicode="&#xe215;" horiz-adv-x="1212" 
d="M527 -25q-217 0 -311 116q-93 116 -56 321l131 743h170l-129 -739q-37 -206 84 -276q45 -26 122 -26t133 26q149 65 185 272l131 743h170l-133 -749q-40 -225 -160 -328t-337 -103z" />
    <glyph glyph-name="u.smcp" unicode="&#xf775;" horiz-adv-x="1212" 
d="M527 -25q-217 0 -311 116q-93 116 -56 321l131 743h170l-129 -739q-37 -206 84 -276q45 -26 122 -26t133 26q149 65 185 272l131 743h170l-133 -749q-40 -225 -160 -328t-337 -103z" />
    <glyph glyph-name="v.smcp" unicode="&#xe216;" horiz-adv-x="1083" 
d="M326 1155q99 -531 163 -940h3q124 252 258 501q135 248 237 439h178l-630 -1155h-162l-221 1155h174z" />
    <glyph glyph-name="v.smcp" unicode="&#xf776;" horiz-adv-x="1083" 
d="M326 1155q99 -531 163 -940h3q124 252 258 501q135 248 237 439h178l-630 -1155h-162l-221 1155h174z" />
    <glyph glyph-name="w.smcp" unicode="&#xe217;" horiz-adv-x="1536" 
d="M1042 207q41 114 416 948h160l-520 -1155h-176q-72 768 -78 905h-4q-142 -338 -400 -905h-176l-112 1155h163q15 -203 27 -334t18 -213t15 -182t14 -219h2q53 143 418 948h156q18 -209 29 -342q10 -133 18 -214t13 -156t8 -136t5 -100h4z" />
    <glyph glyph-name="w.smcp" unicode="&#xf777;" horiz-adv-x="1536" 
d="M1042 207q41 114 416 948h160l-520 -1155h-176q-72 768 -78 905h-4q-142 -338 -400 -905h-176l-112 1155h163q15 -203 27 -334t18 -213t15 -182t14 -219h2q53 143 418 948h156q18 -209 29 -342q10 -133 18 -214t13 -156t8 -136t5 -100h4z" />
    <glyph glyph-name="x.smcp" unicode="&#xe218;" horiz-adv-x="1132" 
d="M682 600l317 -600h-192l-246 465l-405 -465h-207l536 608l-282 547h190l213 -414l357 414h204z" />
    <glyph glyph-name="x.smcp" unicode="&#xf778;" horiz-adv-x="1132" 
d="M682 600l317 -600h-192l-246 465l-405 -465h-207l536 608l-282 547h190l213 -414l357 414h204z" />
    <glyph glyph-name="y.smcp" unicode="&#xe219;" horiz-adv-x="1064" 
d="M449 500l-310 655h185l231 -502l412 502h194l-543 -655l-88 -500h-170z" />
    <glyph glyph-name="y.smcp" unicode="&#xf779;" horiz-adv-x="1064" 
d="M449 500l-310 655h185l231 -502l412 502h194l-543 -655l-88 -500h-170z" />
    <glyph glyph-name="z.smcp" unicode="&#xe21a;" horiz-adv-x="1075" 
d="M231 1155h865l-21 -127l-823 -891h655l-24 -137h-877l21 123l829 895h-647z" />
    <glyph glyph-name="z.smcp" unicode="&#xf77a;" horiz-adv-x="1075" 
d="M231 1155h865l-21 -127l-823 -891h655l-24 -137h-877l21 123l829 895h-647z" />
    <glyph glyph-name="anocross.smcp" unicode="&#xe220;" horiz-adv-x="1081" 
d="M625 940h-4q-18 -41 -132 -256q-113 -215 -193 -368t-169 -316h-176l624 1155h164l219 -1155h-170z" />
    <glyph glyph-name="aacute.smcp" unicode="&#xe221;" horiz-adv-x="1081" 
d="M918 1462l-394 -213l-45 97l375 247zM713 436l-88 508h-4l-24 -48q-15 -32 -54 -106t-81 -155q-42 -82 -104 -199h355zM958 0h-170l-53 301h-448l-162 -301h-174l624 1155h164z" />
    <glyph glyph-name="aacute.smcp" unicode="&#xf7e1;" horiz-adv-x="1081" 
d="M918 1462l-394 -213l-45 97l375 247zM713 436l-88 508h-4l-24 -48q-15 -32 -54 -106t-81 -155q-42 -82 -104 -199h355zM958 0h-170l-53 301h-448l-162 -301h-174l624 1155h164z" />
    <glyph glyph-name="agrave.smcp" unicode="&#xe222;" horiz-adv-x="1081" 
d="M473 1470l102 121l299 -258l-69 -84zM713 436l-88 508h-4l-24 -48q-15 -32 -54 -106t-81 -155q-42 -82 -104 -199h355zM958 0h-170l-53 301h-448l-162 -301h-174l624 1155h164z" />
    <glyph glyph-name="agrave.smcp" unicode="&#xf7e0;" horiz-adv-x="1081" 
d="M473 1470l102 121l299 -258l-69 -84zM713 436l-88 508h-4l-24 -48q-15 -32 -54 -106t-81 -155q-42 -82 -104 -199h355zM958 0h-170l-53 301h-448l-162 -301h-174l624 1155h164z" />
    <glyph glyph-name="acircumflex.smcp" unicode="&#xe223;" horiz-adv-x="1081" 
d="M657 1585h115l191 -268l-93 -70l-165 217l-244 -219l-80 82zM713 436l-88 508h-4l-24 -48q-15 -32 -54 -106t-81 -155q-42 -82 -104 -199h355zM958 0h-170l-53 301h-448l-162 -301h-174l624 1155h164z" />
    <glyph glyph-name="acircumflex.smcp" unicode="&#xf7e2;" horiz-adv-x="1081" 
d="M657 1585h115l191 -268l-93 -70l-165 217l-244 -219l-80 82zM713 436l-88 508h-4l-24 -48q-15 -32 -54 -106t-81 -155q-42 -82 -104 -199h355zM958 0h-170l-53 301h-448l-162 -301h-174l624 1155h164z" />
    <glyph glyph-name="adieresis.smcp" unicode="&#xe224;" horiz-adv-x="1081" 
d="M881 1493q47 0 77 -30t31 -76q0 -45 -31 -77q-32 -32 -78 -32t-77 32t-31 77q0 46 31 76t78 30zM487 1278q-47 0 -77 32t-31 77q0 46 31 76q32 30 78 30t77 -30t31 -76q0 -45 -31 -77t-78 -32zM713 436l-88 508h-4l-24 -48q-15 -32 -54 -106t-81 -155q-42 -82 -104 -199
h355zM958 0h-170l-53 301h-448l-162 -301h-174l624 1155h164z" />
    <glyph glyph-name="adieresis.smcp" unicode="&#xf7e4;" horiz-adv-x="1081" 
d="M881 1493q47 0 77 -30t31 -76q0 -45 -31 -77q-32 -32 -78 -32t-77 32t-31 77q0 46 31 76t78 30zM487 1278q-47 0 -77 32t-31 77q0 46 31 76q32 30 78 30t77 -30t31 -76q0 -45 -31 -77t-78 -32zM713 436l-88 508h-4l-24 -48q-15 -32 -54 -106t-81 -155q-42 -82 -104 -199
h355zM958 0h-170l-53 301h-448l-162 -301h-174l624 1155h164z" />
    <glyph glyph-name="atilde.smcp" unicode="&#xe225;" horiz-adv-x="1081" 
d="M535 1378q-83 0 -138 -92l-82 82q45 69 109 99t132 30t143 -52q30 -19 58 -35t76 -17q48 0 87 47q20 20 34 47l82 -82q-45 -73 -129 -110q-43 -19 -109 -19t-146 51q-30 19 -56 35t-61 16zM713 436l-88 508h-4l-24 -48q-15 -32 -54 -106t-81 -155q-42 -82 -104 -199h355z
M958 0h-170l-53 301h-448l-162 -301h-174l624 1155h164z" />
    <glyph glyph-name="atilde.smcp" unicode="&#xf7e3;" horiz-adv-x="1081" 
d="M535 1378q-83 0 -138 -92l-82 82q45 69 109 99t132 30t143 -52q30 -19 58 -35t76 -17q48 0 87 47q20 20 34 47l82 -82q-45 -73 -129 -110q-43 -19 -109 -19t-146 51q-30 19 -56 35t-61 16zM713 436l-88 508h-4l-24 -48q-15 -32 -54 -106t-81 -155q-42 -82 -104 -199h355z
M958 0h-170l-53 301h-448l-162 -301h-174l624 1155h164z" />
    <glyph glyph-name="aring.smcp" unicode="&#xe226;" horiz-adv-x="1081" 
d="M494 1427q0 81 58 139t150 58t141 -48q50 -48 50 -130t-59 -141q-60 -59 -150 -59t-140 49q-50 50 -50 132zM795 1442q0 44 -25 70t-70 26q-44 0 -76 -32t-32 -75t26 -71t69 -29q44 0 76 34t32 77zM713 436l-88 508h-4l-24 -48q-15 -32 -54 -106t-81 -155
q-42 -82 -104 -199h355zM958 0h-170l-53 301h-448l-162 -301h-174l624 1155h164z" />
    <glyph glyph-name="aring.smcp" unicode="&#xf7e5;" horiz-adv-x="1081" 
d="M494 1427q0 81 58 139t150 58t141 -48q50 -48 50 -130t-59 -141q-60 -59 -150 -59t-140 49q-50 50 -50 132zM795 1442q0 44 -25 70t-70 26q-44 0 -76 -32t-32 -75t26 -71t69 -29q44 0 76 34t32 77zM713 436l-88 508h-4l-24 -48q-15 -32 -54 -106t-81 -155
q-42 -82 -104 -199h355zM958 0h-170l-53 301h-448l-162 -301h-174l624 1155h164z" />
    <glyph glyph-name="amacron.smcp" unicode="&#xe228;" horiz-adv-x="1081" 
d="M424 1411h530l-20 -121h-531zM713 436l-88 508h-4l-24 -48q-15 -32 -54 -106t-81 -155q-42 -82 -104 -199h355zM958 0h-170l-53 301h-448l-162 -301h-174l624 1155h164z" />
    <glyph glyph-name="amacron.smcp" unicode="&#xf641;" horiz-adv-x="1081" 
d="M424 1411h530l-20 -121h-531zM713 436l-88 508h-4l-24 -48q-15 -32 -54 -106t-81 -155q-42 -82 -104 -199h355zM958 0h-170l-53 301h-448l-162 -301h-174l624 1155h164z" />
    <glyph glyph-name="abreve.smcp" unicode="&#xe229;" horiz-adv-x="1081" 
d="M680 1380q72 0 126 45t75 109l135 -41q-33 -94 -122 -161q-89 -66 -215 -66t-203 63t-87 164l135 41q2 -62 43 -108t113 -46zM713 436l-88 508h-4l-24 -48q-15 -32 -54 -106t-81 -155q-42 -82 -104 -199h355zM958 0h-170l-53 301h-448l-162 -301h-174l624 1155h164z" />
    <glyph glyph-name="abreve.smcp" unicode="&#xf640;" horiz-adv-x="1081" 
d="M680 1380q72 0 126 45t75 109l135 -41q-33 -94 -122 -161q-89 -66 -215 -66t-203 63t-87 164l135 41q2 -62 43 -108t113 -46zM713 436l-88 508h-4l-24 -48q-15 -32 -54 -106t-81 -155q-42 -82 -104 -199h355zM958 0h-170l-53 301h-448l-162 -301h-174l624 1155h164z" />
    <glyph glyph-name="f_f_j" unicode="&#xe22a;" horiz-adv-x="1716" 
d="M664 1298q-141 0 -172 -174l-29 -157h426l20 110q33 197 146 289t245 92q258 0 334 -172l-135 -96q-27 53 -67 86q-41 33 -126 33q-84 -1 -144 -63t-83 -179l-18 -100h575l-196 -1127q-25 -149 -123 -219q-76 -55 -174 -55q-171 0 -256 67l94 129q23 -16 53 -32t88 -16
t97 38q39 39 49 98l174 986h-404l-147 -836h-172l147 836h-426l-147 -836h-172l147 836h-166l23 131h166l28 157q33 177 137 259q83 65 199 65q72 0 137 -24t93 -58l-92 -131q-47 63 -129 63z" />
    <glyph glyph-name="f_f_j" unicode="&#xe384;" horiz-adv-x="1716" 
d="M664 1298q-141 0 -172 -174l-29 -157h426l20 110q33 197 146 289t245 92q258 0 334 -172l-135 -96q-27 53 -67 86q-41 33 -126 33q-84 -1 -144 -63t-83 -179l-18 -100h575l-196 -1127q-25 -149 -123 -219q-76 -55 -174 -55q-171 0 -256 67l94 129q23 -16 53 -32t88 -16
t97 38q39 39 49 98l174 986h-404l-147 -836h-172l147 836h-426l-147 -836h-172l147 836h-166l23 131h166l28 157q33 177 137 259q83 65 199 65q72 0 137 -24t93 -58l-92 -131q-47 63 -129 63z" />
    <glyph glyph-name="f_f_k" unicode="&#xe22b;" horiz-adv-x="2271" 
d="M1706 512l-135 -106l-72 -406h-172l252 1434h172l-147 -838l467 371h217l-447 -357l336 -610h-195zM664 1298q-141 0 -172 -174l-29 -157h426l31 168q32 181 138 264q78 59 208 59q131 0 198 -59l-94 -133q-43 43 -118 43q-74 0 -110 -48t-50 -126l-31 -168h213l-23 -131
h-213l-147 -836h-172l147 836h-426l-147 -836h-172l147 836h-166l23 131h166l28 157q33 177 137 259q83 65 199 65q72 0 137 -24t93 -58l-92 -131q-47 63 -129 63z" />
    <glyph glyph-name="f_f_k" unicode="&#xe385;" horiz-adv-x="2271" 
d="M1706 512l-135 -106l-72 -406h-172l252 1434h172l-147 -838l467 371h217l-447 -357l336 -610h-195zM664 1298q-141 0 -172 -174l-29 -157h426l31 168q32 181 138 264q78 59 208 59q131 0 198 -59l-94 -133q-43 43 -118 43q-74 0 -110 -48t-50 -126l-31 -168h213l-23 -131
h-213l-147 -836h-172l147 836h-426l-147 -836h-172l147 836h-166l23 131h166l28 157q33 177 137 259q83 65 199 65q72 0 137 -24t93 -58l-92 -131q-47 63 -129 63z" />
    <glyph glyph-name="aogonek.smcp" unicode="&#xe22f;" horiz-adv-x="1081" 
d="M713 436l-88 508h-4l-24 -48q-15 -32 -54 -106t-81 -155q-42 -82 -104 -199h355zM580 -248q0 123 130 202q38 24 78 46l-53 301h-448l-162 -301h-174l624 1155h164l219 -1155q-121 -66 -182 -117t-61 -93q0 -81 73 -83q63 0 111 66l59 -74q-81 -98 -201 -98t-161 76
q-16 30 -16 75z" />
    <glyph glyph-name="aogonek.smcp" unicode="&#xf642;" horiz-adv-x="1081" 
d="M713 436l-88 508h-4l-24 -48q-15 -32 -54 -106t-81 -155q-42 -82 -104 -199h355zM580 -248q0 123 130 202q38 24 78 46l-53 301h-448l-162 -301h-174l624 1155h164l219 -1155q-121 -66 -182 -117t-61 -93q0 -81 73 -83q63 0 111 66l59 -74q-81 -98 -201 -98t-161 76
q-16 30 -16 75z" />
    <glyph glyph-name="edieresis.smcp" unicode="&#xe230;" horiz-adv-x="1001" 
d="M872 1278q-48 0 -78 32t-30 77q0 46 31 76t77 30t78 -30q31 -30 31 -76q0 -45 -31 -77t-78 -32zM479 1278q-47 0 -77 32t-31 77q0 46 30 76q31 30 78 30t78 -30t31 -76q0 -45 -31 -77t-78 -32zM98 0l203 1155h707l-25 -139h-537l-61 -352h502l-25 -138h-502l-67 -387h547
l-25 -139h-717z" />
    <glyph glyph-name="edieresis.smcp" unicode="&#xf7eb;" horiz-adv-x="1001" 
d="M872 1278q-48 0 -78 32t-30 77q0 46 31 76t77 30t78 -30q31 -30 31 -76q0 -45 -31 -77t-78 -32zM479 1278q-47 0 -77 32t-31 77q0 46 30 76q31 30 78 30t78 -30t31 -76q0 -45 -31 -77t-78 -32zM98 0l203 1155h707l-25 -139h-537l-61 -352h502l-25 -138h-502l-67 -387h547
l-25 -139h-717z" />
    <glyph glyph-name="ae.smcp" unicode="&#xe231;" horiz-adv-x="1593" 
d="M457 438h313l98 553h-6zM692 0l53 299h-387l-225 -299h-188l860 1155h794l-22 -139h-537l-61 -352h500l-25 -138h-500l-69 -387h547l-25 -139h-715z" />
    <glyph glyph-name="ae.smcp" unicode="&#xf7e6;" horiz-adv-x="1593" 
d="M457 438h313l98 553h-6zM692 0l53 299h-387l-225 -299h-188l860 1155h794l-22 -139h-537l-61 -352h500l-25 -138h-500l-69 -387h547l-25 -139h-715z" />
    <glyph glyph-name="cacute.smcp" unicode="&#xe234;" horiz-adv-x="1161" 
d="M999 1462l-393 -213l-45 97l375 247zM606 -25q-225 1 -352 137t-127 373q0 291 162 491t432 202q180 0 293 -80t147 -221l-162 -56q-20 97 -89 157t-180 60q-200 0 -314 -163q-113 -163 -113 -388q0 -256 172 -344q57 -29 137 -28q195 0 297 219l158 -58
q-67 -139 -181 -220t-280 -81z" />
    <glyph glyph-name="cacute.smcp" unicode="&#xf643;" horiz-adv-x="1161" 
d="M999 1462l-393 -213l-45 97l375 247zM606 -25q-225 1 -352 137t-127 373q0 291 162 491t432 202q180 0 293 -80t147 -221l-162 -56q-20 97 -89 157t-180 60q-200 0 -314 -163q-113 -163 -113 -388q0 -256 172 -344q57 -29 137 -28q195 0 297 219l158 -58
q-67 -139 -181 -220t-280 -81z" />
    <glyph glyph-name="ccircumflex.smcp" unicode="&#xe235;" horiz-adv-x="1161" 
d="M754 1585h114l191 -268l-92 -70l-166 217l-244 -219l-80 82zM606 -25q-225 1 -352 137t-127 373q0 291 162 491t432 202q180 0 293 -80t147 -221l-162 -56q-20 97 -89 157t-180 60q-200 0 -314 -163q-113 -163 -113 -388q0 -256 172 -344q57 -29 137 -28q195 0 297 219
l158 -58q-67 -139 -181 -220t-280 -81z" />
    <glyph glyph-name="ccircumflex.smcp" unicode="&#xf628;" horiz-adv-x="1161" 
d="M754 1585h114l191 -268l-92 -70l-166 217l-244 -219l-80 82zM606 -25q-225 1 -352 137t-127 373q0 291 162 491t432 202q180 0 293 -80t147 -221l-162 -56q-20 97 -89 157t-180 60q-200 0 -314 -163q-113 -163 -113 -388q0 -256 172 -344q57 -29 137 -28q195 0 297 219
l158 -58q-67 -139 -181 -220t-280 -81z" />
    <glyph glyph-name="ccaron.smcp" unicode="&#xe236;" horiz-adv-x="1161" 
d="M813 1253h-115l-184 269l92 69l160 -217l244 219l80 -82zM606 -25q-225 1 -352 137t-127 373q0 291 162 491t432 202q180 0 293 -80t147 -221l-162 -56q-20 97 -89 157t-180 60q-200 0 -314 -163q-113 -163 -113 -388q0 -256 172 -344q57 -29 137 -28q195 0 297 219
l158 -58q-67 -139 -181 -220t-280 -81z" />
    <glyph glyph-name="ccaron.smcp" unicode="&#xf644;" horiz-adv-x="1161" 
d="M813 1253h-115l-184 269l92 69l160 -217l244 219l80 -82zM606 -25q-225 1 -352 137t-127 373q0 291 162 491t432 202q180 0 293 -80t147 -221l-162 -56q-20 97 -89 157t-180 60q-200 0 -314 -163q-113 -163 -113 -388q0 -256 172 -344q57 -29 137 -28q195 0 297 219
l158 -58q-67 -139 -181 -220t-280 -81z" />
    <glyph glyph-name="cdotaccent.smcp" unicode="&#xe237;" horiz-adv-x="1161" 
d="M780 1274q-48 0 -80 32t-32 81q0 48 31 79q32 31 81 31t81 -31t32 -79q0 -49 -32 -81t-81 -32zM606 -25q-225 1 -352 137t-127 373q0 291 162 491t432 202q180 0 293 -80t147 -221l-162 -56q-20 97 -89 157t-180 60q-200 0 -314 -163q-113 -163 -113 -388
q0 -256 172 -344q57 -29 137 -28q195 0 297 219l158 -58q-67 -139 -181 -220t-280 -81z" />
    <glyph glyph-name="cdotaccent.smcp" unicode="&#xf629;" horiz-adv-x="1161" 
d="M780 1274q-48 0 -80 32t-32 81q0 48 31 79q32 31 81 31t81 -31t32 -79q0 -49 -32 -81t-81 -32zM606 -25q-225 1 -352 137t-127 373q0 291 162 491t432 202q180 0 293 -80t147 -221l-162 -56q-20 97 -89 157t-180 60q-200 0 -314 -163q-113 -163 -113 -388
q0 -256 172 -344q57 -29 137 -28q195 0 297 219l158 -58q-67 -139 -181 -220t-280 -81z" />
    <glyph glyph-name="ccedilla.smcp" unicode="&#xe238;" horiz-adv-x="1161" 
d="M606 -25h-33l-51 -92q23 17 70 17t87 -42t40 -125q1 -83 -63 -136t-142 -53q-125 -1 -176 59l63 78q39 -39 93 -39t80 26t26 70q0 72 -76 72q-36 0 -82 -27l-45 55l86 150q-170 35 -263 164t-93 333q0 291 162 491t432 202q180 0 293 -80t147 -221l-162 -56
q-20 97 -89 157t-180 60q-200 0 -314 -163q-113 -163 -113 -388q0 -256 172 -344q57 -29 137 -28q195 0 297 219l158 -58q-67 -139 -181 -220t-280 -81z" />
    <glyph glyph-name="ccedilla.smcp" unicode="&#xf7e7;" horiz-adv-x="1161" 
d="M606 -25h-33l-51 -92q23 17 70 17t87 -42t40 -125q1 -83 -63 -136t-142 -53q-125 -1 -176 59l63 78q39 -39 93 -39t80 26t26 70q0 72 -76 72q-36 0 -82 -27l-45 55l86 150q-170 35 -263 164t-93 333q0 291 162 491t432 202q180 0 293 -80t147 -221l-162 -56
q-20 97 -89 157t-180 60q-200 0 -314 -163q-113 -163 -113 -388q0 -256 172 -344q57 -29 137 -28q195 0 297 219l158 -58q-67 -139 -181 -220t-280 -81z" />
    <glyph glyph-name="dcaron.smcp" unicode="&#xe239;" horiz-adv-x="1245" 
d="M748 1253h-115l-184 269l92 69l159 -217l244 219l80 -82zM684 1155q215 0 340 -122t125 -339q0 -325 -174 -509q-174 -185 -471 -185h-406l203 1155h383zM971 714q0 134 -82 218t-250 84h-193l-153 -877h213q227 0 346 159q119 158 119 416z" />
    <glyph glyph-name="dcaron.smcp" unicode="&#xf645;" horiz-adv-x="1245" 
d="M748 1253h-115l-184 269l92 69l159 -217l244 219l80 -82zM684 1155q215 0 340 -122t125 -339q0 -325 -174 -509q-174 -185 -471 -185h-406l203 1155h383zM971 714q0 134 -82 218t-250 84h-193l-153 -877h213q227 0 346 159q119 158 119 416z" />
    <glyph glyph-name="dcroat.smcp" unicode="&#xe23c;" horiz-adv-x="1273" 
d="M999 714q0 134 -81 218q-82 84 -250 84h-193l-61 -354h295l-21 -121h-297l-69 -402h213q117 0 204 44q260 129 260 531zM713 1155q215 0 340 -122t125 -339q0 -326 -175 -510t-471 -184h-405l94 541h-139l20 121h142l86 493h383z" />
    <glyph glyph-name="dcroat.smcp" unicode="&#xf646;" horiz-adv-x="1273" 
d="M999 714q0 134 -81 218q-82 84 -250 84h-193l-61 -354h295l-21 -121h-297l-69 -402h213q117 0 204 44q260 129 260 531zM713 1155q215 0 340 -122t125 -339q0 -326 -175 -510t-471 -184h-405l94 541h-139l20 121h142l86 493h383z" />
    <glyph glyph-name="eacute.smcp" unicode="&#xe23d;" horiz-adv-x="1001" 
d="M936 1462l-393 -213l-45 97l374 247zM98 0l203 1155h707l-25 -139h-537l-61 -352h502l-25 -138h-502l-67 -387h547l-25 -139h-717z" />
    <glyph glyph-name="eacute.smcp" unicode="&#xf7e9;" horiz-adv-x="1001" 
d="M936 1462l-393 -213l-45 97l374 247zM98 0l203 1155h707l-25 -139h-537l-61 -352h502l-25 -138h-502l-67 -387h547l-25 -139h-717z" />
    <glyph glyph-name="egrave.smcp" unicode="&#xe23e;" horiz-adv-x="1001" 
d="M475 1470l103 121l299 -258l-70 -84zM98 0l203 1155h707l-25 -139h-537l-61 -352h502l-25 -138h-502l-67 -387h547l-25 -139h-717z" />
    <glyph glyph-name="egrave.smcp" unicode="&#xf7e8;" horiz-adv-x="1001" 
d="M475 1470l103 121l299 -258l-70 -84zM98 0l203 1155h707l-25 -139h-537l-61 -352h502l-25 -138h-502l-67 -387h547l-25 -139h-717z" />
    <glyph glyph-name="ecircumflex.smcp" unicode="&#xe23f;" horiz-adv-x="1001" 
d="M662 1585h114l191 -268l-93 -70l-165 217l-244 -219l-80 82zM98 0l203 1155h707l-25 -139h-537l-61 -352h502l-25 -138h-502l-67 -387h547l-25 -139h-717z" />
    <glyph glyph-name="ecircumflex.smcp" unicode="&#xf7ea;" horiz-adv-x="1001" 
d="M662 1585h114l191 -268l-93 -70l-165 217l-244 -219l-80 82zM98 0l203 1155h707l-25 -139h-537l-61 -352h502l-25 -138h-502l-67 -387h547l-25 -139h-717z" />
    <glyph glyph-name="gcommaaccent.smcp" unicode="&#xe240;" horiz-adv-x="1271" 
d="M639 -227q0 -137 -109 -201q-41 -25 -104 -27l-18 68q46 1 82 23t40 67q-2 -2 -4 -2h-14q-36 2 -60 28q-24 27 -24 61t26 68t78 34t80 -40q27 -39 27 -79zM717 1038q-183 0 -299 -162q-115 -162 -115 -397q0 -166 76 -265t233 -99q118 0 208 70q91 70 110 194l12 74h-324
l25 133h490l-103 -586h-158l21 123q-62 -92 -207 -134q-49 -13 -133 -13t-169 38q-85 39 -142 107q-115 137 -115 362q0 281 163 487t435 208q174 0 286 -78t154 -219l-164 -54q-50 211 -284 211z" />
    <glyph glyph-name="gcommaaccent.smcp" unicode="&#xf64c;" horiz-adv-x="1271" 
d="M639 -227q0 -137 -109 -201q-41 -25 -104 -27l-18 68q46 1 82 23t40 67q-2 -2 -4 -2h-14q-36 2 -60 28q-24 27 -24 61t26 68t78 34t80 -40q27 -39 27 -79zM717 1038q-183 0 -299 -162q-115 -162 -115 -397q0 -166 76 -265t233 -99q118 0 208 70q91 70 110 194l12 74h-324
l25 133h490l-103 -586h-158l21 123q-62 -92 -207 -134q-49 -13 -133 -13t-169 38q-85 39 -142 107q-115 137 -115 362q0 281 163 487t435 208q174 0 286 -78t154 -219l-164 -54q-50 211 -284 211z" />
    <glyph glyph-name="ecaron.smcp" unicode="&#xe241;" horiz-adv-x="1001" 
d="M721 1253h-115l-184 269l92 69l160 -217l244 219l79 -82zM98 0l203 1155h707l-25 -139h-537l-61 -352h502l-25 -138h-502l-67 -387h547l-25 -139h-717z" />
    <glyph glyph-name="ecaron.smcp" unicode="&#xf647;" horiz-adv-x="1001" 
d="M721 1253h-115l-184 269l92 69l160 -217l244 219l79 -82zM98 0l203 1155h707l-25 -139h-537l-61 -352h502l-25 -138h-502l-67 -387h547l-25 -139h-717z" />
    <glyph glyph-name="emacron.smcp" unicode="&#xe242;" horiz-adv-x="1001" 
d="M428 1411h530l-20 -121h-530zM98 0l203 1155h707l-25 -139h-537l-61 -352h502l-25 -138h-502l-67 -387h547l-25 -139h-717z" />
    <glyph glyph-name="emacron.smcp" unicode="&#xf649;" horiz-adv-x="1001" 
d="M428 1411h530l-20 -121h-530zM98 0l203 1155h707l-25 -139h-537l-61 -352h502l-25 -138h-502l-67 -387h547l-25 -139h-717z" />
    <glyph glyph-name="ebreve.smcp" unicode="&#xe243;" horiz-adv-x="1001" 
d="M676 1380q72 0 126 45t75 109l135 -41q-33 -94 -122 -161q-89 -66 -215 -66t-203 63t-87 164l135 41q2 -62 43 -108t113 -46zM98 0l203 1155h707l-25 -139h-537l-61 -352h502l-25 -138h-502l-67 -387h547l-25 -139h-717z" />
    <glyph glyph-name="ebreve.smcp" unicode="&#xf62a;" horiz-adv-x="1001" 
d="M676 1380q72 0 126 45t75 109l135 -41q-33 -94 -122 -161q-89 -66 -215 -66t-203 63t-87 164l135 41q2 -62 43 -108t113 -46zM98 0l203 1155h707l-25 -139h-537l-61 -352h502l-25 -138h-502l-67 -387h547l-25 -139h-717z" />
    <glyph glyph-name="edotaccent.smcp" unicode="&#xe246;" horiz-adv-x="1001" 
d="M682 1274q-49 0 -81 32t-32 81q0 48 32 79t81 31t81 -31t32 -79q0 -49 -32 -81t-81 -32zM98 0l203 1155h707l-25 -139h-537l-61 -352h502l-25 -138h-502l-67 -387h547l-25 -139h-717z" />
    <glyph glyph-name="edotaccent.smcp" unicode="&#xf648;" horiz-adv-x="1001" 
d="M682 1274q-49 0 -81 32t-32 81q0 48 32 79t81 31t81 -31t32 -79q0 -49 -32 -81t-81 -32zM98 0l203 1155h707l-25 -139h-537l-61 -352h502l-25 -138h-502l-67 -387h547l-25 -139h-717z" />
    <glyph glyph-name="eogonek.smcp" unicode="&#xe249;" horiz-adv-x="1001" 
d="M518 -399q-176 1 -176 159q0 82 62 142t145 98h-451l203 1155h707l-25 -139h-537l-61 -352h502l-25 -138h-502l-67 -387h547l-25 -139h-102q-235 -132 -236 -212q-1 -79 74 -81q63 0 111 66l59 -74q-81 -98 -203 -98z" />
    <glyph glyph-name="eogonek.smcp" unicode="&#xf64a;" horiz-adv-x="1001" 
d="M518 -399q-176 1 -176 159q0 82 62 142t145 98h-451l203 1155h707l-25 -139h-537l-61 -352h502l-25 -138h-502l-67 -387h547l-25 -139h-102q-235 -132 -236 -212q-1 -79 74 -81q63 0 111 66l59 -74q-81 -98 -203 -98z" />
    <glyph glyph-name="gcircumflex.smcp" unicode="&#xe24b;" horiz-adv-x="1271" 
d="M748 1585h114l191 -268l-92 -70l-166 217l-244 -219l-80 82zM717 1038q-183 0 -299 -162q-115 -162 -115 -397q0 -166 76 -265t233 -99q118 0 208 70q91 70 110 194l12 74h-324l25 133h490l-103 -586h-158l21 123q-62 -92 -207 -134q-49 -13 -133 -13t-169 38
q-85 39 -142 107q-115 137 -115 362q0 281 163 487t435 208q174 0 286 -78t154 -219l-164 -54q-50 211 -284 211z" />
    <glyph glyph-name="gcircumflex.smcp" unicode="&#xf62c;" horiz-adv-x="1271" 
d="M748 1585h114l191 -268l-92 -70l-166 217l-244 -219l-80 82zM717 1038q-183 0 -299 -162q-115 -162 -115 -397q0 -166 76 -265t233 -99q118 0 208 70q91 70 110 194l12 74h-324l25 133h490l-103 -586h-158l21 123q-62 -92 -207 -134q-49 -13 -133 -13t-169 38
q-85 39 -142 107q-115 137 -115 362q0 281 163 487t435 208q174 0 286 -78t154 -219l-164 -54q-50 211 -284 211z" />
    <glyph glyph-name="gbreve.smcp" unicode="&#xe24e;" horiz-adv-x="1271" 
d="M772 1380q72 0 126 45t75 109l135 -41q-33 -94 -122 -161q-89 -66 -215 -66t-203 63t-87 164l135 41q2 -62 43 -108t113 -46zM717 1038q-183 0 -299 -162q-115 -162 -115 -397q0 -166 76 -265t233 -99q118 0 208 70q91 70 110 194l12 74h-324l25 133h490l-103 -586h-158
l21 123q-62 -92 -207 -134q-49 -13 -133 -13t-169 38q-85 39 -142 107q-115 137 -115 362q0 281 163 487t435 208q174 0 286 -78t154 -219l-164 -54q-50 211 -284 211z" />
    <glyph glyph-name="gbreve.smcp" unicode="&#xf64b;" horiz-adv-x="1271" 
d="M772 1380q72 0 126 45t75 109l135 -41q-33 -94 -122 -161q-89 -66 -215 -66t-203 63t-87 164l135 41q2 -62 43 -108t113 -46zM717 1038q-183 0 -299 -162q-115 -162 -115 -397q0 -166 76 -265t233 -99q118 0 208 70q91 70 110 194l12 74h-324l25 133h490l-103 -586h-158
l21 123q-62 -92 -207 -134q-49 -13 -133 -13t-169 38q-85 39 -142 107q-115 137 -115 362q0 281 163 487t435 208q174 0 286 -78t154 -219l-164 -54q-50 211 -284 211z" />
    <glyph glyph-name="gdotaccent.smcp" unicode="&#xe24f;" horiz-adv-x="1271" 
d="M784 1274q-48 0 -80 32t-32 81q0 48 31 79q32 31 81 31t81 -31t32 -79q0 -49 -32 -81t-81 -32zM717 1038q-183 0 -299 -162q-115 -162 -115 -397q0 -166 76 -265t233 -99q118 0 208 70q91 70 110 194l12 74h-324l25 133h490l-103 -586h-158l21 123q-62 -92 -207 -134
q-49 -13 -133 -13t-169 38q-85 39 -142 107q-115 137 -115 362q0 281 163 487t435 208q174 0 286 -78t154 -219l-164 -54q-50 211 -284 211z" />
    <glyph glyph-name="gdotaccent.smcp" unicode="&#xf62d;" horiz-adv-x="1271" 
d="M784 1274q-48 0 -80 32t-32 81q0 48 31 79q32 31 81 31t81 -31t32 -79q0 -49 -32 -81t-81 -32zM717 1038q-183 0 -299 -162q-115 -162 -115 -397q0 -166 76 -265t233 -99q118 0 208 70q91 70 110 194l12 74h-324l25 133h490l-103 -586h-158l21 123q-62 -92 -207 -134
q-49 -13 -133 -13t-169 38q-85 39 -142 107q-115 137 -115 362q0 281 163 487t435 208q174 0 286 -78t154 -219l-164 -54q-50 211 -284 211z" />
    <glyph glyph-name="hcircumflex.smcp" unicode="&#xe253;" horiz-adv-x="1241" 
d="M735 1585h115l190 -268l-92 -70l-166 217l-243 -219l-80 82zM301 1155h170l-86 -489h533l86 489h170l-203 -1155h-170l92 526h-533l-92 -526h-170z" />
    <glyph glyph-name="hcircumflex.smcp" unicode="&#xf62f;" horiz-adv-x="1241" 
d="M735 1585h115l190 -268l-92 -70l-166 217l-243 -219l-80 82zM301 1155h170l-86 -489h533l86 489h170l-203 -1155h-170l92 526h-533l-92 -526h-170z" />
    <glyph glyph-name="hbar.smcp" unicode="&#xe257;" horiz-adv-x="1241" 
d="M918 666l26 157h-532l-27 -157h533zM242 823h-125l22 131h127l35 201h170l-35 -201h533l35 201h170l-35 -201h127l-23 -131h-129l-143 -823h-170l92 526h-533l-92 -526h-170z" />
    <glyph glyph-name="hbar.smcp" unicode="&#xf62e;" horiz-adv-x="1241" 
d="M918 666l26 157h-532l-27 -157h533zM242 823h-125l22 131h127l35 201h170l-35 -201h533l35 201h170l-35 -201h127l-23 -131h-129l-143 -823h-170l92 526h-533l-92 -526h-170z" />
    <glyph glyph-name="iacute.smcp" unicode="&#xe258;" horiz-adv-x="538" 
d="M631 1462l-393 -213l-45 97l374 247zM301 1155h170l-203 -1155h-170z" />
    <glyph glyph-name="iacute.smcp" unicode="&#xf7ed;" horiz-adv-x="538" 
d="M631 1462l-393 -213l-45 97l374 247zM301 1155h170l-203 -1155h-170z" />
    <glyph glyph-name="igrave.smcp" unicode="&#xe259;" horiz-adv-x="538" 
d="M223 1470l103 121l299 -258l-70 -84zM301 1155h170l-203 -1155h-170z" />
    <glyph glyph-name="igrave.smcp" unicode="&#xf7ec;" horiz-adv-x="538" 
d="M223 1470l103 121l299 -258l-70 -84zM301 1155h170l-203 -1155h-170z" />
    <glyph glyph-name="icircumflex.smcp" unicode="&#xe25a;" horiz-adv-x="538" 
d="M389 1585h115l190 -268l-92 -70l-166 217l-243 -219l-80 82zM301 1155h170l-203 -1155h-170z" />
    <glyph glyph-name="icircumflex.smcp" unicode="&#xf7ee;" horiz-adv-x="538" 
d="M389 1585h115l190 -268l-92 -70l-166 217l-243 -219l-80 82zM301 1155h170l-203 -1155h-170z" />
    <glyph glyph-name="idieresis.smcp" unicode="&#xe25b;" horiz-adv-x="538" 
d="M612 1278q-48 0 -78 32t-30 77q0 46 31 76t77 30t78 -30q31 -30 31 -76q0 -45 -31 -77t-78 -32zM219 1278q-47 0 -77 32t-31 77q0 46 30 76q31 30 78 30t78 -30t31 -76q0 -45 -31 -77t-78 -32zM301 1155h170l-203 -1155h-170z" />
    <glyph glyph-name="idieresis.smcp" unicode="&#xf7ef;" horiz-adv-x="538" 
d="M612 1278q-48 0 -78 32t-30 77q0 46 31 76t77 30t78 -30q31 -30 31 -76q0 -45 -31 -77t-78 -32zM219 1278q-47 0 -77 32t-31 77q0 46 30 76q31 30 78 30t78 -30t31 -76q0 -45 -31 -77t-78 -32zM301 1155h170l-203 -1155h-170z" />
    <glyph glyph-name="itilde.smcp" unicode="&#xe25c;" horiz-adv-x="538" 
d="M266 1378q-82 0 -137 -92l-82 82q46 71 129 109q44 20 112 20t143 -52q29 -19 57 -35t63 -17q83 0 135 94l82 -82q-45 -73 -129 -110q-43 -19 -109 -19t-146 51q-30 19 -56 35t-62 16zM301 1155h170l-203 -1155h-170z" />
    <glyph glyph-name="itilde.smcp" unicode="&#xf632;" horiz-adv-x="538" 
d="M266 1378q-82 0 -137 -92l-82 82q46 71 129 109q44 20 112 20t143 -52q29 -19 57 -35t63 -17q83 0 135 94l82 -82q-45 -73 -129 -110q-43 -19 -109 -19t-146 51q-30 19 -56 35t-62 16zM301 1155h170l-203 -1155h-170z" />
    <glyph glyph-name="imacron.smcp" unicode="&#xe25e;" horiz-adv-x="538" 
d="M156 1411h530l-20 -121h-531zM301 1155h170l-203 -1155h-170z" />
    <glyph glyph-name="imacron.smcp" unicode="&#xf64d;" horiz-adv-x="538" 
d="M156 1411h530l-20 -121h-531zM301 1155h170l-203 -1155h-170z" />
    <glyph glyph-name="ibreve.smcp" unicode="&#xe25f;" horiz-adv-x="538" 
d="M408 1380q72 0 126 45t74 109l135 -41q-33 -94 -121 -161q-88 -66 -216 -66q-126 0 -202 63t-87 164l135 41q2 -62 43 -108t113 -46zM301 1155h170l-203 -1155h-170z" />
    <glyph glyph-name="ibreve.smcp" unicode="&#xf630;" horiz-adv-x="538" 
d="M408 1380q72 0 126 45t74 109l135 -41q-33 -94 -121 -161q-88 -66 -216 -66q-126 0 -202 63t-87 164l135 41q2 -62 43 -108t113 -46zM301 1155h170l-203 -1155h-170z" />
    <glyph glyph-name="idotaccent.smcp" unicode="&#xe262;" horiz-adv-x="538" 
d="M416 1274q-49 0 -81 32t-32 81q0 48 32 79t81 31t81 -31q31 -31 31 -79q0 -49 -32 -81t-80 -32zM301 1155h170l-203 -1155h-170z" />
    <glyph glyph-name="idotaccent.smcp" unicode="&#xf666;" horiz-adv-x="538" 
d="M416 1274q-49 0 -81 32t-32 81q0 48 32 79t81 31t81 -31q31 -31 31 -79q0 -49 -32 -81t-80 -32zM301 1155h170l-203 -1155h-170z" />
    <glyph glyph-name="iogonek.smcp" unicode="&#xe264;" horiz-adv-x="538" 
d="M-113 -263q0 135 132 217q38 24 79 46l203 1155h170l-203 -1155q-121 -66 -183 -117t-62 -104q0 -31 19 -51t54 -21q63 0 111 66l59 -74q-81 -98 -203 -98q-82 0 -129 38t-47 98z" />
    <glyph glyph-name="iogonek.smcp" unicode="&#xf64e;" horiz-adv-x="538" 
d="M-113 -263q0 135 132 217q38 24 79 46l203 1155h170l-203 -1155q-121 -66 -183 -117t-62 -104q0 -31 19 -51t54 -21q63 0 111 66l59 -74q-81 -98 -203 -98q-82 0 -129 38t-47 98z" />
    <glyph glyph-name="jcircumflex.smcp" unicode="&#xe265;" horiz-adv-x="780" 
d="M643 1585h115l190 -268l-92 -70l-166 217l-244 -219l-79 82zM221 115q86 1 130 67t67 195l137 778h170l-137 -778q-36 -196 -105 -286q-88 -116 -270 -116t-270 131l125 109q35 -51 67 -76q33 -24 86 -24z" />
    <glyph glyph-name="jcircumflex.smcp" unicode="&#xf633;" horiz-adv-x="780" 
d="M643 1585h115l190 -268l-92 -70l-166 217l-244 -219l-79 82zM221 115q86 1 130 67t67 195l137 778h170l-137 -778q-36 -196 -105 -286q-88 -116 -270 -116t-270 131l125 109q35 -51 67 -76q33 -24 86 -24z" />
    <glyph glyph-name="kcommaaccent.smcp" unicode="&#xe268;" horiz-adv-x="1089" 
d="M582 -227q0 -137 -109 -201q-41 -25 -104 -27l-19 68q47 1 83 23t40 67q-2 -2 -4 -2h-14q-35 2 -60 28q-53 55 1 129q26 34 79 34t80 -40q27 -39 27 -79zM489 571l-143 -129l-78 -442h-170l203 1155h170l-86 -491l551 491h209l-522 -471l358 -684h-197z" />
    <glyph glyph-name="kcommaaccent.smcp" unicode="&#xf64f;" horiz-adv-x="1089" 
d="M582 -227q0 -137 -109 -201q-41 -25 -104 -27l-19 68q47 1 83 23t40 67q-2 -2 -4 -2h-14q-35 2 -60 28q-53 55 1 129q26 34 79 34t80 -40q27 -39 27 -79zM489 571l-143 -129l-78 -442h-170l203 1155h170l-86 -491l551 491h209l-522 -471l358 -684h-197z" />
    <glyph glyph-name="lacute.smcp" unicode="&#xe26b;" horiz-adv-x="909" 
d="M739 1462l-393 -213l-45 97l375 247zM301 1155h170l-178 -1016h510l-23 -139h-682z" />
    <glyph glyph-name="lacute.smcp" unicode="&#xf650;" horiz-adv-x="909" 
d="M739 1462l-393 -213l-45 97l375 247zM301 1155h170l-178 -1016h510l-23 -139h-682z" />
    <glyph glyph-name="lcaron.smcp" unicode="&#xe26c;" horiz-adv-x="909" 
d="M829 1124l-180 -313l-92 31l137 327zM301 1155h170l-178 -1016h510l-23 -139h-682z" />
    <glyph glyph-name="lcaron.smcp" unicode="&#xf651;" horiz-adv-x="909" 
d="M829 1124l-180 -313l-92 31l137 327zM301 1155h170l-178 -1016h510l-23 -139h-682z" />
    <glyph glyph-name="lcommaaccent.smcp" unicode="&#xe26d;" horiz-adv-x="909" 
d="M512 -227q0 -137 -109 -201q-41 -25 -104 -27l-18 68q47 1 83 23t39 67q-2 -2 -4 -2h-14q-35 2 -59 28q-24 27 -25 61q0 34 26 68t79 34q54 0 80 -40q26 -39 26 -79zM301 1155h170l-178 -1016h510l-23 -139h-682z" />
    <glyph glyph-name="lcommaaccent.smcp" unicode="&#xf652;" horiz-adv-x="909" 
d="M512 -227q0 -137 -109 -201q-41 -25 -104 -27l-18 68q47 1 83 23t39 67q-2 -2 -4 -2h-14q-35 2 -59 28q-24 27 -25 61q0 34 26 68t79 34q54 0 80 -40q26 -39 26 -79zM301 1155h170l-178 -1016h510l-23 -139h-682z" />
    <glyph glyph-name="ldot.smcp" unicode="&#xe271;" horiz-adv-x="909" 
d="M563 593q0 48 32 79q32 30 81 30t81 -30q31 -30 31 -79q0 -48 -32 -81t-80 -33q-49 0 -81 33t-32 81zM301 1155h170l-178 -1016h510l-23 -139h-682z" />
    <glyph glyph-name="ldot.smcp" unicode="&#xf634;" horiz-adv-x="909" 
d="M563 593q0 48 32 79q32 30 81 30t81 -30q31 -30 31 -79q0 -48 -32 -81t-80 -33q-49 0 -81 33t-32 81zM301 1155h170l-178 -1016h510l-23 -139h-682z" />
    <glyph glyph-name="lslash.smcp" unicode="&#xe272;" horiz-adv-x="929" 
d="M188 401l-102 -55l-49 117l180 98l105 594h170l-86 -491l251 137l50 -117l-330 -180l-64 -365h510l-22 -139h-682z" />
    <glyph glyph-name="lslash.smcp" unicode="&#xf6f9;" horiz-adv-x="929" 
d="M188 401l-102 -55l-49 117l180 98l105 594h170l-86 -491l251 137l50 -117l-330 -180l-64 -365h510l-22 -139h-682z" />
    <glyph glyph-name="nacute.smcp" unicode="&#xe276;" horiz-adv-x="1286" 
d="M1051 1462l-394 -213l-45 97l375 247zM840 0l-422 905h-4l-158 -905h-158l203 1155h176q358 -757 422 -905h4l158 905h158l-203 -1155h-176z" />
    <glyph glyph-name="nacute.smcp" unicode="&#xf653;" horiz-adv-x="1286" 
d="M1051 1462l-394 -213l-45 97l375 247zM840 0l-422 905h-4l-158 -905h-158l203 1155h176q358 -757 422 -905h4l158 905h158l-203 -1155h-176z" />
    <glyph glyph-name="ntilde.smcp" unicode="&#xe279;" horiz-adv-x="1286" 
d="M649 1378q-82 0 -137 -92l-82 82q46 71 129 109q44 20 112 20t143 -52q30 -19 58 -35t62 -17q83 0 135 94l82 -82q-45 -73 -129 -110q-43 -19 -109 -19t-146 51q-31 19 -57 35t-61 16zM840 0l-422 905h-4l-158 -905h-158l203 1155h176q358 -757 422 -905h4l158 905h158
l-203 -1155h-176z" />
    <glyph glyph-name="ncaron.smcp" unicode="&#xe27a;" horiz-adv-x="1286" 
d="M827 1253h-114l-185 269l93 69l159 -217l244 219l80 -82zM840 0l-422 905h-4l-158 -905h-158l203 1155h176q358 -757 422 -905h4l158 905h158l-203 -1155h-176z" />
    <glyph glyph-name="ncaron.smcp" unicode="&#xf654;" horiz-adv-x="1286" 
d="M827 1253h-114l-185 269l93 69l159 -217l244 219l80 -82zM840 0l-422 905h-4l-158 -905h-158l203 1155h176q358 -757 422 -905h4l158 905h158l-203 -1155h-176z" />
    <glyph glyph-name="ncommaaccent.smcp" unicode="&#xe27d;" horiz-adv-x="1286" 
d="M641 -227q0 -137 -109 -201q-41 -25 -104 -27l-18 68q47 1 83 23t39 67q-2 -2 -4 -2h-14q-36 2 -60 28q-24 27 -24 61t26 68t79 34t79 -40q26 -39 27 -79zM840 0l-422 905h-4l-158 -905h-158l203 1155h176q358 -757 422 -905h4l158 905h158l-203 -1155h-176z" />
    <glyph glyph-name="ncommaaccent.smcp" unicode="&#xf655;" horiz-adv-x="1286" 
d="M641 -227q0 -137 -109 -201q-41 -25 -104 -27l-18 68q47 1 83 23t39 67q-2 -2 -4 -2h-14q-36 2 -60 28q-24 27 -24 61t26 68t79 34t79 -40q26 -39 27 -79zM840 0l-422 905h-4l-158 -905h-158l203 1155h176q358 -757 422 -905h4l158 905h158l-203 -1155h-176z" />
    <glyph glyph-name="oacute.smcp" unicode="&#xe281;" horiz-adv-x="1288" 
d="M999 1462l-393 -213l-45 97l375 247zM1016 666q0 169 -79 272q-79 102 -226 100q-192 0 -308 -189q-100 -163 -100 -370q0 -250 170 -336q57 -29 148 -29t167 54q76 53 127 135q51 83 76 181t25 182zM127 489q0 129 40 256q83 263 303 376q110 57 234 57q232 1 360 -135
q128 -135 128 -367q0 -294 -162 -497q-162 -202 -430 -204q-220 0 -346 136q-127 137 -127 378z" />
    <glyph glyph-name="oacute.smcp" unicode="&#xf7f3;" horiz-adv-x="1288" 
d="M999 1462l-393 -213l-45 97l375 247zM1016 666q0 169 -79 272q-79 102 -226 100q-192 0 -308 -189q-100 -163 -100 -370q0 -250 170 -336q57 -29 148 -29t167 54q76 53 127 135q51 83 76 181t25 182zM127 489q0 129 40 256q83 263 303 376q110 57 234 57q232 1 360 -135
q128 -135 128 -367q0 -294 -162 -497q-162 -202 -430 -204q-220 0 -346 136q-127 137 -127 378z" />
    <glyph glyph-name="ograve.smcp" unicode="&#xe282;" horiz-adv-x="1288" 
d="M578 1470l102 121l299 -258l-70 -84zM1016 666q0 169 -79 272q-79 102 -226 100q-192 0 -308 -189q-100 -163 -100 -370q0 -250 170 -336q57 -29 148 -29t167 54q76 53 127 135q51 83 76 181t25 182zM127 489q0 129 40 256q83 263 303 376q110 57 234 57q232 1 360 -135
q128 -135 128 -367q0 -294 -162 -497q-162 -202 -430 -204q-220 0 -346 136q-127 137 -127 378z" />
    <glyph glyph-name="ograve.smcp" unicode="&#xf7f2;" horiz-adv-x="1288" 
d="M578 1470l102 121l299 -258l-70 -84zM1016 666q0 169 -79 272q-79 102 -226 100q-192 0 -308 -189q-100 -163 -100 -370q0 -250 170 -336q57 -29 148 -29t167 54q76 53 127 135q51 83 76 181t25 182zM127 489q0 129 40 256q83 263 303 376q110 57 234 57q232 1 360 -135
q128 -135 128 -367q0 -294 -162 -497q-162 -202 -430 -204q-220 0 -346 136q-127 137 -127 378z" />
    <glyph glyph-name="ocircumflex.smcp" unicode="&#xe283;" horiz-adv-x="1288" 
d="M750 1585h114l191 -268l-92 -70l-166 217l-244 -219l-80 82zM1016 666q0 169 -79 272q-79 102 -226 100q-192 0 -308 -189q-100 -163 -100 -370q0 -250 170 -336q57 -29 148 -29t167 54q76 53 127 135q51 83 76 181t25 182zM127 489q0 129 40 256q83 263 303 376
q110 57 234 57q232 1 360 -135q128 -135 128 -367q0 -294 -162 -497q-162 -202 -430 -204q-220 0 -346 136q-127 137 -127 378z" />
    <glyph glyph-name="ocircumflex.smcp" unicode="&#xf7f4;" horiz-adv-x="1288" 
d="M750 1585h114l191 -268l-92 -70l-166 217l-244 -219l-80 82zM1016 666q0 169 -79 272q-79 102 -226 100q-192 0 -308 -189q-100 -163 -100 -370q0 -250 170 -336q57 -29 148 -29t167 54q76 53 127 135q51 83 76 181t25 182zM127 489q0 129 40 256q83 263 303 376
q110 57 234 57q232 1 360 -135q128 -135 128 -367q0 -294 -162 -497q-162 -202 -430 -204q-220 0 -346 136q-127 137 -127 378z" />
    <glyph glyph-name="odieresis.smcp" unicode="&#xe284;" horiz-adv-x="1288" 
d="M973 1278q-47 0 -78 32t-31 77q0 46 31 76t78 30t78 -30t31 -76q0 -45 -32 -77q-30 -32 -77 -32zM580 1493q48 0 78 -30t30 -76q0 -45 -31 -77t-77 -32t-78 32q-31 32 -31 77q0 46 31 76t78 30zM1016 666q0 169 -79 272q-79 102 -226 100q-192 0 -308 -189
q-100 -163 -100 -370q0 -250 170 -336q57 -29 148 -29t167 54q76 53 127 135q51 83 76 181t25 182zM127 489q0 129 40 256q83 263 303 376q110 57 234 57q232 1 360 -135q128 -135 128 -367q0 -294 -162 -497q-162 -202 -430 -204q-220 0 -346 136q-127 137 -127 378z" />
    <glyph glyph-name="odieresis.smcp" unicode="&#xf7f6;" horiz-adv-x="1288" 
d="M973 1278q-47 0 -78 32t-31 77q0 46 31 76t78 30t78 -30t31 -76q0 -45 -32 -77q-30 -32 -77 -32zM580 1493q48 0 78 -30t30 -76q0 -45 -31 -77t-77 -32t-78 32q-31 32 -31 77q0 46 31 76t78 30zM1016 666q0 169 -79 272q-79 102 -226 100q-192 0 -308 -189
q-100 -163 -100 -370q0 -250 170 -336q57 -29 148 -29t167 54q76 53 127 135q51 83 76 181t25 182zM127 489q0 129 40 256q83 263 303 376q110 57 234 57q232 1 360 -135q128 -135 128 -367q0 -294 -162 -497q-162 -202 -430 -204q-220 0 -346 136q-127 137 -127 378z" />
    <glyph glyph-name="otilde.smcp" unicode="&#xe285;" horiz-adv-x="1288" 
d="M641 1378q-82 0 -137 -92l-82 82q46 71 129 109q43 20 110 20t145 -52q30 -19 58 -35t62 -17q83 0 135 94l82 -82q-45 -72 -129 -110q-43 -19 -110 -19t-145 51q-30 19 -57 35t-61 16zM1016 666q0 169 -79 272q-79 102 -226 100q-192 0 -308 -189q-100 -163 -100 -370
q0 -250 170 -336q57 -29 148 -29t167 54q76 53 127 135q51 83 76 181t25 182zM127 489q0 129 40 256q83 263 303 376q110 57 234 57q232 1 360 -135q128 -135 128 -367q0 -294 -162 -497q-162 -202 -430 -204q-220 0 -346 136q-127 137 -127 378z" />
    <glyph glyph-name="otilde.smcp" unicode="&#xf7f5;" horiz-adv-x="1288" 
d="M641 1378q-82 0 -137 -92l-82 82q46 71 129 109q43 20 110 20t145 -52q30 -19 58 -35t62 -17q83 0 135 94l82 -82q-45 -72 -129 -110q-43 -19 -110 -19t-145 51q-30 19 -57 35t-61 16zM1016 666q0 169 -79 272q-79 102 -226 100q-192 0 -308 -189q-100 -163 -100 -370
q0 -250 170 -336q57 -29 148 -29t167 54q76 53 127 135q51 83 76 181t25 182zM127 489q0 129 40 256q83 263 303 376q110 57 234 57q232 1 360 -135q128 -135 128 -367q0 -294 -162 -497q-162 -202 -430 -204q-220 0 -346 136q-127 137 -127 378z" />
    <glyph glyph-name="omacron.smcp" unicode="&#xe287;" horiz-adv-x="1288" 
d="M516 1411h531l-21 -121h-530zM1016 666q0 169 -79 272q-79 102 -226 100q-192 0 -308 -189q-100 -163 -100 -370q0 -250 170 -336q57 -29 148 -29t167 54q76 53 127 135q51 83 76 181t25 182zM127 489q0 129 40 256q83 263 303 376q110 57 234 57q232 1 360 -135
q128 -135 128 -367q0 -294 -162 -497q-162 -202 -430 -204q-220 0 -346 136q-127 137 -127 378z" />
    <glyph glyph-name="omacron.smcp" unicode="&#xf657;" horiz-adv-x="1288" 
d="M516 1411h531l-21 -121h-530zM1016 666q0 169 -79 272q-79 102 -226 100q-192 0 -308 -189q-100 -163 -100 -370q0 -250 170 -336q57 -29 148 -29t167 54q76 53 127 135q51 83 76 181t25 182zM127 489q0 129 40 256q83 263 303 376q110 57 234 57q232 1 360 -135
q128 -135 128 -367q0 -294 -162 -497q-162 -202 -430 -204q-220 0 -346 136q-127 137 -127 378z" />
    <glyph glyph-name="obreve.smcp" unicode="&#xe288;" horiz-adv-x="1288" 
d="M772 1380q72 0 126 45t75 109l135 -41q-33 -94 -122 -161q-89 -66 -215 -66t-203 63t-87 164l135 41q2 -62 43 -108t113 -46zM1016 666q0 169 -79 272q-79 102 -226 100q-192 0 -308 -189q-100 -163 -100 -370q0 -250 170 -336q57 -29 148 -29t167 54q76 53 127 135
q51 83 76 181t25 182zM127 489q0 129 40 256q83 263 303 376q110 57 234 57q232 1 360 -135q128 -135 128 -367q0 -294 -162 -497q-162 -202 -430 -204q-220 0 -346 136q-127 137 -127 378z" />
    <glyph glyph-name="obreve.smcp" unicode="&#xf635;" horiz-adv-x="1288" 
d="M772 1380q72 0 126 45t75 109l135 -41q-33 -94 -122 -161q-89 -66 -215 -66t-203 63t-87 164l135 41q2 -62 43 -108t113 -46zM1016 666q0 169 -79 272q-79 102 -226 100q-192 0 -308 -189q-100 -163 -100 -370q0 -250 170 -336q57 -29 148 -29t167 54q76 53 127 135
q51 83 76 181t25 182zM127 489q0 129 40 256q83 263 303 376q110 57 234 57q232 1 360 -135q128 -135 128 -367q0 -294 -162 -497q-162 -202 -430 -204q-220 0 -346 136q-127 137 -127 378z" />
    <glyph glyph-name="ohungarumlaut.smcp" unicode="&#xe28a;" horiz-adv-x="1288" 
d="M1266 1462l-373 -213l-45 97l354 247zM860 1462l-373 -213l-45 97l355 247zM1016 666q0 169 -79 272q-79 102 -226 100q-192 0 -308 -189q-100 -163 -100 -370q0 -250 170 -336q57 -29 148 -29t167 54q76 53 127 135q51 83 76 181t25 182zM127 489q0 129 40 256
q83 263 303 376q110 57 234 57q232 1 360 -135q128 -135 128 -367q0 -294 -162 -497q-162 -202 -430 -204q-220 0 -346 136q-127 137 -127 378z" />
    <glyph glyph-name="ohungarumlaut.smcp" unicode="&#xf656;" horiz-adv-x="1288" 
d="M1266 1462l-373 -213l-45 97l354 247zM860 1462l-373 -213l-45 97l355 247zM1016 666q0 169 -79 272q-79 102 -226 100q-192 0 -308 -189q-100 -163 -100 -370q0 -250 170 -336q57 -29 148 -29t167 54q76 53 127 135q51 83 76 181t25 182zM127 489q0 129 40 256
q83 263 303 376q110 57 234 57q232 1 360 -135q128 -135 128 -367q0 -294 -162 -497q-162 -202 -430 -204q-220 0 -346 136q-127 137 -127 378z" />
    <glyph glyph-name="oslash.smcp" unicode="&#xe295;" horiz-adv-x="1288" 
d="M1016 684q0 102 -37 184l-561 -692q78 -61 186 -61t184 53q149 104 203 315q25 99 25 201zM719 1038q-113 0 -189 -53q-150 -104 -202 -317q-25 -98 -25 -202t41 -192l561 695q-74 69 -186 69zM1192 676q0 -294 -162 -497q-162 -202 -430 -204q-168 0 -281 78l-126 -155
l-93 75l131 162q-104 133 -104 342q0 294 162 497q162 202 430 204q167 0 287 -84l124 153l93 -76l-131 -161q100 -134 100 -334z" />
    <glyph glyph-name="oslash.smcp" unicode="&#xf7f8;" horiz-adv-x="1288" 
d="M1016 684q0 102 -37 184l-561 -692q78 -61 186 -61t184 53q149 104 203 315q25 99 25 201zM719 1038q-113 0 -189 -53q-150 -104 -202 -317q-25 -98 -25 -202t41 -192l561 695q-74 69 -186 69zM1192 676q0 -294 -162 -497q-162 -202 -430 -204q-168 0 -281 78l-126 -155
l-93 75l131 162q-104 133 -104 342q0 294 162 497q162 202 430 204q167 0 287 -84l124 153l93 -76l-131 -161q100 -134 100 -334z" />
    <glyph glyph-name="oe.smcp" unicode="&#xe298;" horiz-adv-x="1800" 
d="M303 490q0 -174 79 -276q79 -101 223 -100q145 1 247 123q103 122 137 314l10 61q35 201 -38 314q-74 112 -257 112t-298 -183q-51 -81 -77 -179t-26 -186zM127 491q0 129 40 255q83 261 302 375q109 57 252 57t228 -50t126 -114l25 141h706l-24 -139h-537l-61 -352h502
l-25 -138h-502l-67 -387h546l-24 -139h-717l25 135q-41 -67 -126 -113t-198 -46t-199 34q-86 35 -146 101q-60 67 -93 159t-33 221z" />
    <glyph glyph-name="oe.smcp" unicode="&#xf6fa;" horiz-adv-x="1800" 
d="M303 490q0 -174 79 -276q79 -101 223 -100q145 1 247 123q103 122 137 314l10 61q35 201 -38 314q-74 112 -257 112t-298 -183q-51 -81 -77 -179t-26 -186zM127 491q0 129 40 255q83 261 302 375q109 57 252 57t228 -50t126 -114l25 141h706l-24 -139h-537l-61 -352h502
l-25 -138h-502l-67 -387h546l-24 -139h-717l25 135q-41 -67 -126 -113t-198 -46t-199 34q-86 35 -146 101q-60 67 -93 159t-33 221z" />
    <glyph glyph-name="racute.smcp" unicode="&#xe29a;" horiz-adv-x="1120" 
d="M948 1462l-393 -213l-45 97l375 247zM653 1016h-209l-67 -391h229q140 1 210 71t71 159q-1 89 -59 125t-175 36zM942 1093q119 -79 119 -223t-89 -243t-231 -123l211 -504h-186l-197 489h-217l-86 -489h-168l205 1155h406q138 0 233 -62z" />
    <glyph glyph-name="racute.smcp" unicode="&#xf658;" horiz-adv-x="1120" 
d="M948 1462l-393 -213l-45 97l375 247zM653 1016h-209l-67 -391h229q140 1 210 71t71 159q-1 89 -59 125t-175 36zM942 1093q119 -79 119 -223t-89 -243t-231 -123l211 -504h-186l-197 489h-217l-86 -489h-168l205 1155h406q138 0 233 -62z" />
    <glyph glyph-name="rcaron.smcp" unicode="&#xe29b;" horiz-adv-x="1120" 
d="M731 1253h-115l-184 269l92 69l160 -217l244 219l80 -82zM653 1016h-209l-67 -391h229q140 1 210 71t71 159q-1 89 -59 125t-175 36zM942 1093q119 -79 119 -223t-89 -243t-231 -123l211 -504h-186l-197 489h-217l-86 -489h-168l205 1155h406q138 0 233 -62z" />
    <glyph glyph-name="rcaron.smcp" unicode="&#xf659;" horiz-adv-x="1120" 
d="M731 1253h-115l-184 269l92 69l160 -217l244 219l80 -82zM653 1016h-209l-67 -391h229q140 1 210 71t71 159q-1 89 -59 125t-175 36zM942 1093q119 -79 119 -223t-89 -243t-231 -123l211 -504h-186l-197 489h-217l-86 -489h-168l205 1155h406q138 0 233 -62z" />
    <glyph glyph-name="rcommaaccent.smcp" unicode="&#xe29e;" horiz-adv-x="1120" 
d="M588 -227q0 -137 -109 -201q-41 -25 -104 -27l-19 68q47 1 83 23t40 67q-2 -2 -4 -2h-14q-35 2 -60 28q-53 55 1 129q26 34 79 34t80 -40q27 -39 27 -79zM653 1016h-209l-67 -391h229q140 1 210 71t71 159q-1 89 -59 125t-175 36zM942 1093q119 -79 119 -223t-89 -243
t-231 -123l211 -504h-186l-197 489h-217l-86 -489h-168l205 1155h406q138 0 233 -62z" />
    <glyph glyph-name="rcommaaccent.smcp" unicode="&#xf65a;" horiz-adv-x="1120" 
d="M588 -227q0 -137 -109 -201q-41 -25 -104 -27l-19 68q47 1 83 23t40 67q-2 -2 -4 -2h-14q-35 2 -60 28q-53 55 1 129q26 34 79 34t80 -40q27 -39 27 -79zM653 1016h-209l-67 -391h229q140 1 210 71t71 159q-1 89 -59 125t-175 36zM942 1093q119 -79 119 -223t-89 -243
t-231 -123l211 -504h-186l-197 489h-217l-86 -489h-168l205 1155h406q138 0 233 -62z" />
    </font>
</defs>
</svg>
